<?xml version="1.0" standalone="no"?>
<!DOCTYPE svg PUBLIC "-//W3C//DTD SVG 1.1//EN" "http://www.w3.org/Graphics/SVG/1.1/DTD/svg11.dtd" >
<svg>
<metadata>
Created by FontForge 20090914 at Fri May 20 10:59:53 2016
 By www-data
Copyright (c) 2014 by Kotta Rainen. All rights reserved.
</metadata>
<defs>
<font id="Kundera-Italic" horiz-adv-x="534" >
  <font-face 
    font-family="Kundera"
    font-weight="400"
    font-style="italic"
    font-stretch="normal"
    units-per-em="1000"
    panose-1="2 0 5 3 0 0 0 9 0 4"
    ascent="750"
    descent="-250"
    x-height="506.996"
    cap-height="680"
    bbox="-91 -280.001 1039 899.001"
    underline-thickness="50"
    underline-position="-50"
    slope="-12"
    unicode-range="U+000D-U+2265"
  />
<missing-glyph horiz-adv-x="250" 
 />
    <glyph glyph-name="f_f" unicode="ff" horiz-adv-x="638" 
d="M312 -151l9.49512 36.499c3.66699 14.333 7.33398 30 11.001 47l11.5 53.5l12 56l90 422h-211l-90 -422c-3.33301 -15.333 -6.5 -31.666 -9.5 -48.999l-8.5 -51c-2.66699 -16.667 -4.66699 -32 -6 -46s-2 -25.333 -2 -34c0 -6.66699 0.333008 -11 1 -13h-111l9.5 36.5
c3.66699 14.333 7.33398 30 11.001 47l11.5 53.5l12 56l90 422h-51l-2 23l60 11l8 37c8 37.333 19.667 69.5 35 96.5s33.5 49.333 54.5 67s44 30.667 69 39s51.5 12.5 79.5 12.5c48 0 98.333 -12.333 151 -37c20.667 20 43.334 35.333 68.001 46s50 16 76 16
c13.333 0 29.833 -1.5 49.5 -4.5s37.167 -7.83301 52.5 -14.5l-14 -64c-3.33301 -4 -7.66602 -7.5 -12.999 -10.5s-10 -4.5 -14 -4.5c-9.33301 0 -16.166 3.16699 -20.499 9.5l-14 21c-5 7.66699 -11.667 14.667 -20 21s-20.833 9.5 -37.5 9.5s-32.5 -4.83301 -47.5 -14.5
s-24.167 -22.834 -27.5 -39.501l-39 -184h129l-8 -36h-129l-90 -422c-3.33301 -15.333 -6.5 -31.666 -9.5 -48.999l-8.5 -51c-2.66699 -16.667 -4.66699 -32 -6 -46s-2 -25.333 -2 -34c0 -6.66699 0.333008 -11 1 -13h-111zM242.995 499.999h210l14 60
c4 18 9 35.167 15 51.5s13.333 31.5 22 45.5c-8 6 -17.833 12.167 -29.5 18.5s-24 12.333 -37 18s-26.333 10.334 -40 14.001s-27.167 5.5 -40.5 5.5c-21.333 0 -39.333 -4.83301 -54 -14.5s-23.667 -22.834 -27 -39.501z" />
    <glyph glyph-name="s_t" unicode="st" horiz-adv-x="686" 
d="M466 464l-0.998047 19.001l55 15c12 8.66699 22.833 19.167 32.5 31.5s18 25.5 25 39.5s12.5 28.5 16.5 43.5s6 29.5 6 43.5c0 13.333 -2.16699 26.166 -6.5 38.499s-11 23 -20 32s-20.833 16.167 -35.5 21.5s-32.334 8 -53.001 8s-41.167 -4.33301 -61.5 -13
s-38.5 -20.334 -54.5 -35.001s-29 -31.834 -39 -51.501s-15 -40.834 -15 -63.501c0 -22 4.33301 -42.833 13 -62.5s20.667 -37.167 36 -52.5l-15 -69c-8.66699 -8.66699 -17 -13 -25 -13c-7.33301 0 -13.5 3.83301 -18.5 11.5l-16 25.5
c-5.66699 9.33301 -12.167 17.833 -19.5 25.5s-17 11.5 -29 11.5c-8.66699 0 -17.667 -1.83301 -27 -5.5s-18 -8.83398 -26 -15.501s-14.5 -14.667 -19.5 -24s-7.5 -19.333 -7.5 -30c0 -8.66699 2.33301 -16.667 7 -24s11.334 -15 20.001 -23l108 -99
c33.333 -30 50 -62.333 50 -97c0 -27.333 -6.5 -51 -19.5 -71s-29.833 -36.5 -50.5 -49.5s-44 -22.667 -70 -29s-51.667 -9.5 -77 -9.5s-46.666 3.5 -63.999 10.5s-34.666 17.167 -51.999 30.5l14 69c10 8.66699 18.667 13 26 13c8.66699 0 14.834 -4.5 18.501 -13.5
s8 -18.667 13 -29s12.5 -20 22.5 -29s25.667 -13.5 47 -13.5c11.333 0 23.166 1.83301 35.499 5.5s23.666 8.83398 33.999 15.501s18.833 15 25.5 25s10 21.667 10 35s-3.33301 24.833 -10 34.5s-15.334 19.834 -26.001 30.501l-90 88
c-15.333 14.667 -27.166 28.667 -35.499 42s-12.5 28.333 -12.5 45c0 20 4.16699 39.333 12.5 58s20 35.167 35 49.5s32.833 25.833 53.5 34.5s43.667 13 69 13c14 0 26.667 -1.33301 38 -4c-12.667 24.667 -19 50.334 -19 77.001c0 29.333 7 57 21 83s32.333 48.5 55 67.5
s48.5 34 77.5 45s58.5 16.5 88.5 16.5c27.333 0 50.833 -3.5 70.5 -10.5s36 -16.667 49 -29s22.5 -26.666 28.5 -42.999s9 -33.833 9 -52.5c0 -25.333 -5 -51.833 -15 -79.5s-25.667 -53.5 -47 -77.5h115l-8 -36h-114l-81 -392c0 -9.33301 2.66699 -15.666 8 -18.999
s12.333 -5 21 -5c4.66699 0 10.667 0.5 18 1.5s14.833 2.33301 22.5 4s15.167 3.5 22.5 5.5s13.666 3.66699 18.999 5l5 -23c-13.333 -6.66699 -27.166 -12.834 -41.499 -18.501s-28.333 -10.667 -42 -15s-26.834 -7.83301 -39.501 -10.5s-23.334 -4 -32.001 -4
c-12.667 0 -25.334 4.66699 -38.001 14s-19 25.333 -19 48c0 0.666992 0.166992 2 0.5 4s1.33301 7.16699 3 15.5l7.5 37.5l14.5 70l24 113.5l35.5 168.5h-46z" />
    <glyph glyph-name="f_i" unicode="fi" horiz-adv-x="542" 
d="M533 475c0 -1.33301 -1.33203 -8.16797 -3.99902 -20.501l-10 -48l-14 -66.5l-16 -76l-44 -206h72l4 -19l-106 -46c-4.66699 0 -10.334 1.33301 -17.001 4s-13 6.83398 -19 12.501s-11.167 13 -15.5 22s-6.5 19.5 -6.5 31.5c0 3.33301 0.166992 6 0.5 8
s0.833008 4.33301 1.5 7l81 386h-205l-90 -422c-3.33301 -15.333 -6.5 -31.666 -9.5 -48.999l-8.5 -51c-2.66699 -16.667 -4.66699 -32 -6 -46s-2 -25.333 -2 -34c0 -6.66699 0.333008 -11 1 -13h-111l9.5 36.5c3.66699 14.333 7.33398 30 11.001 47l11.5 53.5l12 56l90 422
h-51l-2 23l60 11l8 37c8.66699 38.667 21.5 71.667 38.5 99s37.167 49.666 60.5 66.999s49 29.833 77 37.5s57.667 11.5 89 11.5c24 0 48.167 -2.5 72.5 -7.5s49.166 -11.167 74.499 -18.5l-17 -83c-2 -1.33301 -5 -2.83301 -9 -4.5l-12.5 -5
c-4.33301 -1.66699 -8.83301 -3 -13.5 -4s-8.33398 -1.5 -11.001 -1.5c-7.33301 0 -13.166 4.66699 -17.499 14s-10 19.5 -17 30.5s-16.5 21.167 -28.5 30.5s-29.667 14 -53 14c-8.66699 0 -19.334 -1.83301 -32.001 -5.5s-25.167 -9.5 -37.5 -17.5
s-23.666 -18.833 -33.999 -32.5s-17.5 -30.5 -21.5 -50.5l-23 -109h204c8 2 16.667 3.66699 26 5s17 2 23 2c11.333 0 20.333 -2.5 27 -7.5s10 -13.167 10 -24.5z" />
    <glyph glyph-name="f_j" unicode="fj" horiz-adv-x="540" 
d="M533 475c0 -2 -1.49707 -10.666 -4.49707 -25.999l-11.5 -58l-16.5 -79l-18.5 -89l-51 -240c-7.33301 -33.333 -19.333 -63.833 -36 -91.5s-35.834 -52.5 -57.501 -74.5s-44.5 -41.167 -68.5 -57.5s-46.333 -29.5 -67 -39.5l-7 28l85 86c8 8 14.5 15.5 19.5 22.5
s9.16699 14.167 12.5 21.5s6.16602 15.166 8.49902 23.499s4.5 17.5 6.5 27.5l113 535h-205l-90 -422c-3.33301 -15.333 -6.5 -31.666 -9.5 -48.999l-8.5 -51c-2.66699 -16.667 -4.66699 -32 -6 -46s-2 -25.333 -2 -34c0 -6.66699 0.333008 -11 1 -13h-111l9.5 36.5
c3.66699 14.333 7.33398 30 11.001 47l11.5 53.5l12 56l90 422h-51l-2 23l60 11l8 37c8.66699 38.667 21.5 71.667 38.5 99s37.167 49.666 60.5 66.999s49 29.833 77 37.5s57.667 11.5 89 11.5c24 0 48.167 -2.5 72.5 -7.5s49.166 -11.167 74.499 -18.5l-17 -83
c-2 -1.33301 -5 -2.83301 -9 -4.5l-12.5 -5c-4.33301 -1.66699 -8.83301 -3 -13.5 -4s-8.33398 -1.5 -11.001 -1.5c-7.33301 0 -13.166 4.66699 -17.499 14s-10 19.5 -17 30.5s-16.5 21.167 -28.5 30.5s-29.667 14 -53 14c-8.66699 0 -19.334 -1.83301 -32.001 -5.5
s-25.167 -9.5 -37.5 -17.5s-23.666 -18.833 -33.999 -32.5s-17.5 -30.5 -21.5 -50.5l-23 -109h205c8 2 16.833 3.66699 26.5 5s17.167 2 22.5 2c11.333 0 20.166 -2.5 26.499 -7.5s9.5 -13.167 9.5 -24.5z" />
    <glyph glyph-name="E_t" unicode="Et" horiz-adv-x="675" 
d="M502 72c-0.666992 -2 -1 -4.32812 -1 -6.99512c0 -11.333 9.66699 -17 29 -17c10 0 22 1.33301 36 4s29.667 6.66699 47 12l2 -23c-28 -12.667 -55.833 -23.834 -83.5 -33.501s-51.5 -14.5 -71.5 -14.5c-15.333 0 -28.333 4.16699 -39 12.5s-16 20.833 -16 37.5
c0 6 1 12.667 3 20c0.666992 2 3.16699 10.667 7.5 26s10 34.166 17 56.499l22.5 73l24 77.5h-168c-26 0 -49.667 -5.33301 -71 -16s-39.666 -24.667 -54.999 -42s-27.333 -37.5 -36 -60.5s-13 -46.5 -13 -70.5c0 -8.66699 1 -16.667 3 -24s4.66699 -12.333 8 -15
c3.33301 -3.33301 9.33301 -5 18 -5c13.333 0 30.5 3.5 51.5 10.5s42.667 15.333 65 25s43.5 19.667 63.5 30l48 25.5l9 -32c-16 -11.333 -35.833 -24.5 -59.5 -39.5s-48.167 -29.167 -73.5 -42.5s-49.833 -24.5 -73.5 -33.5s-43.5 -13.5 -59.5 -13.5
c-16.667 0 -30.834 3.16699 -42.501 9.5s-21.334 15 -29.001 26s-13.334 23.667 -17.001 38s-5.5 29.166 -5.5 44.499c0 28.667 5.33301 55 16 79s25.334 45.5 44.001 64.5s40.5 34.833 65.5 47.5s51.833 21.667 80.5 27c-28 10 -51.5 24.667 -70.5 44s-28.5 43 -28.5 71
c0 30.667 6.33301 56.5 19 77.5s29.334 37.833 50.001 50.5s44 21.667 70 27s52.667 8 80 8c22.667 0 44.667 -1.66699 66 -5s41.333 -7.66602 60 -12.999l-40 -79c-7.33301 4 -16.333 9.33301 -27 16s-22 13 -34 19s-23.833 11.333 -35.5 16s-21.834 7 -30.501 7
c-15.333 0 -28.333 -4.33301 -39 -13s-19.667 -19.834 -27 -33.501s-12.666 -28.834 -15.999 -45.501s-5 -33 -5 -49c0 -25.333 7.83301 -45.5 23.5 -60.5s39.5 -22.5 71.5 -22.5h159c1.33301 5.33301 3 10.666 5 15.999s3.66699 10.333 5 15l102 27l-18 -58h87l-10 -30
l-92 -11z" />
    <glyph glyph-name=".notdef" horiz-adv-x="250" 
 />
    <glyph glyph-name="NULL" horiz-adv-x="0" 
 />
    <glyph glyph-name="NULL" horiz-adv-x="0" 
 />
    <glyph glyph-name="nonmarkingreturn" unicode="&#xd;" horiz-adv-x="250" 
 />
    <glyph glyph-name="space" unicode=" " horiz-adv-x="250" 
 />
    <glyph glyph-name="exclam" unicode="!" horiz-adv-x="268" 
d="M109 260l51.002 398c11.333 8 22.166 15.167 32.499 21.5s21.166 9.5 32.499 9.5c12 0 22 -3.16699 30 -9.5s15.667 -13.5 23 -21.5l-119 -398h-50zM150.002 56c-0.666992 -5.33301 -3.83008 -11.665 -9.49707 -18.998s-12.334 -14.333 -20.001 -21
s-15.5 -12.167 -23.5 -16.5s-14.667 -6.5 -20 -6.5s-10.833 2 -16.5 6s-10.667 8.83301 -15 14.5s-8 11.667 -11 18s-4.5 12.166 -4.5 17.499c0 7.33301 2.5 14.833 7.5 22.5s11.167 14.5 18.5 20.5s15.166 11 23.499 15s16.166 6 23.499 6c5.33301 0 10.833 -2 16.5 -6
s10.667 -9 15 -15s8 -12.333 11 -19s4.5 -12.334 4.5 -17.001z" />
    <glyph glyph-name="quotedbl" unicode="&#x22;" horiz-adv-x="303" 
d="M126 761c8 3.33301 15.333 5.83301 22 7.5s13.334 2.5 20.001 2.5c13.333 0 25.666 -3.33301 36.999 -10l-94 -291h-47zM250 761c8 3.33301 15.333 5.83301 22 7.5s13.334 2.5 20.001 2.5c13.333 0 25.666 -3.33301 36.999 -10l-94 -291h-47z" />
    <glyph glyph-name="numbersign" unicode="#" horiz-adv-x="565" 
d="M325 137h-141l-42 -160h-58l42 160h-104l12 57h107l40 150h-105l12 57h108l45 167h58l-45 -167h141l45 167h58l-45 -167h97l-12 -57h-100l-40 -150h98l-12 -57h-101l-42 -160h-58zM199 194h141l40 150h-141z" />
    <glyph glyph-name="dollar" unicode="$" horiz-adv-x="406" 
d="M354 416l-30.999 17.501c-11.333 6.33301 -22.333 12.166 -33 17.499s-20.334 9.66602 -29.001 12.999s-15 5 -19 5c-8.66699 0 -17.5 -2 -26.5 -6s-17.167 -9.33301 -24.5 -16s-13.333 -14.5 -18 -23.5s-7 -18.5 -7 -28.5c0 -8.66699 2.33301 -16.667 7 -24
s11.334 -15 20.001 -23l108 -99c33.333 -30 50 -62.333 50 -97c0 -23.333 -5 -44.166 -15 -62.499s-23 -34.166 -39 -47.499s-34.333 -24 -55 -32s-42 -13 -64 -15l-27 -128h-54l27 128c-18 2.66699 -36.333 7.16699 -55 13.5s-35.667 13.833 -51 22.5l15 70
c5.33301 -3.33301 13.666 -8.83301 24.999 -16.5s23.5 -15.5 36.5 -23.5s25.667 -15 38 -21s22.5 -9 30.5 -9c10.667 0 22 2 34 6s23 9.5 33 16.5s18.167 15.5 24.5 25.5s9.5 21 9.5 33c0 13.333 -3.33301 24.833 -10 34.5s-15.334 19.834 -26.001 30.501l-90 88
c-15.333 14.667 -27.166 28.667 -35.499 42s-12.5 28.333 -12.5 45c0 23.333 3.83301 43.833 11.5 61.5s18 32.667 31 45s28.167 22.166 45.5 29.499s35.666 12.666 54.999 15.999l31 147h54l-31 -145c14 -1.33301 30.333 -3.83301 49 -7.5s35.334 -8.5 50.001 -14.5z" />
    <glyph glyph-name="percent" unicode="%" horiz-adv-x="591" 
d="M557 522l34 -38l-503 -456l-33 38zM81 408c0 20 4.5 39.501 13.5 58.501s21 36 36 51s32.5 27 52.5 36s40.667 13.5 62 13.5c30 0 54.5 -7.66699 73.5 -23s28.5 -37.333 28.5 -66c0 -20 -4.5 -39.5 -13.5 -58.5s-21.167 -35.833 -36.5 -50.5
s-32.833 -26.334 -52.5 -35.001s-40.5 -13 -62.5 -13c-30 0 -54.333 7.5 -73 22.5s-28 36.5 -28 64.5zM237 547.001c-15.333 0 -28.668 -4.66699 -40.001 -14s-21 -21 -29 -35s-14 -29.167 -18 -45.5s-6 -31.166 -6 -44.499c0 -19.333 4 -35.333 12 -48s20.333 -19 37 -19
c15.333 0 28.833 4.66699 40.5 14s21.334 20.833 29.001 34.5s13.5 28.5 17.5 44.5s6 30.667 6 44c0 19.333 -4 35.666 -12 48.999s-20.333 20 -37 20zM281.998 65.001c0 20 4.5 39.501 13.5 58.501s21 36 36 51s32.5 27 52.5 36s40.667 13.5 62 13.5
c30 0 54.5 -7.66699 73.5 -23s28.5 -37.333 28.5 -66c0 -20 -4.5 -39.5 -13.5 -58.5s-21.167 -35.833 -36.5 -50.5s-32.833 -26.334 -52.5 -35.001s-40.5 -13 -62.5 -13c-30 0 -54.333 7.5 -73 22.5s-28 36.5 -28 64.5zM437.998 204.002
c-15.333 0 -28.668 -4.66699 -40.001 -14s-21 -21 -29 -35s-14 -29.167 -18 -45.5s-6 -31.166 -6 -44.499c0 -19.333 4 -35.333 12 -48s20.333 -19 37 -19c15.333 0 28.833 4.66699 40.5 14s21.334 20.833 29.001 34.5s13.5 28.5 17.5 44.5s6 30.667 6 44
c0 19.333 -4 35.666 -12 48.999s-20.333 20 -37 20z" />
    <glyph glyph-name="ampersand" unicode="&#x26;" horiz-adv-x="609" 
d="M404 0l-56.001 114.999c-27.333 -27.333 -52 -49 -74 -65s-42 -28.167 -60 -36.5s-34.167 -13.833 -48.5 -16.5s-27.166 -4 -38.499 -4c-28 0 -51.167 8 -69.5 24s-27.5 41.333 -27.5 76c0 30 5.83301 57.5 17.5 82.5s27 48.333 46 70s40.667 41.5 65 59.5
s48.833 35 73.5 51l-38 80c-10 20.667 -15 42 -15 64c0 25.333 5.66699 49.333 17 72s26.5 42.5 45.5 59.5s40.667 30.5 65 40.5s49.833 15 76.5 15c22.667 0 40 -2.33301 52 -7s24.667 -10 38 -16l31 7l-25 -118c-8.66699 -4.66699 -14.667 -7 -18 -7
c-4 0 -6.33301 2.33301 -7 7s-1 10.667 -1 18c0 23.333 -5.16699 42.5 -15.5 57.5s-28.833 22.5 -55.5 22.5c-13.333 0 -26.833 -2.33301 -40.5 -7s-26 -11.167 -37 -19.5s-19.833 -18.666 -26.5 -30.999s-10 -26.166 -10 -41.499c0 -10.667 1.33301 -20.334 4 -29.001
l52 -111l31 19h254l-13 -64h-52l-63.5 -91.5c-19 -27 -37.833 -52.167 -56.5 -75.5l96 -200h-116zM186.999 61.999c6.66699 0 14.168 0.832031 22.501 2.49902s18.166 5.5 29.499 11.5s24.666 14.667 39.999 26s33 26.666 53 45.999l-84 175
c-15.333 -10.667 -30.166 -22.667 -44.499 -36s-27.333 -27.666 -39 -42.999s-21 -32.166 -28 -50.499s-10.5 -37.833 -10.5 -58.5c0 -25.333 5.83301 -43.833 17.5 -55.5s26.167 -17.5 43.5 -17.5zM346 366.998l63 -135c15.333 18 31.333 38.167 48 60.5l56 74.5h-167z" />
    <glyph glyph-name="quotesingle" unicode="'" horiz-adv-x="241" 
d="M162 761c8 3.33301 15.333 5.83301 22 7.5s13.334 2.5 20.001 2.5c13.333 0 25.666 -3.33301 36.999 -10l-94 -291h-47z" />
    <glyph glyph-name="parenleft" unicode="(" horiz-adv-x="278" 
d="M160 -183c-37.333 56 -65.5 112.001 -84.5 168.001s-28.5 113.333 -28.5 172c0 55.333 8.16699 108.666 24.5 159.999s38.5 100.833 66.5 148.5s60.5 93.334 97.5 137.001s76.167 85.5 117.5 125.5l10 -17c-31.333 -43.333 -61 -88.666 -89 -135.999
s-52.667 -96.5 -74 -147.5s-38.333 -103.5 -51 -157.5s-19 -109.333 -19 -166c0 -46.667 4.33301 -92.334 13 -137.001s20.667 -89.334 36 -134.001z" />
    <glyph glyph-name="parenright" unicode=")" horiz-adv-x="280" 
d="M-60 -167c32.667 42.667 63.001 87.1689 91.001 133.502s52.333 94.5 73 144.5s37 101.667 49 155s18 108.666 18 165.999c0 44 -3.33301 89 -10 135s-17.334 94 -32.001 144l16 17c38 -59.333 66.167 -117.833 84.5 -175.5s27.5 -114.834 27.5 -171.501
c0 -55.333 -8.16699 -108.5 -24.5 -159.5s-38.333 -100 -66 -147s-60 -92 -97 -135s-76.167 -83.833 -117.5 -122.5z" />
    <glyph glyph-name="asterisk" unicode="*" horiz-adv-x="445" 
d="M245 558l-95 -120.999c-4.66699 0 -9.16699 0.5 -13.5 1.5s-8.83301 3.16699 -13.5 6.5c-3.33301 3.33301 -5.83301 7.33301 -7.5 12s-2.83398 9.33398 -3.50098 14.001l115 104l-132 29v8c0 2.66699 0.333008 5.66699 1 9c2 9.33301 5.5 16.666 10.5 21.999
s11.167 10.333 18.5 15l115 -56l16 139c5.33301 2.66699 10.5 5 15.5 7s10.167 3 15.5 3c6 0 11.167 -1 15.5 -3s8.5 -4.33301 12.5 -7l-45 -139l139 56c9.33301 -8 14 -17.667 14 -29c0 -4 -0.666992 -8.16699 -2 -12.5l-4 -12.5l-145 -29l71 -104
c-2.66699 -4.66699 -5.66699 -9.33398 -9 -14.001s-7.66602 -8.66699 -12.999 -12c-6 -3.33301 -11.667 -5.5 -17 -6.5s-10.333 -1.5 -15 -1.5z" />
    <glyph glyph-name="plus" unicode="+" horiz-adv-x="577" 
d="M280 351l42 198h63l-42 -198h212l-13 -60h-212l-48 -227h-63l48 227h-212l13 60h212z" />
    <glyph glyph-name="comma" unicode="," horiz-adv-x="208" 
d="M152 58c-5.33301 -26 -14.168 -48.8301 -26.501 -68.4971s-25 -36.334 -38 -50.001s-25.167 -24.334 -36.5 -32.001s-18.666 -12.5 -21.999 -14.5l-9 15c10.667 8.66699 22.667 20.167 36 34.5s23.333 31.166 30 50.499c-6 0 -12.167 1.83301 -18.5 5.5
s-12.166 8.33398 -17.499 14.001s-9.66602 11.834 -12.999 18.501s-5 13 -5 19c0 6.66699 2.5 13.667 7.5 21s11.333 14.166 19 20.499s15.667 11.5 24 15.5s15.833 6 22.5 6c5.33301 0 10.666 -2 15.999 -6s10.166 -8.66699 14.499 -14s8 -11.333 11 -18
s4.83301 -12.334 5.5 -17.001z" />
    <glyph glyph-name="hyphen" unicode="-" horiz-adv-x="352" 
d="M334 314l-15 -65h-275l14 65h276z" />
    <glyph glyph-name="period" unicode="." horiz-adv-x="185" 
d="M150 56c-0.666992 -5.33301 -3.83008 -11.665 -9.49707 -18.998s-12.334 -14.333 -20.001 -21s-15.5 -12.167 -23.5 -16.5s-14.667 -6.5 -20 -6.5s-10.833 2 -16.5 6s-10.667 8.83301 -15 14.5s-8 11.667 -11 18s-4.5 12.166 -4.5 17.499c0 7.33301 2.5 14.833 7.5 22.5
s11.167 14.5 18.5 20.5s15.166 11 23.499 15s16.166 6 23.499 6c5.33301 0 10.833 -2 16.5 -6s10.667 -9 15 -15s8 -12.333 11 -19s4.5 -12.334 4.5 -17.001z" />
    <glyph glyph-name="slash" unicode="/" horiz-adv-x="369" 
d="M34 -44h-54l396 771h53z" />
    <glyph glyph-name="zero" unicode="0" horiz-adv-x="595" 
d="M50 214c0 29.333 3.49902 61.501 10.499 96.501s17.333 70 31 105s30.5 68.833 50.5 101.5s43 61.667 69 87s54.833 45.5 86.5 60.5s66.167 22.5 103.5 22.5c32 0 59.667 -5.66699 83 -17s42.5 -27 57.5 -47s26.167 -43.667 33.5 -71s11 -57 11 -89
c0 -30 -3.5 -62.667 -10.5 -98s-17.5 -70.333 -31.5 -105s-31.167 -68.167 -51.5 -100.5s-43.5 -60.833 -69.5 -85.5s-55.167 -44.334 -87.5 -59.001s-67.166 -22 -104.499 -22c-31.333 0 -58.5 5.5 -81.5 16.5s-41.833 26.333 -56.5 46s-25.5 43 -32.5 70
s-10.5 56.5 -10.5 88.5zM384.999 650.001c-26 0 -50.0068 -7.49805 -72.0068 -22.498s-41.667 -34.833 -59 -59.5s-32.666 -52.834 -45.999 -84.501s-24.333 -64 -33 -97s-15.167 -65.5 -19.5 -97.5s-6.5 -60.333 -6.5 -85c0 -23.333 1.83301 -45.333 5.5 -66
s9.83398 -38.667 18.501 -54s19.834 -27.333 33.501 -36s30.5 -13 50.5 -13c26.667 0 50.834 7.66699 72.501 23s41.167 35.666 58.5 60.999s32.333 54 45 86s23.334 64.833 32.001 98.5s15 66.667 19 99s6 61.166 6 86.499c0 22 -1.66699 42.833 -5 62.5
s-9.16602 36.834 -17.499 51.501s-19.166 26.167 -32.499 34.5s-30 12.5 -50 12.5z" />
    <glyph glyph-name="one" unicode="1" horiz-adv-x="376" 
d="M349 680l-135.999 -642c13.333 -2.66699 26.166 -5.5 38.499 -8.5s23.833 -6.83301 34.5 -11.5l-3 -18h-253l3 18c12.667 4.66699 26.5 8.66699 41.5 12s29.833 6 44.5 8l120 567l-121 -31l5 27l200 94z" />
    <glyph glyph-name="two" unicode="2" horiz-adv-x="481" 
d="M4 57c20.667 15.333 44.8311 34.3301 72.498 56.9971s55.834 48 84.501 76s57 57.667 85 89s53 63.333 75 96s39.667 65.5 53 98.5s20 65.167 20 96.5c0 22.667 -5.83301 41.834 -17.5 57.501s-33.834 23.5 -66.501 23.5c-24.667 0 -45.167 -6.33301 -61.5 -19
s-30 -26.5 -41 -41.5s-20.167 -28.833 -27.5 -41.5s-14.333 -19 -21 -19c-4.66699 0 -12.667 3.66699 -24 11l22 101c28.667 14 57.834 25 87.501 33s59.167 12 88.5 12c50 0 88.167 -9.5 114.5 -28.5s39.5 -48.5 39.5 -88.5c0 -28 -6 -57 -18 -87s-28 -59.833 -48 -89.5
s-43.167 -59 -69.5 -88s-53.666 -56.667 -81.999 -83s-57 -51.166 -86 -74.499s-55.833 -44 -80.5 -62h243c5.33301 20.667 14.833 41.334 28.5 62.001s26.167 36.667 37.5 48h16l-41 -196h-373l-10 57v0z" />
    <glyph glyph-name="three" unicode="3" horiz-adv-x="469" 
d="M196 364c22.667 8 45.3301 17.6621 67.9971 28.9951s43 25 61 41s32.667 34.667 44 56s17 46.333 17 75c0 24 -6.5 44.333 -19.5 61s-33.5 25 -61.5 25c-24.667 0 -45.167 -6.33301 -61.5 -19s-30 -26.5 -41 -41.5s-20.167 -28.833 -27.5 -41.5s-14.333 -19 -21 -19
c-4.66699 0 -12.667 3.66699 -24 11l22 101c28.667 14 57.834 25 87.501 33s59.167 12 88.5 12c25.333 0 47.166 -3.16699 65.499 -9.5s33.333 -14.666 45 -24.999s20.334 -22.5 26.001 -36.5s8.5 -29 8.5 -45c0 -22.667 -4.33301 -44.167 -13 -64.5
s-20.5 -39.333 -35.5 -57s-32.333 -33.167 -52 -46.5s-40.167 -24.333 -61.5 -33c46.667 -6 80.334 -21.333 101.001 -46s31 -53.667 31 -87c0 -32.667 -7.66699 -63.667 -23 -93s-35.666 -55.166 -60.999 -77.499s-54.166 -40.166 -86.499 -53.499s-65.5 -20 -99.5 -20
c-37.333 0 -70.166 6.83301 -98.499 20.5s-52.166 33.167 -71.499 58.5l47 43c13.333 -25.333 30.166 -43.666 50.499 -54.999s42.166 -17 65.499 -17c24 0 46.667 5.16699 68 15.5s40.166 24 56.499 41s29.333 36.833 39 59.5s14.5 46.334 14.5 71.001
c0 27.333 -7.66699 51.333 -23 72s-41.333 32.667 -78 36l-44 -13z" />
    <glyph glyph-name="four" unicode="4" horiz-adv-x="458" 
d="M442 695l26 -15l-84 -394h56l-18 -35l-46 -2l-52 -249h-94l52 245l-239 -10l-3 51zM290 286l54 255l-249 -255h195z" />
    <glyph glyph-name="five" unicode="5" horiz-adv-x="496" 
d="M235 680l295.996 -0.00390625l-16 -77h-245l-92 -200c12 4 27.333 7.83301 46 11.5s34.667 5.5 48 5.5c34.667 0 64.334 -4.16699 89.001 -12.5s44.834 -19.666 60.501 -33.999s27.167 -31 34.5 -50s11 -39.167 11 -60.5c0 -34 -7.5 -67.167 -22.5 -99.5
s-35.167 -61.166 -60.5 -86.499s-54.666 -45.666 -87.999 -60.999s-68.333 -23 -105 -23c-37.333 0 -70.166 6.83301 -98.499 20.5s-52.166 33.167 -71.499 58.5l47 43c13.333 -25.333 30.166 -43.666 50.499 -54.999s42.166 -17 65.499 -17c26 0 50.167 5.5 72.5 16.5
s41.666 25.667 57.999 44s29.166 39.5 38.499 63.5s14 49 14 75c0 36.667 -10.667 67.5 -32 92.5s-53.666 37.5 -96.999 37.5c-19.333 0 -36.166 -1.66699 -50.499 -5s-28.166 -7 -41.499 -11l-11 23z" />
    <glyph glyph-name="six" unicode="6" horiz-adv-x="502" 
d="M473 644c-16 4.66699 -32 7.00195 -48 7.00195c-29.333 0 -57.333 -7.83301 -84 -23.5s-51.167 -36.334 -73.5 -62.001s-42.5 -55 -60.5 -88s-33.333 -67.333 -46 -103s-22.334 -71 -29.001 -106s-10 -67.167 -10 -96.5c0 -45.333 8.5 -79.166 25.5 -101.499
s37.833 -33.5 62.5 -33.5c28.667 0 53.334 7.5 74.001 22.5s37.667 33.833 51 56.5s23.333 47.667 30 75s10 53.666 10 78.999c0 33.333 -6.83301 59.166 -20.5 77.499s-34.5 27.5 -62.5 27.5c-28.667 0 -65.334 -12.667 -110.001 -38l14 43c25.333 14 49.333 24.333 72 31
s44 10 64 10c40.667 0 73.667 -11.5 99 -34.5s38 -57.833 38 -104.5c0 -35.333 -6.66699 -70.333 -20 -105s-32 -65.667 -56 -93s-52.833 -49.333 -86.5 -66s-70.5 -25 -110.5 -25c-28 0 -52.167 5.16699 -72.5 15.5s-37 24.333 -50 42s-22.5 38.667 -28.5 63
s-9 50.5 -9 78.5c0 31.333 4.16699 65.333 12.5 102s20.333 73.334 36 110.001s34.834 72 57.501 106s48.167 64.167 76.5 90.5s59.333 47.333 93 63s69.5 23.5 107.5 23.5c14 0 26.667 -0.833008 38 -2.5s23.333 -4.83398 36 -9.50098z" />
    <glyph glyph-name="seven" unicode="7" horiz-adv-x="434" 
d="M494 652l-382 -652h-90l393 594h-295l18 86h346z" />
    <glyph glyph-name="eight" unicode="8" horiz-adv-x="478" 
d="M200 310c-13.333 -9.33301 -26 -20.168 -38 -32.501s-22.833 -25.666 -32.5 -39.999s-17.334 -29.666 -23.001 -45.999s-8.5 -33.5 -8.5 -51.5c0 -17.333 3 -32.666 9 -45.999s14 -24.333 24 -33s21.5 -15.167 34.5 -19.5s26.5 -6.5 40.5 -6.5c18 0 35.333 3.66699 52 11
s31.334 17.166 44.001 29.499s22.834 27 30.501 44s11.5 35.167 11.5 54.5c0 18 -5.33301 34.333 -16 49s-26.667 30.667 -48 48l-91 73c-22.667 17.333 -39.5 36.833 -50.5 58.5s-16.5 44.167 -16.5 67.5c0 27.333 6 54 18 80s28 49 48 69s43.333 36.167 70 48.5
s54.667 18.5 84 18.5c20.667 0 39.334 -3.16699 56.001 -9.5s30.667 -15 42 -26s20 -23.833 26 -38.5s9 -30.334 9 -47.001c0 -22 -4.33301 -42.833 -13 -62.5s-20 -38.167 -34 -55.5s-30 -33.166 -48 -47.499s-36.333 -26.833 -55 -37.5l34 -27
c50.667 -42 76 -87.333 76 -136c0 -30.667 -7.16699 -58.667 -21.5 -84s-33 -47 -56 -65s-49.333 -32 -79 -42s-59.834 -15 -90.501 -15c-28.667 0 -53.5 3.5 -74.5 10.5s-38.333 16.333 -52 28s-23.834 25.5 -30.501 41.5s-10 33 -10 51c0 22.667 4.16699 44.167 12.5 64.5
s19.5 39.166 33.5 56.499s30.167 33.333 48.5 48s37.5 28 57.5 40zM331 650.998c-18.667 0 -35.833 -4.50195 -51.5 -13.502s-29.167 -20.667 -40.5 -35s-20.166 -30.666 -26.499 -48.999s-9.5 -36.5 -9.5 -54.5c0 -10 1.16699 -19.167 3.5 -27.5
s6.16602 -14.833 11.499 -19.5l85 -72c14 10 27.5 21.5 40.5 34.5s24.667 27.333 35 43s18.5 32.334 24.5 50.001s9 36.167 9 55.5c0 30 -8 52.167 -24 66.5s-35 21.5 -57 21.5z" />
    <glyph glyph-name="nine" unicode="9" horiz-adv-x="486" 
d="M59 36c16 -4.66699 32.333 -6.99902 49 -6.99902c29.333 0 57.333 7.83301 84 23.5s51.167 36.334 73.5 62.001s42.5 55 60.5 88s33.333 67.167 46 102.5s22.334 70.5 29.001 105.5s10 67.167 10 96.5c0 46 -8.66699 80.167 -26 102.5s-38.333 33.5 -63 33.5
c-28.667 0 -53.334 -7.5 -74.001 -22.5s-37.667 -34 -51 -57s-23.166 -48.333 -29.499 -76s-9.5 -53.834 -9.5 -78.501c0 -32.667 6.66699 -58.167 20 -76.5s34 -27.5 62 -27.5c29.333 0 66 12.667 110 38l-14 -43c-48.667 -27.333 -93.667 -41 -135 -41
c-40.667 0 -73.834 11.667 -99.501 35s-38.5 58.666 -38.5 105.999c0 35.333 6.83301 70.166 20.5 104.499s32.667 65 57 92s53.166 48.833 86.499 65.5s70 25 110 25c28 0 52 -5 72 -15s36.5 -24 49.5 -42s22.5 -39 28.5 -63s9 -50 9 -78
c0 -31.333 -4.16699 -65.333 -12.5 -102s-20.333 -73.334 -36 -110.001s-34.667 -72.167 -57 -106.5s-47.666 -64.666 -75.999 -90.999s-59.333 -47.333 -93 -63s-69.5 -23.5 -107.5 -23.5c-14 0 -26.667 0.833008 -38 2.5s-23.333 4.83398 -36 9.50098z" />
    <glyph glyph-name="colon" unicode=":" horiz-adv-x="222" 
d="M150 56c-0.666992 -5.33301 -3.83008 -11.665 -9.49707 -18.998s-12.334 -14.333 -20.001 -21s-15.5 -12.167 -23.5 -16.5s-14.667 -6.5 -20 -6.5s-10.833 2 -16.5 6s-10.667 8.83301 -15 14.5s-8 11.667 -11 18s-4.5 12.166 -4.5 17.499c0 7.33301 2.5 14.833 7.5 22.5
s11.167 14.5 18.5 20.5s15.166 11 23.499 15s16.166 6 23.499 6c5.33301 0 10.833 -2 16.5 -6s10.667 -9 15 -15s8 -12.333 11 -19s4.5 -12.334 4.5 -17.001zM232.004 443.001c-0.666992 -5.33301 -3.83008 -11.665 -9.49707 -18.998s-12.334 -14.333 -20.001 -21
s-15.5 -12.167 -23.5 -16.5s-14.667 -6.5 -20 -6.5s-10.833 2 -16.5 6s-10.667 8.83301 -15 14.5s-8 11.667 -11 18s-4.5 12.166 -4.5 17.499c0 7.33301 2.5 14.833 7.5 22.5s11.167 14.5 18.5 20.5s15.166 11 23.499 15s16.166 6 23.499 6c5.33301 0 10.833 -2 16.5 -6
s10.667 -9 15 -15s8 -12.333 11 -19s4.5 -12.334 4.5 -17.001z" />
    <glyph glyph-name="semicolon" unicode=";" horiz-adv-x="240" 
d="M229 443c-0.666992 -5.33301 -3.83008 -11.665 -9.49707 -18.998s-12.334 -14.333 -20.001 -21s-15.5 -12.167 -23.5 -16.5s-14.667 -6.5 -20 -6.5s-10.833 2 -16.5 6s-10.667 8.83301 -15 14.5s-8 11.667 -11 18s-4.5 12.166 -4.5 17.499c0 7.33301 2.5 14.833 7.5 22.5
s11.167 14.5 18.5 20.5s15.166 11 23.499 15s16.166 6 23.499 6c5.33301 0 10.833 -2 16.5 -6s10.667 -9 15 -15s8 -12.333 11 -19s4.5 -12.334 4.5 -17.001zM147.004 58.001c-5.33301 -26 -14.168 -48.8301 -26.501 -68.4971s-25 -36.334 -38 -50.001
s-25.167 -24.334 -36.5 -32.001s-18.666 -12.5 -21.999 -14.5l-9 15c10.667 8.66699 22.667 20.167 36 34.5s23.333 31.166 30 50.499c-6 0 -12.167 1.83301 -18.5 5.5s-12.166 8.33398 -17.499 14.001s-9.66602 11.834 -12.999 18.501s-5 13 -5 19
c0 6.66699 2.5 13.667 7.5 21s11.333 14.166 19 20.499s15.667 11.5 24 15.5s15.833 6 22.5 6c5.33301 0 10.666 -2 15.999 -6s10.166 -8.66699 14.499 -14s8 -11.333 11 -18s4.83301 -12.334 5.5 -17.001z" />
    <glyph glyph-name="less" unicode="&#x3c;" horiz-adv-x="590" 
d="M60 293l506 214l14 -55l-432 -182l354 -182l-36 -54l-416 213z" />
    <glyph glyph-name="equal" unicode="=" horiz-adv-x="575" 
d="M553 397l-13 -60h-460l13 60h460zM528 280l-13 -60h-460l13 60h460z" />
    <glyph glyph-name="greater" unicode="&#x3e;" horiz-adv-x="597" 
d="M560 247l-506 -213l-14 54l432 182l-354 182l36 55l416 -214z" />
    <glyph glyph-name="question" unicode="?" horiz-adv-x="363" 
d="M105 218c-9.33301 10 -13.998 23.001 -13.998 39.001c0 12 5.16699 26.833 15.5 44.5s23.333 37.167 39 58.5s33 43.666 52 66.999s37 46.5 54 69.5s31.833 45.333 44.5 67s21 41.167 25 58.5c0 17.333 -12.333 26 -37 26c-10.667 0 -22.667 -1.5 -36 -4.5
s-27 -7 -41 -12s-28.333 -10.667 -43 -17s-28.334 -12.833 -41.001 -19.5l-5 66c19.333 7.33301 41.166 13.666 65.499 18.999s49.166 8 74.499 8c16.667 0 33.5 -1.5 50.5 -4.5s32.167 -7.83301 45.5 -14.5s24.333 -15.5 33 -26.5s13 -24.833 13 -41.5
c0 -21.333 -5.33301 -41.166 -16 -59.499s-24.167 -36.166 -40.5 -53.499s-34.666 -34.333 -54.999 -51l-59.5 -50c-19.333 -16.667 -37 -33.834 -53 -51.501s-28.333 -36.167 -37 -55.5l25 -42zM160.002 56.001c-0.666992 -5.33301 -3.83008 -11.665 -9.49707 -18.998
s-12.334 -14.333 -20.001 -21s-15.5 -12.167 -23.5 -16.5s-14.667 -6.5 -20 -6.5s-10.833 2 -16.5 6s-10.667 8.83301 -15 14.5s-8 11.667 -11 18s-4.5 12.166 -4.5 17.499c0 7.33301 2.5 14.833 7.5 22.5s11.167 14.5 18.5 20.5s15.166 11 23.499 15s16.166 6 23.499 6
c5.33301 0 10.833 -2 16.5 -6s10.667 -9 15 -15s8 -12.333 11 -19s4.5 -12.334 4.5 -17.001z" />
    <glyph glyph-name="at" unicode="@" horiz-adv-x="784" 
d="M649 -18c-50 -36.667 -103.004 -64.6699 -159.004 -84.0029s-110.667 -29 -164 -29c-40.667 0 -76.667 5.33301 -108 16s-58.666 25.667 -81.999 45c-33.333 27.333 -57.666 60.333 -72.999 99s-23 79.667 -23 123c0 30 3.66699 60.333 11 91s18 60.5 32 89.5
s31 56.5 51 82.5s42.333 49.333 67 70c44 37.333 93.167 65.666 147.5 84.999s107.833 29 160.5 29c44 0 85.167 -8 123.5 -24s69.5 -39.667 93.5 -71c15.333 -19.333 27.166 -41.333 35.499 -66s12.5 -52 12.5 -82c0 -46 -9.33301 -91 -28 -135s-47 -82 -85 -114
c-24.667 -21.333 -52 -38 -82 -50s-61 -18 -93 -18c-8.66699 0 -17.334 1.16699 -26.001 3.5s-16.5 5.83301 -23.5 10.5s-12.833 10.667 -17.5 18s-7 16.333 -7 27c0 3.33301 0.666992 8.33301 2 15c-13.333 -11.333 -27.5 -21.666 -42.5 -30.999
s-29.667 -17.166 -44 -23.499s-27.833 -11.166 -40.5 -14.499s-24 -5 -34 -5c-18 0 -30.5 7.83301 -37.5 23.5s-10.5 33.5 -10.5 53.5c0 22.667 3.83301 47.167 11.5 73.5s18.334 52.5 32.001 78.5s29.834 51 48.501 75s39.334 45.167 62.001 63.5s46.667 33 72 44
s51.333 16.5 78 16.5c28 0 56 -7 84 -21l-103 -321c-1.33301 -3.33301 -2.33301 -6.5 -3 -9.5s-1 -7.16699 -1 -12.5c0 -15.333 10.667 -23 32 -23c24 0 46.5 6.5 67.5 19.5s40.167 30.167 57.5 51.5c21.333 28 37.666 59.5 48.999 94.5s17 71.5 17 109.5
c0 47.333 -10.667 88 -32 122c-17.333 27.333 -41.166 49 -71.499 65s-66.5 24 -108.5 24c-44.667 0 -90.5 -9.66699 -137.5 -29s-89.5 -47.333 -127.5 -84c-35.333 -34 -63.333 -75.167 -84 -123.5s-31 -99.833 -31 -154.5c0 -41.333 7.33301 -80.166 22 -116.499
s38.334 -66.833 71.001 -91.5c39.333 -30 91 -45 155 -45c43.333 0 88.333 6.83301 135 20.5s92 33.167 136 58.5zM512.996 427.997c-4.66699 2.66699 -10.002 4.50195 -16.002 5.50195s-11.667 1.5 -17 1.5c-18.667 0 -36.334 -5.33301 -53.001 -16
s-32.167 -24.834 -46.5 -42.501s-27.166 -37.5 -38.499 -59.5s-21.166 -44.5 -29.499 -67.5s-14.666 -45.333 -18.999 -67s-6.5 -40.834 -6.5 -57.501c0 -8.66699 1.16699 -15.667 3.5 -21s6.16602 -8 11.499 -8c20 0 41.333 5 64 15s41.334 22.333 56.001 37z" />
    <glyph glyph-name="A" unicode="A" horiz-adv-x="595" 
d="M586 0l-218.001 0.00195312l4 21c8.66699 3.33301 17.834 6.16602 27.501 8.49902s19.5 4.5 29.5 6.5l-26 184h-206l-99 -182c18.667 -4 36.667 -9.66699 54 -17l-4 -21h-198l4 21c13.333 5.33301 26.833 9.66602 40.5 12.999s27.167 6 40.5 8l366 638h35l94 -642
c10.667 -2 21.167 -4.5 31.5 -7.5s19.833 -6.16699 28.5 -9.5zM218.999 261.002h178l-32 267z" />
    <glyph glyph-name="B" unicode="B" horiz-adv-x="576" 
d="M10 0l4.00098 21c20.667 7.33301 42.667 13 66 17l128 604c-10.667 2 -21 4.33301 -31 7s-19 6 -27 10l4 21h245c57.333 0 101.166 -10.5 131.499 -31.5s45.5 -51.167 45.5 -90.5c0 -45.333 -13 -82.833 -39 -112.5s-63.333 -54.167 -112 -73.5
c44 -8.66699 78 -24 102 -46s36 -51.667 36 -89c0 -34.667 -8 -66.5 -24 -95.5s-37.667 -54 -65 -75s-59.333 -37.333 -96 -49s-76 -17.5 -118 -17.5h-250zM175.001 44l36.9971 0.00195312c38 0 72.833 3.5 104.5 10.5s58.834 18 81.501 33s40.334 34.5 53.001 58.5
s19 53 19 87c0 22 -4.33301 40.167 -13 54.5s-20.167 25.666 -34.5 33.999s-30.666 14.166 -48.999 17.499s-37.5 5 -57.5 5h-77zM300.998 639.002l-53.999 -257.002h37c40 0 73 5 99 15s46.667 23 62 39s26.166 33.833 32.499 53.5s9.5 39.5 9.5 59.5
c0 18 -4 32.833 -12 44.5s-18.5 20.834 -31.5 27.501s-27.833 11.334 -44.5 14.001s-33.667 4 -51 4h-47z" />
    <glyph glyph-name="C" unicode="C" horiz-adv-x="540" 
d="M583 528c-6.66699 -3.33301 -13.1689 -5.66992 -19.502 -7.00293s-11.166 -2 -14.499 -2c-6 0 -10.667 2 -14 6s-5.83301 9.33301 -7.5 16s-3.33398 14.334 -5.00098 23.001s-3.83398 17.334 -6.50098 26.001c-2.66699 6.66699 -5.66699 13.5 -9 20.5
s-8.16602 13 -14.499 18s-14.333 9.16699 -24 12.5s-21.834 5 -36.501 5c-40.667 0 -78.5 -10.833 -113.5 -32.5s-65.5 -50.5 -91.5 -86.5s-46.5 -77 -61.5 -123s-22.5 -93.333 -22.5 -142c0 -29.333 3.33301 -56.5 10 -81.5s16.834 -46.667 30.501 -65
s30.667 -32.666 51 -42.999s44.5 -15.5 72.5 -15.5c25.333 0 53.833 4.83301 85.5 14.5s66.5 25.167 104.5 46.5l5 -24c-38 -35.333 -77.167 -61 -117.5 -77s-78.833 -24 -115.5 -24c-38.667 0 -72 6.5 -100 19.5s-51.167 30.5 -69.5 52.5s-32 47.667 -41 77
s-13.5 60.666 -13.5 93.999c0 36.667 4.33301 73.334 13 110.001s21.334 71.667 38.001 105s37 64.333 61 93s51.167 53.667 81.5 75s63.5 38 99.5 50s74.333 18 115 18c20.667 0 39.834 -2.5 57.501 -7.5s36.167 -11.167 55.5 -18.5l47 10l-30 -143v0z" />
    <glyph glyph-name="D" unicode="D" horiz-adv-x="633" 
d="M10 0l4 20.999c20.667 7.33301 42.667 13 66 17l128 604c-10.667 2 -21 4.33301 -31 7s-19 6 -27 10l4 21h235c48 0 89.333 -6.5 124 -19.5s63.167 -30.667 85.5 -53s38.833 -48.333 49.5 -78s16 -61.167 16 -94.5c0 -59.333 -11.333 -115.333 -34 -168
s-53.834 -98.667 -93.501 -138s-86.167 -70.666 -139.5 -93.999s-110.666 -35 -171.999 -35h-215zM301 637.999l-126.001 -593.998h44c47.333 0 92.333 9.5 135 28.5s80.167 45.333 112.5 79s58 73.667 77 120s28.5 97.166 28.5 152.499c0 29.333 -4.5 57 -13.5 83
s-23.167 48.667 -42.5 68s-44.166 34.666 -74.499 45.999s-66.833 17 -109.5 17h-31z" />
    <glyph glyph-name="E" unicode="E" 
d="M537 513l-30.999 0.00292969c-4.66699 7.33301 -8.83398 18.5 -12.501 33.5s-5.5 33.167 -5.5 54.5v18.5c0 6.33301 0.666992 12.833 2 19.5h-189l-60 -282h161c4.66699 13.333 10.667 27.333 18 42s15 29 23 43h33l-42 -198h-33c-2 9.33301 -3.33301 18.666 -4 27.999
s-1 19 -1 29v17h-163l-58 -274h214c9.33301 29.333 20.333 54.166 33 74.499s23.667 35.166 33 44.499h31l-34 -163h-442l4 21c20.667 7.33301 42.667 13 66 17l128 604c-10.667 2 -21 4.33301 -31 7s-19 6 -27 10l4 21h418z" />
    <glyph glyph-name="F" unicode="F" 
d="M208 642c-10.667 2 -20.999 4.33398 -30.999 7.00098s-19 6 -27 10l4 21h418l-35 -167h-31c-4.66699 7.33301 -8.83398 18.5 -12.501 33.5s-5.5 33.167 -5.5 54.5v18.5c0 6.33301 0.666992 12.833 2 19.5h-189l-60 -282h161c4.66699 13.333 10.667 27.333 18 42
s15 29 23 43h33l-42 -198h-33c-2 9.33301 -3.33301 18.666 -4 27.999s-1 19 -1 29v17h-163l-59 -279c13.333 -2 27 -4.5 41 -7.5s25.667 -6.5 35 -10.5l-4 -21h-236l4 21c9.33301 3.33301 19.833 6.5 31.5 9.5s23.167 5.5 34.5 7.5z" />
    <glyph glyph-name="G" unicode="G" horiz-adv-x="563" 
d="M519 94c-19.333 -16.667 -39.668 -31.3359 -61.001 -44.0029s-43 -23.167 -65 -31.5s-43.667 -14.666 -65 -18.999s-41 -6.5 -59 -6.5c-38.667 0 -72 6.5 -100 19.5s-51.167 30.5 -69.5 52.5s-32 47.667 -41 77s-13.5 60.666 -13.5 93.999
c0 36.667 4.33301 73.334 13 110.001s21.334 71.667 38.001 105s37 64.333 61 93s51.167 53.667 81.5 75s63.5 38 99.5 50s74.333 18 115 18c20.667 0 39.834 -2.5 57.501 -7.5s36.167 -11.167 55.5 -18.5l47 10l-30 -143
c-6.66699 -3.33301 -13.167 -5.66602 -19.5 -6.99902s-11.166 -2 -14.499 -2c-6 0 -10.667 2 -14 6s-5.83301 9.33301 -7.5 16s-3.33398 14.334 -5.00098 23.001s-3.83398 17.334 -6.50098 26.001c-2.66699 6.66699 -5.66699 13.5 -9 20.5s-8.16602 13 -14.499 18
s-14.333 9.16699 -24 12.5s-21.834 5 -36.501 5c-41.333 0 -79.5 -11 -114.5 -33s-65.5 -51 -91.5 -87s-46.333 -77.167 -61 -123.5s-22 -93.833 -22 -142.5c0 -27.333 3 -53.333 9 -78s15.833 -46.334 29.5 -65.001s31.5 -33.5 53.5 -44.5s49 -16.5 81 -16.5
c14 0 30.333 1.83301 49 5.5s38.667 9.16699 60 16.5l36 172c-12.667 2 -25.5 4.5 -38.5 7.5s-24.833 7.16699 -35.5 12.5l4 21h170z" />
    <glyph glyph-name="H" unicode="H" horiz-adv-x="692" 
d="M228 0h-218.002l4 21c20.667 7.33301 42.667 13 66 17l128 604c-10.667 2 -21 4.33301 -31 7s-19 6 -27 10l4 21h218l-4 -21c-10 -4 -20.667 -7.33301 -32 -10s-22.666 -5 -33.999 -7l-59 -274h286l59 274c-10.667 2 -21 4.33301 -31 7s-19 6 -27 10l4 21h218l-4 -21
c-10 -4 -20.667 -7.33301 -32 -10s-22.666 -5 -33.999 -7l-128 -604c10 -2 20.167 -4.5 30.5 -7.5s19.5 -6.16699 27.5 -9.5l-4 -21h-218l4 21c20.667 7.33301 42.667 13 66 17l61 289h-286l-61 -289c10 -2 20.167 -4.5 30.5 -7.5s19.5 -6.16699 27.5 -9.5z" />
    <glyph glyph-name="I" unicode="I" horiz-adv-x="312" 
d="M228 0h-218.001l4 21c20.667 7.33301 42.667 13 66 17l128 604c-10.667 2 -21 4.33301 -31 7s-19 6 -27 10l4 21h218l-4 -21c-10 -4 -20.667 -7.33301 -32 -10s-22.666 -5 -33.999 -7l-128 -604c10 -2 20.167 -4.5 30.5 -7.5s19.5 -6.16699 27.5 -9.5z" />
    <glyph glyph-name="J" unicode="J" horiz-adv-x="318" 
d="M374 659c-10 -4 -20.665 -7.33301 -31.998 -10s-22.666 -5 -33.999 -7l-133 -625c-7.33301 -36 -21.333 -68.333 -42 -97s-43.834 -53.834 -69.501 -75.501s-51.834 -40 -78.501 -55s-49.334 -26.833 -68.001 -35.5l-8 39l89 75c16.667 15.333 32 31.333 46 48
s23.667 37.334 29 62.001l141 664c-10.667 2 -21 4.33301 -31 7s-19 6 -27 10l4 21h218z" />
    <glyph glyph-name="K" unicode="K" horiz-adv-x="602" 
d="M676 659c-10.667 -4 -21.5 -7.5 -32.5 -10.5s-21.833 -5.5 -32.5 -7.5l-280 -286c4.66699 -2 13.167 -7.16699 25.5 -15.5s23.166 -20.5 32.499 -36.5l147 -266c10 -2 19.833 -4.33301 29.5 -7s18.5 -5.66699 26.5 -9l-4 -21h-149l-168 315h-39l-58 -277
c10 -2 20.167 -4.5 30.5 -7.5s19.5 -6.16699 27.5 -9.5l-4 -21h-218l4 21c20.667 7.33301 42.667 13 66 17l128 604c-10.667 2 -21 4.33301 -31 7s-19 6 -27 10l4 21h218l-4 -21c-10 -4 -20.667 -7.5 -32 -10.5s-22.666 -5.5 -33.999 -7.5l-62 -289l38 6l259 282
c-10 2 -20 4.5 -30 7.5s-19.667 6.83301 -29 11.5l4 21h198z" />
    <glyph glyph-name="L" unicode="L" horiz-adv-x="526" 
d="M14 21c20.667 7.33301 42.667 13 66 17l128 604c-10.667 2 -21 4.33301 -31 7s-19 6 -27 10l4 21h236l-4 -21c-11.333 -4 -24.5 -7.66699 -39.5 -11s-30.167 -6 -45.5 -8l-126 -596h214c9.33301 29.333 20.333 54.333 33 75s23.667 35.667 33 45h31l-34 -164h-442z" />
    <glyph glyph-name="M" unicode="M" horiz-adv-x="826" 
d="M188 0h-198.001l4 21c24.667 9.33301 49.334 16 74.001 20l190 601c-20.667 4 -38.667 9.66699 -54 17l4 21h151l67 -486l282 486h153l-4 -21c-9.33301 -3.33301 -19.5 -6.5 -30.5 -9.5s-21.833 -5.5 -32.5 -7.5l-80 -604c20 -4 39.667 -9.66699 59 -17l-4 -21h-218l4 21
c9.33301 3.33301 19.333 6.33301 30 9s21 5 31 7l73 511l-305 -535h-38l-71 525l-151 -497c24 -4 46.667 -10.667 68 -20z" />
    <glyph glyph-name="N" unicode="N" horiz-adv-x="657" 
d="M723 659c-13.333 -5.33301 -26.332 -9.49902 -38.999 -12.499s-25.334 -5.5 -38.001 -7.5l-131 -620l-57 -26l-221 552l-2 -1l-13 -88l-88 -415c24 -4 46.667 -10.667 68 -20l-4 -21h-198l4 21c26 9.33301 51.333 16 76 20l127 597c-11.333 2 -23 4.66699 -35 8
s-23 7.66602 -33 12.999l4 21h156l199 -502l3 1l17 109l74 351c-11.333 2 -22.833 4.5 -34.5 7.5s-22.5 7.16699 -32.5 12.5l4 21h198z" />
    <glyph glyph-name="O" unicode="O" horiz-adv-x="642" 
d="M45 231c0 32.667 4.33105 66.498 12.998 101.498s21 69.5 37 103.5s35.5 66.167 58.5 96.5s48.833 57 77.5 80s60 41.167 94 54.5s70.333 20 109 20c36 0 67.833 -5.83301 95.5 -17.5s51 -28.167 70 -49.5s33.333 -46.666 43 -75.999s14.5 -62 14.5 -98
c0 -33.333 -4.33301 -67.5 -13 -102.5s-21.167 -69.333 -37.5 -103s-36 -65.5 -59 -95.5s-49.167 -56.167 -78.5 -78.5s-61.166 -40.166 -95.499 -53.499s-70.833 -20 -109.5 -20c-35.333 0 -66.666 5.83301 -93.999 17.5s-50.333 28 -69 49s-32.667 46 -42 75
s-14 61.167 -14 96.5zM416.998 645.998c-29.333 0 -56.5029 -6.66895 -81.5029 -20.002s-47.333 -31.166 -67 -53.499s-37 -47.833 -52 -76.5s-27.667 -58.5 -38 -89.5s-18 -61.667 -23 -92s-7.5 -58.166 -7.5 -83.499c0 -27.333 2.66699 -52.833 8 -76.5
s13.833 -44.167 25.5 -61.5s26.334 -31 44.001 -41s39.167 -15 64.5 -15c30 0 57.5 6.83301 82.5 20.5s47.333 31.667 67 54s36.667 48 51 77s26.333 59 36 90s16.834 61.833 21.501 92.5s7 59 7 85s-2.5 50.667 -7.5 74s-13 43.5 -24 60.5s-25.167 30.5 -42.5 40.5
s-38.666 15 -63.999 15z" />
    <glyph glyph-name="P" unicode="P" horiz-adv-x="551" 
d="M174 39c13.333 -2 27.002 -4.49902 41.002 -7.49902s25.667 -6.5 35 -10.5l-4 -21h-236l4 21c9.33301 3.33301 19.833 6.5 31.5 9.5s23.167 5.5 34.5 7.5l128 604c-10.667 2 -21 4.33301 -31 7s-19 6 -27 10l4 21h230c66.667 0 119.167 -13.167 157.5 -39.5
s57.5 -63.5 57.5 -111.5c0 -32 -8 -63.333 -24 -94s-37.833 -57.834 -65.5 -81.501s-59.834 -42.667 -96.501 -57s-75.334 -21.5 -116.001 -21.5h-28l7 34h6c28 0 55.5 4.83301 82.5 14.5s51 23.667 72 42s38 41 51 68s19.5 57.833 19.5 92.5s-14 62.167 -42 82.5
s-74 30.5 -138 30.5h-26z" />
    <glyph glyph-name="Q" unicode="Q" horiz-adv-x="642" 
d="M430 16c14.667 -17.333 29.833 -34.1699 45.5 -50.5029s31.167 -30.833 46.5 -43.5s30.5 -22.667 45.5 -30s29.5 -11 43.5 -11l-2 -25c-30.667 -7.33301 -58.667 -11 -84 -11c-19.333 0 -38.333 3 -57 9s-34.667 17.667 -48 35l-46 60.5l-40 51.5
c-11.333 -2.66699 -22.833 -4.66699 -34.5 -6s-23.5 -2 -35.5 -2c-35.333 0 -66.666 5.83301 -93.999 17.5s-50.333 28 -69 49s-32.667 46 -42 75s-14 61.167 -14 96.5c0 32.667 4.33301 66.5 13 101.5s21 69.5 37 103.5s35.5 66.167 58.5 96.5s48.833 57 77.5 80
s60 41.167 94 54.5s70.333 20 109 20c36 0 67.833 -5.83301 95.5 -17.5s51 -28.167 70 -49.5s33.333 -46.666 43 -75.999s14.5 -62 14.5 -98c0 -38 -5.66699 -77.167 -17 -117.5s-27.5 -79.166 -48.5 -116.499s-46.333 -71.666 -76 -102.999s-62.834 -57 -99.501 -77z
M416.999 645.996c-29.333 0 -56.5 -6.66992 -81.5 -20.0029s-47.333 -31.166 -67 -53.499s-37 -47.833 -52 -76.5s-27.667 -58.5 -38 -89.5s-18 -61.667 -23 -92s-7.5 -58.166 -7.5 -83.499c0 -10 0.333008 -19.833 1 -29.5s1.66699 -19.167 3 -28.5c8.66699 2 20 3 34 3
c33.333 0 66.666 -10 99.999 -30s66.333 -47 99 -81c28.667 18 53.667 42.667 75 74s39 65.333 53 102s24.5 73.834 31.5 111.501s10.5 72.167 10.5 103.5c0 26 -2.5 50.667 -7.5 74s-13 43.5 -24 60.5s-25.167 30.5 -42.5 40.5s-38.666 15 -63.999 15zM303.999 36.9932
c-29.333 35.333 -54.667 61.333 -76 78s-42 25 -62 25h-6c9.33301 -31.333 24.5 -56.333 45.5 -75s49.167 -28 84.5 -28h14z" />
    <glyph glyph-name="R" unicode="R" horiz-adv-x="602" 
d="M228 0l-217.999 -0.00195312l4 21c9.33301 3.33301 19.833 6.5 31.5 9.5s23.167 5.5 34.5 7.5l128 604c-10.667 2 -21 4.33301 -31 7s-19 6 -27 10l4 21h229c66.667 0 119.667 -12 159 -36s59 -59.667 59 -107c0 -25.333 -4.66699 -49.5 -14 -72.5
s-22.166 -44.167 -38.499 -63.5s-35.833 -36.666 -58.5 -51.999s-47 -27.666 -73 -36.999c5.33301 -4.66699 10.666 -10.167 15.999 -16.5s10 -14.166 14 -23.499l101 -235c10 -2 19.5 -4.33301 28.5 -7s17.5 -5.66699 25.5 -9l-4 -21h-148l-124 294h-98l-54 -256
c21.333 -4.66699 40.666 -10.334 57.999 -17.001zM235.001 327.998h45.002c28 0 55.833 4 83.5 12s52.167 20.5 73.5 37.5s38.666 38.5 51.999 64.5s20 57 20 93c0 34 -14.333 59.833 -43 77.5s-75.334 26.5 -140.001 26.5h-25z" />
    <glyph glyph-name="S" unicode="S" horiz-adv-x="493" 
d="M124 90c8.66699 -18 23.6689 -31.1738 45.002 -39.5068s44.333 -12.5 69 -12.5c36.667 0 66.834 9 90.501 27s35.5 41.667 35.5 71c0 13.333 -3.5 27.833 -10.5 43.5s-18.167 31.834 -33.5 48.501l-134 153c-17.333 19.333 -32.5 39.333 -45.5 60s-19.5 42.667 -19.5 66
c0 30.667 6 57.167 18 79.5s27.667 41 47 56s41.666 26.167 66.999 33.5s51.666 11 78.999 11c42.667 0 83.334 -8.66699 122.001 -26l47 10l-30 -143c-13.333 -6 -22.666 -9 -27.999 -9c-6 0 -10.667 2 -14 6s-5.83301 9.33301 -7.5 16s-3.33398 14.334 -5.00098 23.001
s-3.83398 17.334 -6.50098 26.001c-7.33301 20 -19.666 34.667 -36.999 44s-35.666 14 -54.999 14c-13.333 0 -26.333 -2 -39 -6s-23.834 -10 -33.501 -18s-17.334 -18 -23.001 -30s-8.5 -26 -8.5 -42c0 -11.333 3.33301 -23.166 10 -35.499s15.667 -24.833 27 -37.5
l144 -160c17.333 -19.333 33 -40.666 47 -63.999s21 -49 21 -77c0 -30 -7.5 -56.5 -22.5 -79.5s-34.167 -42.333 -57.5 -58s-49.333 -27.5 -78 -35.5s-56.667 -12 -84 -12c-24 0 -48 2.5 -72 7.5s-46.667 12.833 -68 23.5l-51 -15l33 153c12 6 21.333 9 28 9
s11.5 -2.66699 14.5 -8s5.16699 -12.166 6.5 -20.499s2.66602 -17.166 3.99902 -26.499s4 -18 8 -26z" />
    <glyph glyph-name="T" unicode="T" horiz-adv-x="559" 
d="M608 513l-20.999 0.000976562c-4.66699 7.33301 -8.83398 18.5 -12.501 33.5s-5.5 33.167 -5.5 54.5v18c0 6 0.666992 12.333 2 19h-144l-127 -600c10 -2 20.167 -4.5 30.5 -7.5s19.5 -6.16699 27.5 -9.5l-4 -21h-218l4 21c20.667 7.33301 42.667 13 66 17l127 600h-144
c-10 -30.667 -21.5 -56.834 -34.5 -78.501s-24.167 -37.167 -33.5 -46.5h-21l35 167h508z" />
    <glyph glyph-name="U" unicode="U" horiz-adv-x="594" 
d="M697 659c-13.333 -5.33301 -26.3311 -9.50098 -38.998 -12.501s-25.334 -5.5 -38.001 -7.5l-84 -398c-10.667 -49.333 -24.834 -90 -42.501 -122s-38.5 -57.333 -62.5 -76s-51 -31.667 -81 -39s-62.333 -11 -97 -11c-24.667 0 -48.334 3.5 -71.001 10.5
s-42.667 17.333 -60 31s-31.166 30.667 -41.499 51s-15.5 43.833 -15.5 70.5c0 2 0.166992 4.83301 0.5 8.5s1.5 10.834 3.5 21.501l9 46l17 83l28 132.5l41 194.5c-10.667 2 -21 4.33301 -31 7s-19 6 -27 10l4 21h218l-4 -21c-10 -4 -20.667 -7.33301 -32 -10
s-22.666 -5 -33.999 -7l-38.5 -180.5l-26 -123.5c-7 -32.667 -12.333 -58.334 -16 -77.001s-6.33398 -33 -8.00098 -43s-2.66699 -16.667 -3 -20s-0.5 -6 -0.5 -8c0 -22 3.83301 -41.667 11.5 -59s17.667 -32 30 -44s26.833 -21.167 43.5 -27.5s34 -9.5 52 -9.5
s36.167 3.16699 54.5 9.5s35.166 16 50.499 29s29 29.833 41 50.5s21 45.334 27 74.001l90 426c-11.333 2 -22.666 4.5 -33.999 7.5s-22.333 7.16699 -33 12.5l4 21h198z" />
    <glyph glyph-name="V" unicode="V" horiz-adv-x="613" 
d="M729 659c-13.333 -5.33301 -26.334 -9.5 -39.001 -12.5s-25.334 -5.5 -38.001 -7.5l-355 -639h-33l-110 641c-12 2 -23.667 4.5 -35 7.5s-21 6.5 -29 10.5l4 21h238l-4 -21c-9.33301 -3.33301 -19.666 -6.33301 -30.999 -9s-22.666 -5 -33.999 -7l71 -475l256 472
c-10 2 -20 4.5 -30 7.5s-19.667 6.83301 -29 11.5l4 21h198z" />
    <glyph glyph-name="W" unicode="W" horiz-adv-x="919" 
d="M1035 659c-25.333 -9.33301 -50.6729 -16 -76.0059 -20l-335 -639h-33l-74 472l-247 -472h-33l-95 642c-11.333 2 -22.666 4.5 -33.999 7.5s-20.666 6.16699 -27.999 9.5l4 21h238l-4 -21c-19.333 -7.33301 -41.666 -13 -66.999 -17l57 -472l197 386l-13 86
c-11.333 2 -22.666 4.5 -33.999 7.5s-20.666 6.16699 -27.999 9.5l4 21h238l-4 -21c-19.333 -7.33301 -41.666 -13 -66.999 -17l61 -472l239 469c-22 4 -43.333 10.667 -64 20l4 21h198z" />
    <glyph glyph-name="X" unicode="X" horiz-adv-x="579" 
d="M577 0l-228 -0.000976562l4 21c16 6.66699 33.333 11.334 52 14.001l-95 246l-189 -244c17.333 -4 34.333 -9.33301 51 -16l-4 -21h-198l4 21c24.667 9.33301 49.334 16 74.001 20l242 294l-110 306c-12 2 -23.833 4.5 -35.5 7.5s-21.5 6.5 -29.5 10.5l4 21h238l-4 -21
c-9.33301 -3.33301 -19 -6.33301 -29 -9s-20.667 -5 -32 -7l75 -228l169 225c-10.667 2 -20.667 4.66699 -30 8s-18.666 7 -27.999 11l4 21h198l-4 -21c-24.667 -9.33301 -49.334 -16 -74.001 -20l-216 -273l129 -328c12 -2 23.667 -4.5 35 -7.5
s21.666 -6.16699 30.999 -9.5z" />
    <glyph glyph-name="Y" unicode="Y" horiz-adv-x="594" 
d="M383 0h-218.001l4 21c9.33301 3.33301 19.833 6.5 31.5 9.5s23.167 5.5 34.5 7.5l44 207l-119 396c-12.667 2 -25.167 4.5 -37.5 7.5s-22.833 6.5 -31.5 10.5l4 21h238l-4 -21c-8.66699 -3.33301 -18.167 -6.16602 -28.5 -8.49902s-21.166 -4.5 -32.499 -6.5l93 -328
l209 324c-10.667 2 -20.667 4.66699 -30 8s-18.666 7 -27.999 11l4 21h198l-4 -21c-14 -5.33301 -28 -9.83301 -42 -13.5s-27.667 -6.16699 -41 -7.5l-251 -377l-47 -223c21.333 -4.66699 40.666 -10.334 57.999 -17.001z" />
    <glyph glyph-name="Z" unicode="Z" horiz-adv-x="520" 
d="M574 645l-456.003 -593.001h262c2.66699 10 6.66699 21.167 12 33.5s11.333 24.333 18 36s13.334 22.5 20.001 32.5s13 17.667 19 23h29l-37 -177h-433l7 66l441 570h-231c-3.33301 -10 -7.66602 -21.167 -12.999 -33.5s-11.166 -24.166 -17.499 -35.499
s-12.833 -21.833 -19.5 -31.5s-12.667 -17.167 -18 -22.5h-29l35 167h409z" />
    <glyph glyph-name="bracketleft" unicode="[" horiz-adv-x="289" 
d="M168 -228h-162l201 947h162l-6 -28h-93l-189 -891h93z" />
    <glyph glyph-name="backslash" unicode="\" horiz-adv-x="281" 
d="M90 727h53l68 -771h-54z" />
    <glyph glyph-name="bracketright" unicode="]" horiz-adv-x="288" 
d="M-24 -200h92l189 891h-93l6 28h162l-201 -947h-161z" />
    <glyph glyph-name="asciicircum" unicode="^" horiz-adv-x="384" 
d="M309 712l75 -301h-55l-55 247l-159 -247h-55l203 301h46z" />
    <glyph glyph-name="underscore" unicode="_" horiz-adv-x="397" 
d="M10 -60h354l-10 -47h-354z" />
    <glyph glyph-name="grave" unicode="`" horiz-adv-x="201" 
d="M196 547c-22.667 21.333 -43.499 45.333 -62.499 72s-36.833 54 -53.5 82c8.66699 13.333 18.5 23.833 29.5 31.5s24.167 13.5 39.5 17.5c2.66699 -19.333 10.667 -45.333 24 -78s33.666 -66 60.999 -100z" />
    <glyph glyph-name="a" unicode="a" horiz-adv-x="485" 
d="M289 85c-12 -11.333 -26.6689 -22.502 -44.002 -33.502s-35.166 -20.833 -53.499 -29.5s-36 -15.667 -53 -21s-31.5 -8 -43.5 -8c-12.667 0 -23.167 4 -31.5 12s-15 18.333 -20 31s-8.5 26.667 -10.5 42s-3 30.666 -3 45.999c0 42 6.5 85.5 19.5 130.5s32 86.333 57 124
s56 68.5 93 92.5s79.167 36 126.5 36c24 0 48 -2.16699 72 -6.5s46.333 -10.166 67 -17.499l-90 -425h70l4 -19l-105 -46c-13.333 0 -26.166 6.33301 -38.499 19s-18.5 29.667 -18.5 51c0 2.66699 0.166992 6.33398 0.5 11.001s0.833008 8.33398 1.5 11.001z
M368.998 457.998l-39.499 9.00098c-11.667 2.66699 -22.5 4 -32.5 4c-22.667 0 -42.667 -6 -60 -18s-32.5 -27.833 -45.5 -47.5s-23.833 -42 -32.5 -67s-15.834 -50.5 -21.501 -76.5s-9.66699 -51.167 -12 -75.5s-3.5 -45.5 -3.5 -63.5c0 -16 1.5 -30.167 4.5 -42.5
s9.16699 -18.5 18.5 -18.5c11.333 0 24.166 2 38.499 6s28.833 9.16699 43.5 15.5s28.334 13.666 41.001 21.999s23 16.5 31 24.5z" />
    <glyph glyph-name="b" unicode="b" horiz-adv-x="488" 
d="M170 691l-48 0.000976562l-5 26l158 33l-66 -306c24 19.333 50 34.666 78 45.999s54.667 17 80 17c30.667 0 56.334 -10.167 77.001 -30.5s31 -53.833 31 -100.5c0 -43.333 -6.33301 -87.5 -19 -132.5s-31.834 -86.167 -57.501 -123.5s-57.667 -67.833 -96 -91.5
s-82.833 -35.5 -133.5 -35.5c-24.667 0 -48.667 4.66699 -72 14s-44.333 23.333 -63 42zM128 58.001c4.66699 -3.33301 10.333 -6.66992 17 -10.0029s13.667 -6.16602 21 -8.49902s14.333 -4.33301 21 -6s12.667 -2.5 18 -2.5c22.667 0 42.667 6 60 18
s32.666 27.833 45.999 47.5s24.5 41.834 33.5 66.501s16.333 49.834 22 75.501s9.83398 50.5 12.501 74.5s4 45.333 4 64c0 20 -3.16699 37.833 -9.5 53.5s-13.833 23.5 -22.5 23.5c-11.333 0 -23.833 -1.5 -37.5 -4.5s-27.5 -6.83301 -41.5 -11.5s-27.167 -10 -39.5 -16
s-22.833 -12.333 -31.5 -19z" />
    <glyph glyph-name="c" unicode="c" horiz-adv-x="398" 
d="M30 124c0 42.667 5.67188 86.6719 17.0049 132.005s28.5 86.5 51.5 123.5s52.167 67.5 87.5 91.5s77.666 36 126.999 36c16.667 0 35 -1.5 55 -4.5s40 -7.83301 60 -14.5l-16 -78c-4 -4 -9.33301 -7.5 -16 -10.5s-12 -4.5 -16 -4.5c-8.66699 0 -14.667 3.66699 -18 11
s-7.33301 15.5 -12 24.5s-11.834 17.167 -21.501 24.5s-24.834 11 -45.501 11c-16 0 -31.167 -6.16699 -45.5 -18.5s-27.333 -28.333 -39 -48s-22.334 -42 -32.001 -67s-17.667 -50.167 -24 -75.5s-11.333 -49.833 -15 -73.5s-5.5 -43.834 -5.5 -60.501
c0 -6 0.166992 -12.167 0.5 -18.5s0.833008 -12.333 1.5 -18s1.33398 -10.334 2.00098 -14.001s1.66699 -5.83398 3 -6.50098c6 -2 13 -3 21 -3c14 0 30 3 48 9s36 13 54 21s34.833 16.167 50.5 24.5l37.5 20.5l9 -32l-40 -27.5c-18 -12.333 -37.833 -24.833 -59.5 -37.5
s-44 -23.834 -67 -33.501s-43.833 -14.5 -62.5 -14.5s-33.834 4 -45.501 12s-20.834 18.333 -27.501 31s-11.167 26.667 -13.5 42s-3.5 30.666 -3.5 45.999z" />
    <glyph glyph-name="d" unicode="d" horiz-adv-x="490" 
d="M375 58l69.9971 0.000976562l4 -19l-105 -46c-13.333 0 -26.166 6.33301 -38.499 19s-18.5 29.667 -18.5 51c0 2.66699 0.166992 6.5 0.5 11.5s0.833008 8.5 1.5 10.5c-12 -10.667 -25 -21.334 -39 -32.001s-28.5 -20.5 -43.5 -29.5s-30 -16.333 -45 -22
s-29.167 -8.5 -42.5 -8.5c-25.333 0 -46.5 9.83301 -63.5 29.5s-25.5 53.5 -25.5 101.5c0 42 6.5 85.5 19.5 130.5s32 86.333 57 124s56 68.5 93 92.5s79.167 36 126.5 36c8.66699 0 17.334 -0.333008 26.001 -1s17.334 -1.66699 26.001 -3l40 188h-48l-5 26l157 33z
M367.997 458.001l-39 9c-11.333 2.66699 -22 4 -32 4c-22.667 0 -42.667 -6 -60 -18s-32.5 -27.833 -45.5 -47.5s-24 -42 -33 -67s-16.333 -50.5 -22 -76.5s-9.66699 -51.167 -12 -75.5s-3.5 -45.5 -3.5 -63.5c0 -4.66699 0.166992 -10 0.5 -16s1 -11.833 2 -17.5
s2 -10.667 3 -15s2.16699 -7.16602 3.5 -8.49902c6 -3.33301 14.333 -5 25 -5c12 0 25 2.66699 39 8s27.5 11.666 40.5 18.999s25.167 14.833 36.5 22.5l28 19.5z" />
    <glyph glyph-name="e" unicode="e" horiz-adv-x="410" 
d="M30 124c0 38.667 5.50098 80.3359 16.501 125.003s27.667 86.167 50 124.5s51 70.166 86 95.499s76.5 38 124.5 38c15.333 0 30.333 -2.33301 45 -7s27.834 -12 39.501 -22s21 -22.667 28 -38s10.5 -33.666 10.5 -54.999c0 -8.66699 -6.16699 -19 -18.5 -31
s-30.833 -24.167 -55.5 -36.5s-55 -24.166 -91 -35.499s-77.667 -20.333 -125 -27c-6.66699 -26.667 -11.334 -51.834 -14.001 -75.501s-4 -42.5 -4 -56.5c0 -15.333 0.833008 -28.5 2.5 -39.5s3.16699 -16.833 4.5 -17.5c6 -2 12.667 -3 20 -3c14 0 30.333 3 49 9
s37 13 55 21s34.833 16.167 50.5 24.5s27.834 15.166 36.501 20.499l9 -32l-40 -27.5c-18 -12.333 -37.833 -24.833 -59.5 -37.5s-44 -23.834 -67 -33.501s-43.833 -14.5 -62.5 -14.5s-33.834 4 -45.501 12s-20.834 18.333 -27.501 31s-11.167 26.667 -13.5 42
s-3.5 30.666 -3.5 45.999zM303.001 466.002c-19.333 0 -36.999 -5.00098 -52.999 -15.001s-30.167 -23.167 -42.5 -39.5s-23.333 -35 -33 -56s-17.834 -42.5 -24.501 -64.5c18 2.66699 39.167 7 63.5 13s47.333 13.667 69 23s40.167 21 55.5 35s23 30.667 23 50
c0 14.667 -5.5 27.334 -16.5 38.001s-24.833 16 -41.5 16z" />
    <glyph glyph-name="f" unicode="f" horiz-adv-x="329" 
d="M9 -151l9.49707 36.498c3.66699 14.333 7.33398 30 11.001 47l11.5 53.5l12 56l90 422h-51l-2 23l60 11l8 37c6.66699 32.667 17.5 62.334 32.5 89.001s32.5 49.334 52.5 68.001s41.833 33 65.5 43s48.167 15 73.5 15c13.333 0 29.833 -1.5 49.5 -4.5
s37.167 -7.83301 52.5 -14.5l-14 -64c-3.33301 -4 -7.66602 -7.5 -12.999 -10.5s-10 -4.5 -14 -4.5c-9.33301 0 -16.166 3.16699 -20.499 9.5l-14 21c-5 7.66699 -11.667 14.667 -20 21s-20.833 9.5 -37.5 9.5s-32.5 -4.83301 -47.5 -14.5s-24.167 -22.834 -27.5 -39.501
l-33 -159h129l-8 -36h-129l-90 -422c-3.33301 -15.333 -6.5 -31.666 -9.5 -48.999l-8.5 -51c-2.66699 -16.667 -4.66699 -32 -6 -46s-2 -25.333 -2 -34c0 -6.66699 0.333008 -11 1 -13h-111z" />
    <glyph glyph-name="g" unicode="g" horiz-adv-x="487" 
d="M292 86c-12 -11.333 -26.834 -22.502 -44.501 -33.502s-35.667 -21 -54 -30s-36 -16.167 -53 -21.5s-31.5 -8 -43.5 -8c-12.667 0 -23.167 4 -31.5 12s-15 18.333 -20 31s-8.5 26.667 -10.5 42s-3 30.666 -3 45.999c0 42 6.5 85.5 19.5 130.5s32 86.333 57 124
s56 68.5 93 92.5s79.167 36 126.5 36c24 0 48 -2.16699 72 -6.5s46.333 -10.166 67 -17.499l-122 -571c-6 -26.667 -17.333 -51.667 -34 -75s-36.5 -43.666 -59.5 -60.999s-48.167 -31 -75.5 -41s-54 -15 -80 -15c-23.333 0 -43.5 1.5 -60.5 4.5s-31.167 6.5 -42.5 10.5
c-13.333 4 -24.666 9 -33.999 15l20 73c8 -3.33301 17.5 -7.66602 28.5 -12.999s23 -10.333 36 -15s26.667 -8.66699 41 -12s28.833 -5 43.5 -5c13.333 0 26.5 2.16699 39.5 6.5s25 11.5 36 21.5s21 23.667 30 41s16.167 39 21.5 65zM369.999 457.998l-38.999 9.00098
c-11.333 2.66699 -22 4 -32 4c-22.667 0 -42.667 -6 -60 -18s-32.5 -27.833 -45.5 -47.5s-23.833 -42 -32.5 -67s-15.834 -50.5 -21.501 -76.5s-9.66699 -51.167 -12 -75.5s-3.5 -45.5 -3.5 -63.5c0 -16 1.5 -30.167 4.5 -42.5s9.16699 -18.5 18.5 -18.5c11.333 0 24 2 38 6
s28 9.16699 42 15.5s27.333 13.666 40 21.999s23 16.5 31 24.5z" />
    <glyph glyph-name="h" unicode="h" horiz-adv-x="522" 
d="M335 78l38.999 182.501l21 101c4.66699 23 7.5 38.167 8.5 45.5s1.5 13 1.5 17c0 20 -7 30 -21 30c-8 0 -20.333 -3.33301 -37 -10s-34.167 -14.834 -52.5 -24.501s-35.5 -20 -51.5 -31s-27.333 -20.833 -34 -29.5l-35 -166c-3.33301 -15.333 -6.5 -31.666 -9.5 -48.999
s-5.66699 -34.333 -8 -51s-4.33301 -32 -6 -46s-2.5 -25.333 -2.5 -34c0 -6.66699 1 -11 3 -13h-111c2.66699 10 5.5 22 8.5 36l9.5 45.5l11 52l12 55.5l106 502h-48l-5 26l158 33l-74 -347c10 12.667 22 25.167 36 37.5s29.333 23.5 46 33.5s34.667 18 54 24
s39.666 9 60.999 9c24.667 0 44.5 -5.5 59.5 -16.5s22.5 -30.833 22.5 -59.5l-0.5 -4c-0.333008 -2.66699 -1.16602 -8.16699 -2.49902 -16.5s-3.66602 -20.5 -6.99902 -36.5l-13 -65.5c-5.33301 -27.667 -12.333 -62 -21 -103l-31 -147.5h70l4 -19l-105 -46
c-17.333 1.33301 -31.333 9.16602 -42 23.499s-16 29.833 -16 46.5c0 3.33301 0.666992 8.33301 2 15z" />
    <glyph glyph-name="i" unicode="i" horiz-adv-x="256" 
d="M284 631c-1.33301 -5.33301 -5.16504 -11.668 -11.498 -19.001s-13.5 -14.333 -21.5 -21s-16.333 -12.334 -25 -17.001s-15.667 -7 -21 -7s-10.833 2 -16.5 6s-11 9 -16 15s-9.16699 12.5 -12.5 19.5s-5 13.167 -5 18.5v5c0.666992 5.33301 4.16699 11.833 10.5 19.5
s13.5 14.834 21.5 21.501s16.167 12.334 24.5 17.001s15.166 7 20.499 7s11 -2.16699 17 -6.5s11.667 -9.5 17 -15.5s9.66602 -12.5 12.999 -19.5s5 -13.5 5 -19.5v-4zM233.001 474.998c0 -1.33301 -1.33203 -8.16699 -3.99902 -20.5l-10 -48l-14 -66.5l-16 -76l-44 -206h72
l4 -19l-105 -46c-4.66699 0 -10.334 1.33301 -17.001 4s-13.167 6.83398 -19.5 12.501s-11.666 13 -15.999 22s-6.5 19.5 -6.5 31.5c0 3.33301 0.166992 6 0.5 8s0.833008 4.33301 1.5 7l78 370h-48l-6 26c23.333 9.33301 44.833 17.166 64.5 23.499s36.167 9.5 49.5 9.5
c11.333 0 20.166 -2.5 26.499 -7.5s9.5 -13.167 9.5 -24.5z" />
    <glyph glyph-name="j" unicode="j" horiz-adv-x="271" 
d="M248 475c0 -3.33301 -1.49512 -12.8311 -4.49512 -28.498s-7 -35.167 -12 -58.5l-16.5 -79l-18 -89l-51 -237c-7.33301 -33.333 -19.333 -63.833 -36 -91.5s-35.834 -52.5 -57.501 -74.5s-44.5 -41.167 -68.5 -57.5s-46.333 -29.5 -67 -39.5l-7 28l85 86
c8 8 14.5 15.5 19.5 22.5s9.16699 14.167 12.5 21.5s6.16602 15.166 8.49902 23.499s4.5 17.5 6.5 27.5l110 519h-47l-6 26c23.333 9.33301 44.666 17.166 63.999 23.499s35.666 9.5 48.999 9.5c11.333 0 20.166 -2.5 26.499 -7.5s9.5 -13.167 9.5 -24.5zM301.005 631.002
c-1.33301 -5.33301 -5.16504 -11.668 -11.498 -19.001s-13.5 -14.333 -21.5 -21s-16.333 -12.334 -25 -17.001s-15.667 -7 -21 -7s-10.833 2 -16.5 6s-11 9 -16 15s-9.16699 12.5 -12.5 19.5s-5 13.167 -5 18.5v5c0.666992 5.33301 4.16699 11.833 10.5 19.5
s13.5 14.834 21.5 21.501s16.167 12.334 24.5 17.001s15.166 7 20.499 7s11 -2.16699 17 -6.5s11.667 -9.5 17 -15.5s9.66602 -12.5 12.999 -19.5s5 -13.5 5 -19.5v-4z" />
    <glyph glyph-name="k" unicode="k" horiz-adv-x="481" 
d="M190 269l38.002 2.00098c11.333 8.66699 24.333 23.167 39 43.5l46 65l47 65c15.333 20.333 29.666 34.833 42.999 43.5c8.66699 5.33301 18.667 9.66602 30 12.999s25.666 5.33301 42.999 6l-24 -83l-81 -38l-93 -117c6 -5.33301 12.167 -11.333 18.5 -18
s11.833 -14 16.5 -22l98 -183h51l6 -26c-10.667 -6.66699 -22 -12.834 -34 -18.501s-26.333 -8.5 -43 -8.5c-14 0 -27.667 3.16699 -41 9.5s-25.333 19.833 -36 40.5l-102 198h-28l-10 -48c-3.33301 -15.333 -6.5 -31.666 -9.5 -48.999s-5.66699 -34.333 -8 -51
s-4.33301 -32 -6 -46s-2.5 -25.333 -2.5 -34c0 -6.66699 1 -11 3 -13h-111c2.66699 10 5.5 22 8.5 36l9.5 45.5l11 52l12 55.5l106 502h-48l-5 26l158 33z" />
    <glyph glyph-name="l" unicode="l" horiz-adv-x="277" 
d="M186 193c-3.33301 -15.333 -6.5 -31.667 -9.5 -49l-8.5 -51c-2.66699 -16.667 -4.66699 -32 -6 -46s-2 -25.333 -2 -34c0 -6.66699 1 -11 3 -13h-113c2.66699 10 5.5 22 8.5 36l9.5 45.5l11 52l12 55.5l106 502h-48l-5 26l160 33z" />
    <glyph glyph-name="m" unicode="m" horiz-adv-x="787" 
d="M220 408c10.667 12 22.667 23.834 36 35.501s28 22.167 44 31.5s33 17 51 23s37 9 57 9c24.667 0 44.5 -5.5 59.5 -16.5s22.5 -30.5 22.5 -58.5c0 -0.666992 -0.333008 -3.83398 -1 -9.50098s-1.33398 -10.5 -2.00098 -14.5c10 12 21.833 23.833 35.5 35.5
s28.834 22.334 45.501 32.001s34.334 17.334 53.001 23.001s38.334 8.5 59.001 8.5c24.667 0 44.5 -5.5 59.5 -16.5s22.5 -30.833 22.5 -59.5l-0.5 -4c-0.333008 -2.66699 -1.16602 -8.16699 -2.49902 -16.5s-3.66602 -20.5 -6.99902 -36.5l-13 -65.5
c-5.33301 -27.667 -12.333 -62 -21 -103l-31 -147.5h70l4 -19l-105 -46c-17.333 1.33301 -31.333 9.16602 -42 23.499s-16 29.833 -16 46.5c0 3.33301 0.666992 8.33301 2 15l39 182.5l21 101c4.66699 23 7.5 38.167 8.5 45.5s1.5 13 1.5 17c0 20 -7 30 -21 30
c-7.33301 0 -18.5 -2.83301 -33.5 -8.5s-31 -12.834 -48 -21.501s-33.333 -18 -49 -28s-28.167 -19.333 -37.5 -28l-37 -175c-3.33301 -15.333 -6.5 -31.666 -9.5 -48.999s-5.66699 -34.333 -8 -51s-4.33301 -32 -6 -46s-2.5 -25.333 -2.5 -34
c0 -6.66699 0.666992 -11 2 -13h-111l42 187l26.5 119.5c6.33301 29.667 11 52.5 14 68.5s4.83301 27.167 5.5 33.5s1 11.5 1 15.5c0 20 -7 30 -21 30c-7.33301 0 -18.333 -2.83301 -33 -8.5s-30.167 -12.834 -46.5 -21.501s-32.333 -18 -48 -28s-28.167 -19.333 -37.5 -28
l-37 -175c-3.33301 -15.333 -6.5 -31.666 -9.5 -48.999s-5.66699 -34.333 -8 -51s-4.33301 -32 -6 -46s-2.5 -25.333 -2.5 -34c0 -6.66699 0.666992 -11 2 -13h-111c2.66699 10 5.66699 22 9 36s6.66602 29.167 9.99902 45.5l11 52l12 55.5l55 259h-48l-6 26
c23.333 9.33301 44.666 17.166 63.999 23.499s35.666 9.5 48.999 9.5c11.333 0 20.333 -2.5 27 -7.5s10 -13.167 10 -24.5c0 -1.33301 -0.166992 -3 -0.5 -5s-1 -5.33301 -2 -10l-4 -19c-1.66699 -8 -3.83398 -19 -6.50098 -33z" />
    <glyph glyph-name="n" unicode="n" horiz-adv-x="520" 
d="M333 78l39.002 182.502l21 101c4.66699 23 7.5 38.167 8.5 45.5s1.5 13 1.5 17c0 20 -7 30 -21 30c-8 0 -20.167 -3.33301 -36.5 -10s-33.5 -14.834 -51.5 -24.501s-35 -20 -51 -31s-27.333 -20.833 -34 -29.5l-35 -166c-3.33301 -15.333 -6.5 -31.666 -9.5 -48.999
s-5.66699 -34.333 -8 -51s-4.33301 -32 -6 -46s-2.5 -25.333 -2.5 -34c0 -6.66699 1 -11 3 -13h-111c2.66699 10 5.5 22 8.5 36l9.5 45.5l11 52l12 55.5l55 259h-48l-6 26c23.333 9.33301 44.666 17.166 63.999 23.499s35.666 9.5 48.999 9.5c11.333 0 20.333 -2.5 27 -7.5
s10 -13.167 10 -24.5c0 -1.33301 -0.166992 -3 -0.5 -5s-1 -5.5 -2 -10.5s-2.5 -12 -4.5 -21s-4.33301 -20.833 -7 -35.5c10 12.667 21.833 25.167 35.5 37.5s28.667 23.5 45 33.5s34.166 18 53.499 24s39.666 9 60.999 9c24.667 0 44.5 -5.5 59.5 -16.5
s22.5 -30.833 22.5 -59.5l-0.5 -4c-0.333008 -2.66699 -1.16602 -8.16699 -2.49902 -16.5s-3.66602 -20.5 -6.99902 -36.5l-13 -65.5c-5.33301 -27.667 -12.333 -62 -21 -103l-31 -147.5h70l4 -19l-105 -46c-17.333 1.33301 -31.333 9.16602 -42 23.499s-16 29.833 -16 46.5
c0 3.33301 0.666992 8.33301 2 15z" />
    <glyph glyph-name="o" unicode="o" horiz-adv-x="461" 
d="M30 149c1.33301 42.667 7.50195 85.3311 18.502 127.998s27.5 81 49.5 115s49.5 61.667 82.5 83s72.5 32 118.5 32c28 0 51.667 -3.83301 71 -11.5s34.666 -18.667 45.999 -33s19.5 -31.833 24.5 -52.5s7.5 -44 7.5 -70c0 -39.333 -5.5 -79.666 -16.5 -120.999
s-27.833 -78.666 -50.5 -111.999s-50.834 -60.666 -84.501 -81.999s-73.5 -32 -119.5 -32c-52 0 -89.5 14.167 -112.5 42.5s-34.5 66.166 -34.5 113.499zM275.002 471.997c-22 0 -41.165 -6.5 -57.498 -19.5s-30.333 -30 -42 -51s-21 -44.667 -28 -71
s-12.5 -53.166 -16.5 -80.499s-6.66699 -53.833 -8 -79.5s-2 -47.834 -2 -66.501c0 -8.66699 0.333008 -17.5 1 -26.5s2.33398 -15.167 5.00098 -18.5c4.66699 -5.33301 11.834 -11 21.501 -17s26.167 -9 49.5 -9s43.666 6.33301 60.999 19s32 29.167 44 49.5
s21.667 43.5 29 69.5s13.166 52.5 17.499 79.5s7.16602 53 8.49902 78s2 47.167 2 66.5c0 15.333 -0.5 26.833 -1.5 34.5s-2.83301 13.167 -5.5 16.5c-4 5.33301 -12.833 11 -26.5 17s-30.834 9 -51.501 9z" />
    <glyph glyph-name="p" unicode="p" horiz-adv-x="494" 
d="M81 474c23.333 9.33301 44.5 17.166 63.5 23.499s35.167 9.5 48.5 9.5c11.333 0 20.5 -2.5 27.5 -7.5s10.5 -13.5 10.5 -25.5c0 -2.66699 -0.166992 -5.5 -0.5 -8.5s-0.833008 -6.16699 -1.5 -9.5l-9 -43c12.667 12 27.334 23.5 44.001 34.5s33.5 21 50.5 30
s33.333 16.167 49 21.5s29.5 8 41.5 8c25.333 0 46.5 -9.83301 63.5 -29.5s25.5 -53.5 25.5 -101.5c0 -43.333 -6.33301 -87.5 -19 -132.5s-31.834 -86.167 -57.501 -123.5s-57.667 -67.833 -96 -91.5s-82.833 -35.5 -133.5 -35.5c-17.333 0 -35.666 2.66699 -54.999 8
l-18 -87c-3.33301 -15.333 -6.5 -31.666 -9.5 -48.999s-5.66699 -34.333 -8 -51s-4.33301 -32.167 -6 -46.5s-2.5 -25.833 -2.5 -34.5c0 -6.66699 0.333008 -11 1 -13h-110c2.66699 9.33301 5.66699 20.833 9 34.5s6.66602 28.5 9.99902 44.5l138 649h-50zM146 56
c4.66699 -3.33301 10.5029 -6.49902 17.5029 -9.49902s14.333 -5.83301 22 -8.5s15 -4.66699 22 -6s13.167 -2 18.5 -2c22.667 0 42.667 6 60 18s32.666 27.833 45.999 47.5s24.5 42 33.5 67s16.333 50.333 22 76s9.66699 50.5 12 74.5s3.5 45.333 3.5 64
c0 11.333 -0.833008 22.666 -2.5 33.999s-3.83398 19 -6.50098 23c-5.33301 3.33301 -13 5 -23 5c-13.333 0 -28.333 -2.83301 -45 -8.5s-32.834 -12.167 -48.501 -19.5s-29.5 -15 -41.5 -23s-20 -14 -24 -18z" />
    <glyph glyph-name="q" unicode="q" horiz-adv-x="480" 
d="M343 -88c-3.33301 -15.333 -6.49902 -31.6631 -9.49902 -48.9961l-8.5 -51c-2.66699 -16.667 -4.66699 -32 -6 -46s-2 -25.333 -2 -34c0 -6 0.333008 -10 1 -12h-109c6 20 12.833 47.5 20.5 82.5l23.5 109.5l37 173c-12 -11.333 -25.5 -22.5 -40.5 -33.5
s-30 -20.833 -45 -29.5s-30 -15.667 -45 -21s-28.5 -8 -40.5 -8c-25.333 0 -46.5 9.83301 -63.5 29.5s-25.5 53.5 -25.5 101.5c0 24.667 2.66699 51.167 8 79.5s13.166 56.666 23.499 84.999s23.333 55.666 39 81.999s33.667 49.666 54 69.999s43 36.5 68 48.5
s52.167 18 81.5 18c19.333 0 38 -3.33301 56 -10s34.667 -14.334 50 -23.001l40 33h20zM366.001 447.003c-9.33301 7.33301 -20.6641 13.167 -33.9971 17.5s-25 6.5 -35 6.5c-22.667 0 -42.667 -6 -60 -18s-32.5 -27.833 -45.5 -47.5s-24 -42 -33 -67
s-16.333 -50.5 -22 -76.5s-9.66699 -51.167 -12 -75.5s-3.5 -45.5 -3.5 -63.5c0 -14.667 1.16699 -27.5 3.5 -38.5s4.16602 -17.167 5.49902 -18.5c8 -3.33301 15.667 -5 23 -5c11.333 0 23.666 2.5 36.999 7.5s26.666 11 39.999 18s26 14.5 38 22.5l31 21z" />
    <glyph glyph-name="r" unicode="r" horiz-adv-x="399" 
d="M231 475c0 -2 -0.829102 -8.16797 -2.49609 -18.501s-4.16699 -23.166 -7.5 -38.499c23.333 30.667 45.666 53.167 66.999 67.5s44.666 21.5 69.999 21.5s47.333 -6.33301 66 -19l-16 -78c-4 -4 -9.33301 -7.5 -16 -10.5s-12 -4.5 -16 -4.5c-8 0 -13.5 2.83301 -16.5 8.5
s-5.83301 12 -8.5 19s-6.16699 13.333 -10.5 19s-11.5 8.5 -21.5 8.5c-18.667 0 -37.167 -8.83301 -55.5 -26.5s-36.166 -37.5 -53.499 -59.5l-12.5 -60l-11.5 -55l-12 -56c-3.33301 -15.333 -6.5 -31.666 -9.5 -48.999s-5.66699 -34.333 -8 -51s-4.33301 -32 -6 -46
s-2.5 -25.333 -2.5 -34c0 -6.66699 1 -11 3 -13h-111c2.66699 10 5.5 22 8.5 36l9.5 45.5l11 52l12 55.5l55 259h-48l-6 26c23.333 9.33301 44.666 17.166 63.999 23.499s35.666 9.5 48.999 9.5c11.333 0 20.166 -2.5 26.499 -7.5s9.5 -13.167 9.5 -24.5z" />
    <glyph glyph-name="s" unicode="s" horiz-adv-x="379" 
d="M296 249c33.333 -30 49.999 -62.334 49.999 -97.001c0 -27.333 -6.5 -51 -19.5 -71s-29.833 -36.5 -50.5 -49.5s-44 -22.667 -70 -29s-51.667 -9.5 -77 -9.5s-46.666 3.5 -63.999 10.5s-34.666 17.167 -51.999 30.5l14 69c10 8.66699 18.667 13 26 13
c8.66699 0 14.834 -4.5 18.501 -13.5s8 -18.667 13 -29s12.5 -20 22.5 -29s25.667 -13.5 47 -13.5c11.333 0 23.166 1.83301 35.499 5.5s23.666 8.83398 33.999 15.501s18.833 15 25.5 25s10 21.667 10 35s-3.33301 24.833 -10 34.5s-15.334 19.834 -26.001 30.501l-90 88
c-15.333 14.667 -27.166 28.667 -35.499 42s-12.5 28.333 -12.5 45c0 20 4.16699 39.333 12.5 58s20 35.167 35 49.5s32.833 25.833 53.5 34.5s43.667 13 69 13c18.667 0 36.167 -2.5 52.5 -7.5s35.166 -12.167 56.499 -21.5l-15 -69c-8.66699 -8.66699 -17 -13 -25 -13
c-7.33301 0 -13.5 3.83301 -18.5 11.5l-16 25.5c-5.66699 9.33301 -12.167 17.833 -19.5 25.5s-17 11.5 -29 11.5c-8.66699 0 -17.667 -1.83301 -27 -5.5s-18 -8.83398 -26 -15.501s-14.5 -14.667 -19.5 -24s-7.5 -19.333 -7.5 -30c0 -8.66699 2.33301 -16.667 7 -24
s11.334 -15 20.001 -23z" />
    <glyph glyph-name="t" unicode="t" horiz-adv-x="321" 
d="M101 464l-1 19.0039l54 15l96 107h19l-22 -105h114l-8 -36h-114l-35 -162l-23 -109.5l-14 -67.5c-3.33301 -16 -5.66602 -27.833 -6.99902 -35.5s-2.16602 -12.334 -2.49902 -14.001s-0.5 -2.83398 -0.5 -3.50098c0 -9.33301 2.66699 -15.666 8 -18.999s12.333 -5 21 -5
c4.66699 0 10.667 0.5 18 1.5s14.833 2.33301 22.5 4s15.167 3.5 22.5 5.5l19 5l5 -23c-13.333 -6.66699 -27.166 -12.834 -41.499 -18.501s-28.333 -10.667 -42 -15s-26.834 -7.83301 -39.501 -10.5s-23.334 -4 -32.001 -4c-12.667 0 -25.167 4.66699 -37.5 14
s-18.5 25.333 -18.5 48c0 1.33301 0.166992 3.16602 0.5 5.49902s1.33301 7.66602 3 15.999l7.5 38c3.33301 17 8.16602 40.333 14.499 70l24 112.5l35.5 167h-46z" />
    <glyph glyph-name="u" unicode="u" horiz-adv-x="522" 
d="M412 487l94.998 20.0039l-95 -449h70l4 -19l-105 -46c-15.333 0.666992 -28.833 7.66699 -40.5 21s-17.5 29.333 -17.5 48c0 7.33301 2 18.666 6 33.999c-10 -12.667 -22 -25.167 -36 -37.5s-29.333 -23.333 -46 -33s-34.667 -17.5 -54 -23.5s-39.666 -9 -60.999 -9
c-24.667 0 -44.5 5.5 -59.5 16.5s-22.5 30.833 -22.5 59.5l1.5 11c1 7.33301 4 23.833 9 49.5l23 113.5l43.5 205h-48l-7 26c23.333 9.33301 45 17.166 65 23.499s36.667 9.5 50 9.5c22.667 0 34 -10.667 34 -32v-6c0 -2 -0.5 -5.5 -1.5 -10.5l-4 -20.5
c-1.66699 -8.66699 -4.16699 -20.334 -7.5 -35.001c-15.333 -70 -27.166 -125.667 -35.499 -167l-19.5 -96c-4.66699 -22.667 -7.5 -38.334 -8.5 -47.001s-1.5 -15.667 -1.5 -21c0 -17.333 6.66699 -26 20 -26c8 0 20.333 3.33301 37 10s34 14.667 52 24s35 19.5 51 30.5
s27.667 20.833 35 29.5z" />
    <glyph glyph-name="v" unicode="v" horiz-adv-x="438" 
d="M232 107c14.667 19.333 28.668 40.5039 42.001 63.5039s25.666 46.167 36.999 69.5s21.333 46.333 30 69s15 43.667 19 63l-11 107l73 28c10.667 -13.333 16 -31 16 -53c0 -32.667 -7.83301 -69.334 -23.5 -110.001s-35.5 -81.834 -59.5 -123.501
s-50.5 -81.834 -79.5 -120.501s-56.833 -72 -83.5 -100h-36l-56 448h-49l-6 26c23.333 9.33301 44.333 17.166 63 23.499s34.667 9.5 48 9.5c11.333 0 19.5 -2.5 24.5 -7.5s8.16699 -13.167 9.5 -24.5z" />
    <glyph glyph-name="w" unicode="w" horiz-adv-x="631" 
d="M435 111c14.667 19.333 28.167 40.1699 40.5 62.5029s23.333 45 33 68s18.167 45.667 25.5 68s13 43.166 17 62.499l-11 107l73 28c10.667 -13.333 16 -31 16 -53c0 -32.667 -7.16699 -69.667 -21.5 -111s-32.833 -83 -55.5 -125s-48 -82.167 -76 -120.5
s-55.333 -70.833 -82 -97.5h-36l-25 242c-23.333 -46 -50 -90.5 -80 -133.5s-60 -79.167 -90 -108.5h-36l-46 448h-49l-6 26c23.333 9.33301 44.333 17.166 63 23.499s34.667 9.5 48 9.5c20.667 0 32 -10.667 34 -32l33 -364c14 19.333 27.167 40.333 39.5 63
s23.5 45.5 33.5 68.5s18.667 45.833 26 68.5s13 43.667 17 63l-8 74h-51l-6 26c23.333 9.33301 44.333 17.166 63 23.499s34.667 9.5 48 9.5c20.667 0 32 -10.667 34 -32z" />
    <glyph glyph-name="x" unicode="x" horiz-adv-x="445" 
d="M212 191l-73.002 -111.002l-32 -80h-77l-10 23l173 217l-78 208h-51l-6 26c23.333 9.33301 43.833 17.166 61.5 23.499s33.167 9.5 46.5 9.5c9.33301 0 16.166 -2 20.499 -6s8.16602 -10 11.499 -18l66 -176l81 93l-8 84l64 23c6 -5.33301 10.167 -11.166 12.5 -17.499
s3.5 -13.166 3.5 -20.499c0 -16 -5.16699 -33.167 -15.5 -51.5s-22.666 -36.833 -36.999 -55.5s-29.333 -36.5 -45 -53.5s-28.834 -32.167 -39.501 -45.5l80 -211h51l6 -26c-23.333 -9.33301 -43.666 -17.166 -60.999 -23.499s-32.666 -9.5 -45.999 -9.5
c-9.33301 0 -16.166 2 -20.499 6s-8.16602 10 -11.499 18z" />
    <glyph glyph-name="y" unicode="y" horiz-adv-x="430" 
d="M88 448l-49.9971 -0.00292969l-6 26c23.333 9.33301 44.166 17.166 62.499 23.499s34.166 9.5 47.499 9.5c20 0 31 -8 33 -24l48 -367l2 -42h2l5 18l114 281l-11 106l73 28c6 -7.33301 10.167 -15.5 12.5 -24.5s3.5 -18.167 3.5 -27.5
c0 -16.667 -2.33301 -33.167 -7 -49.5s-10.667 -32.166 -18 -47.499l-196 -445c-14 -31.333 -27.167 -58.166 -39.5 -80.499s-24 -41.166 -35 -56.499s-21 -27.5 -30 -36.5s-16.833 -15.5 -23.5 -19.5l-45 85c13.333 10 26 20.333 38 31l30.5 28.5
c10.333 9.66699 18.166 18.834 23.499 27.501l72 108h-41z" />
    <glyph glyph-name="z" unicode="z" horiz-adv-x="439" 
d="M92 401c0 15.333 1.50293 31.668 4.50293 49.001s8.16699 32.666 15.5 45.999c23.333 3.33301 47.166 6 71.499 8s49.166 3 74.499 3c27.333 0 55 -1.5 83 -4.5s56.333 -8.83301 85 -17.5l1 -26l-315 -380c17.333 -9.33301 34.166 -20.333 50.499 -33
s33 -24.834 50 -36.501s34.333 -21.667 52 -30s36.5 -12.5 56.5 -12.5c16.667 0 33.834 3 51.501 9s35.5 11.667 53.5 17l6 -23c-17.333 -10.667 -32.833 -19.667 -46.5 -27s-26.334 -13.166 -38.001 -17.499s-23 -7.5 -34 -9.5s-22.5 -3 -34.5 -3
c-16 0 -33.5 3.83301 -52.5 11.5s-39.167 16.5 -60.5 26.5s-44 19.5 -68 28.5s-49.333 15.167 -76 18.5l-4 -1l-14 45l328 386c-6.66699 0.666992 -13 1 -19 1h-18c-27.333 0 -51.833 -1.66699 -73.5 -5s-40.667 -7.33301 -57 -12s-30.5 -9.16699 -42.5 -13.5
s-22 -7.5 -30 -9.5v12z" />
    <glyph glyph-name="braceleft" unicode="{" horiz-adv-x="319" 
d="M192 -177c-15.333 0 -30.9971 1.99902 -46.9971 5.99902s-30.667 10.167 -44 18.5s-24.333 19.333 -33 33s-13 30.167 -13 49.5c0 8 1 17 3 27l34 126.5l18 68.5c4 15.333 6.33301 25.166 7 29.499s1 7.5 1 9.5c0 22.667 -6.16699 39.167 -18.5 49.5
s-25.5 17.166 -39.5 20.499l6 27c8.66699 2 18 5.16699 28 9.5s19.5 10.166 28.5 17.499s17 16.833 24 28.5s12.5 25.834 16.5 42.501l30 206c5.33301 24 15.166 44.5 29.499 61.5s30.666 30.833 48.999 41.5s37.5 18.5 57.5 23.5s38.333 7.5 55 7.5l-2 -18
c-12.667 -1.33301 -25.334 -4.83301 -38.001 -10.5s-24.167 -12 -34.5 -19s-19 -14.5 -26 -22.5s-11.167 -15 -12.5 -21l-30 -211c-5.33301 -25.333 -13.5 -46.666 -24.5 -63.999s-22.667 -31.666 -35 -42.999s-24.5 -20.166 -36.5 -26.499s-21.667 -10.833 -29 -13.5l-6 -4
l5 -1c5.33301 -2.66699 11.833 -6.33398 19.5 -11.001s15 -11.167 22 -19.5s13 -18.5 18 -30.5s7.5 -26.667 7.5 -44c0 -3.33301 -0.5 -7.66602 -1.5 -12.999s-3.5 -16.5 -7.5 -33.5s-10.333 -42 -19 -75l-36 -136.5c0 -6 2 -12.667 6 -20s9.5 -14.333 16.5 -21
s15.5 -12.5 25.5 -17.5s20.667 -8.16699 32 -9.5z" />
    <glyph glyph-name="bar" unicode="|" horiz-adv-x="236" 
d="M0 -265l210 988h61l-210 -988h-61z" />
    <glyph glyph-name="braceright" unicode="}" horiz-adv-x="282" 
d="M-48 -159c12.667 1.33301 25.168 4.83496 37.501 10.502s23.666 12 33.999 19s18.833 14.5 25.5 22.5s10.667 15 12 21l31 211c5.33301 25.333 13.5 46.666 24.5 63.999s22.667 31.666 35 42.999s24.333 20 36 26s21.167 10.667 28.5 14l7 1l-6 4
c-5.33301 2.66699 -11.666 6.33398 -18.999 11.001s-14.5 11.167 -21.5 19.5s-13 18.5 -18 30.5s-7.5 26.667 -7.5 44c0 11.333 1.66699 25.333 5 42l34 123.5l17.5 64c3.66699 13.667 5.83398 21.834 6.50098 24.501s1 4.33398 1 5.00098c0 6 -2 12.667 -6 20
s-9.66699 14.166 -17 20.499s-15.833 12 -25.5 17s-20.167 8.16699 -31.5 9.5l6 18c14.667 0 30.167 -2 46.5 -6s31 -10.167 44 -18.5s23.833 -19.333 32.5 -33s13 -29.834 13 -48.501c0 -3.33301 -0.333008 -7.33301 -1 -12s-2.83398 -14.5 -6.50098 -29.5
s-9.5 -37.333 -17.5 -67l-34 -125.5c-1.33301 -5.33301 -2.33301 -10.333 -3 -15s-1 -9.33398 -1 -14.001c0 -22.667 6.16699 -39 18.5 -49s25.833 -16.667 40.5 -20l-6 -27c-9.33301 -2 -19 -5.16699 -29 -9.5s-19.5 -10.166 -28.5 -17.499s-17 -16.833 -24 -28.5
s-12.167 -25.834 -15.5 -42.501l-31 -206c-5.33301 -24 -15 -44.5 -29 -61.5s-30.167 -30.833 -48.5 -41.5s-37.333 -18.5 -57 -23.5s-37.834 -7.5 -54.501 -7.5z" />
    <glyph glyph-name="asciitilde" unicode="~" horiz-adv-x="582" 
d="M209 338c20.667 0 39.8281 -3 57.4951 -9s34.834 -12.833 51.501 -20.5s33.5 -14.5 50.5 -20.5s35.833 -9 56.5 -9c8 0.666992 17.833 2.66699 29.5 6l35 10c11.667 3.33301 22.834 6.83301 33.501 10.5s19.334 6.5 26.001 8.5l11 -23
c-20.667 -18 -44.167 -35.167 -70.5 -51.5s-54.166 -24.5 -83.499 -24.5c-21.333 0 -40.833 3 -58.5 9s-34.667 12.5 -51 19.5s-33 13.5 -50 19.5s-35.833 9 -56.5 9c-8.66699 -2 -18.667 -4.5 -30 -7.5l-34.5 -9c-11.667 -3 -22.667 -6 -33 -9l-26.5 -7.5l-11 23l34 26.5
c12 9 24.5 17.167 37.5 24.5s26.333 13.333 40 18s27.834 7 42.501 7z" />
    <glyph glyph-name="uni00A0" unicode="&#xa0;" horiz-adv-x="0" 
 />
    <glyph glyph-name="sterling" unicode="&#xa3;" horiz-adv-x="512" 
d="M92 310l84.001 0.00195312c6.66699 17.333 13 35 19 53l19 56c20 48 49.5 84.167 88.5 108.5s81.5 36.5 127.5 36.5c37.333 0 73 -7.33301 107 -22l-37 -65c-19.333 15.333 -39.333 27.666 -60 36.999s-36.667 14 -48 14c-10.667 0 -20.5 -3.33301 -29.5 -10
s-17.167 -15 -24.5 -25s-14 -21.333 -20 -34s-11.333 -25 -16 -37l-41 -112h156l-7 -35h-162c-18 -48 -36 -93 -54 -135s-35.667 -77.333 -53 -106l148 12c24 2 45.167 6.5 63.5 13.5s34.166 14.833 47.499 23.5l5 -34l-20.5 -15.5c-7.66699 -5.66699 -17 -11 -28 -16
s-23.833 -9.16699 -38.5 -12.5s-31.667 -5 -51 -5h-292l2 11c26 10 52 17 78 21c15.333 27.333 32.333 61.166 51 101.499s38 87.5 58 141.5h-79z" />
    <glyph glyph-name="section" unicode="&#xa7;" horiz-adv-x="503" 
d="M376 487c-6 0 -12.668 -1.49805 -20.001 -4.49805s-14.166 -7.33301 -20.499 -13s-11.833 -12.667 -16.5 -21s-7.33398 -18.166 -8.00098 -29.499c0 -3.33301 1.33301 -13.333 4 -30l9.5 -60.5l12 -76.5l12.5 -77c4 -24 7.16699 -45 9.5 -63s3.5 -29.333 3.5 -34
c-6 -29.333 -17.167 -55.5 -33.5 -78.5s-35.5 -42.833 -57.5 -59.5s-46 -29.334 -72 -38.001s-52.333 -13 -79 -13c-21.333 0 -42 3 -62 9s-37.667 15.667 -53 29l20 66c3.33301 -4.66699 7.83301 -9.83398 13.5 -15.501s12.167 -11.167 19.5 -16.5
s15.666 -9.83301 24.999 -13.5s19.666 -5.5 30.999 -5.5c10.667 0 20.334 2.66699 29.001 8s16.334 12.166 23.001 20.499s11.834 18 15.501 29s5.5 22.167 5.5 33.5v8.5c0 2.33301 -0.333008 5.16602 -1 8.49902l-45 290c6.66699 30.667 18.5 57.334 35.5 80.001
s37.333 41.667 61 57s49.167 26.833 76.5 34.5s54.666 11.5 81.999 11.5c41.333 0 78.666 -8 111.999 -24l-37 -62c-13.333 15.333 -28.666 27.5 -45.999 36.5s-33.666 13.5 -48.999 13.5zM249.999 83.002c0.666992 -4 1.16699 -8.00098 1.5 -12.001s0.5 -8 0.5 -12
c0 -21.333 -4.83301 -40.666 -14.5 -57.999s-22.834 -34.666 -39.501 -51.999c30 6 54 20.333 72 43s27 49 27 79c0 3.33301 -0.166992 6.83301 -0.5 10.5s-0.833008 7.16699 -1.5 10.5l-41 254c-0.666992 4 -1.16699 8.66699 -1.5 14s-0.5 10.666 -0.5 15.999
c0 17.333 2.83301 34.333 8.5 51s15.834 31.667 30.501 45c-26 -9.33301 -46.5 -24.5 -61.5 -45.5s-22.5 -45.167 -22.5 -72.5c0 -4 0.166992 -8 0.5 -12s0.833008 -8 1.5 -12z" />
    <glyph glyph-name="copyright" unicode="&#xa9;" horiz-adv-x="617" 
d="M423 321c-3.33301 0 -5.83398 1.66895 -7.50098 5.00195s-3.16699 7.66602 -4.5 12.999s-3 11 -5 17s-4.66699 12 -8 18c-4 7.33301 -10 13.5 -18 18.5s-19.667 7.5 -35 7.5c-34 0 -61 -13.167 -81 -39.5s-30 -62.166 -30 -107.499c0 -20.667 2.33301 -40.334 7 -59.001
s11.834 -35 21.501 -49s21.334 -25.167 35.001 -33.5s29.5 -12.5 47.5 -12.5c13.333 0 27.666 2.5 42.999 7.5s31.666 13.167 48.999 24.5l6 -13c-16 -18 -33.5 -31.167 -52.5 -39.5s-38.167 -12.5 -57.5 -12.5c-24 0 -45.167 4.83301 -63.5 14.5s-33.666 22.5 -45.999 38.5
s-21.666 34.167 -27.999 54.5s-9.5 41.5 -9.5 63.5c0 24 3.33301 47.333 10 70s17 42.667 31 60s31.333 31.166 52 41.499s45 15.5 73 15.5c10.667 0 20.667 -1.33301 30 -4s19.666 -6 30.999 -10l23 6v-89c-6 -4 -10.333 -6 -13 -6zM69.999 250.002
c0 35.333 6.83301 68.5 20.5 99.5s32.167 58.167 55.5 81.5s50.5 41.833 81.5 55.5s64.167 20.5 99.5 20.5s68.5 -6.83301 99.5 -20.5s58.167 -32.167 81.5 -55.5s41.833 -50.5 55.5 -81.5s20.5 -64.167 20.5 -99.5s-6.83301 -68.5 -20.5 -99.5s-32.167 -58.167 -55.5 -81.5
s-50.5 -41.833 -81.5 -55.5s-64.167 -20.5 -99.5 -20.5s-68.5 6.83301 -99.5 20.5s-58.167 32.167 -81.5 55.5s-41.833 50.5 -55.5 81.5s-20.5 64.167 -20.5 99.5zM102.999 250.002c0 -30.667 5.83301 -59.667 17.5 -87s27.667 -51.166 48 -71.499
s44.166 -36.333 71.499 -48s56.333 -17.5 87 -17.5s59.667 5.83301 87 17.5s51.166 27.667 71.499 48s36.333 44.166 48 71.499s17.5 56.333 17.5 87s-5.83301 59.667 -17.5 87s-27.667 51.166 -48 71.499s-44.166 36.333 -71.499 48s-56.333 17.5 -87 17.5
s-59.667 -5.83301 -87 -17.5s-51.166 -27.667 -71.499 -48s-36.333 -44.166 -48 -71.499s-17.5 -56.333 -17.5 -87z" />
    <glyph glyph-name="guillemotleft" unicode="&#xab;" horiz-adv-x="459" 
d="M218 59l-63.998 83.999l-42.5 56.5l-26 34.5c-6.33301 8 -10.833 13.833 -13.5 17.5s-4.16699 6 -4.5 7l-0.5 1.5c0 1.33301 0.333008 2.33301 1 3l236 199l26 -12c-6.66699 -12 -15.334 -25.5 -26.001 -40.5s-22.667 -30.667 -36 -47s-28 -33.166 -44 -50.499
s-33 -34.333 -51 -51c21.333 -34 38.166 -68.333 50.499 -103s20.5 -63.667 24.5 -87zM359.002 90.999l-74 96.999l-37.5 50c-7.66699 10.667 -12.167 17 -13.5 19l-2 3c0 1.33301 0.333008 2.33301 1 3l198 167l22 -10c-12 -20 -29.5 -44.5 -52.5 -73.5
s-49.5 -57.5 -79.5 -85.5c18 -28.667 32 -57.667 42 -87s16.667 -53.666 20 -72.999z" />
    <glyph glyph-name="logicalnot" unicode="&#xac;" horiz-adv-x="577" 
d="M443 137l32 154h-420l13 60h487l-45 -214h-67z" />
    <glyph glyph-name="registered" unicode="&#xae;" horiz-adv-x="520" 
d="M100 540c0 28.667 5.5 55.5 16.5 80.5s25.833 46.833 44.5 65.5s40.5 33.5 65.5 44.5s51.833 16.5 80.5 16.5s55.5 -5.5 80.5 -16.5s46.833 -25.833 65.5 -44.5s33.5 -40.5 44.5 -65.5s16.5 -51.833 16.5 -80.5s-5.5 -55.5 -16.5 -80.5s-25.833 -46.833 -44.5 -65.5
s-40.5 -33.5 -65.5 -44.5s-51.833 -16.5 -80.5 -16.5s-55.5 5.5 -80.5 16.5s-46.833 25.833 -65.5 44.5s-33.5 40.5 -44.5 65.5s-16.5 51.833 -16.5 80.5zM131 540c0 -24 4.66699 -46.667 14 -68s22 -40 38 -56s34.667 -28.667 56 -38s44 -14 68 -14s46.667 4.66699 68 14
s40 22 56 38s28.667 34.667 38 56s14 44 14 68s-4.66699 46.667 -14 68s-22 40 -38 56s-34.667 28.667 -56 38s-44 14 -68 14s-46.667 -4.66699 -68 -14s-40 -22 -56 -38s-28.667 -34.667 -38 -56s-14 -44 -14 -68zM299 662c25.333 0 45.668 -4.99902 61.001 -14.999
s23 -25.333 23 -46c0 -14 -4.5 -26.833 -13.5 -38.5s-21.5 -19.834 -37.5 -24.501l7 -7c2.66699 -2.66699 5.66699 -6.66699 9 -12l30 -48c2 -3.33301 6.16699 -8.83301 12.5 -16.5s12.5 -12.167 18.5 -13.5l-2 -8c-8.66699 0 -18.834 1.5 -30.501 4.5
s-20.167 9.16699 -25.5 18.5l-49 78h-29v-99h-32v217l-20 6v4h78zM273.002 544.001h17c18 0 33 4.33301 45 13s18 23.667 18 45c0 15.333 -5.16699 27.333 -15.5 36s-28.5 13 -54.5 13h-10v-107z" />
    <glyph glyph-name="degree" unicode="&#xb0;" horiz-adv-x="308" 
d="M73 527c0 17.333 3.66602 34.333 10.999 51s17.333 31.667 30 45s27.334 24 44.001 32s34.667 12 54 12c27.333 0 49.166 -8.5 65.499 -25.5s24.5 -38.167 24.5 -63.5c0 -17.333 -3.66699 -34.333 -11 -51s-17.166 -31.5 -29.499 -44.5s-27 -23.5 -44 -31.5
s-34.833 -12 -53.5 -12c-27.333 0 -49.333 8.33301 -66 25s-25 37.667 -25 63zM204.999 631c-11.333 0 -22.5 -2.66699 -33.5 -8s-20.833 -12.5 -29.5 -21.5s-15.667 -19.167 -21 -30.5s-8 -23 -8 -35c0 -17.333 5.33301 -31.833 16 -43.5s24.667 -17.5 42 -17.5
c11.333 0 22.5 2.66699 33.5 8s20.833 12.5 29.5 21.5s15.667 19.167 21 30.5s8 23 8 35c0 17.333 -5.33301 31.833 -16 43.5s-24.667 17.5 -42 17.5z" />
    <glyph glyph-name="plusminus" unicode="&#xb1;" horiz-adv-x="659" 
d="M354 376l45 208h63l-45 -208h220l-12 -60h-220l-45 -208h-63l45 208h-220l12 60h220zM570 60l-12 -60h-503l12 60h503z" />
    <glyph glyph-name="acute" unicode="&#xb4;" horiz-adv-x="336" 
d="M95 653c44.667 29.333 83.667 58.332 117 86.999s64 58 92 88l43 -64c-39.333 -28 -79.5 -54.667 -120.5 -80s-80.5 -45.666 -118.5 -60.999z" />
    <glyph glyph-name="mu" unicode="&#xb5;" horiz-adv-x="549" 
d="M439 487l94.999 20.0029l-95 -449h70l4 -19l-105 -46c-15.333 0.666992 -28.833 7.66699 -40.5 21s-17.5 29.333 -17.5 48c0 7.33301 2 18.666 6 33.999c-10 -12.667 -22 -25.167 -36 -37.5s-29.333 -23.333 -46 -33s-34.667 -17.5 -54 -23.5s-39.666 -9 -60.999 -9
c-3.33301 0 -6.33301 0.166992 -9 0.5s-5.33398 0.5 -8.00098 0.5l-2 -36l-51 -238h-89l165 780h90l-44 -206l-16 -77l-14.5 -69c-4.33301 -20.667 -7.66602 -37.834 -9.99902 -51.501s-3.5 -21.834 -3.5 -24.501c0 -9.33301 2.16699 -16 6.5 -20s9.83301 -6 16.5 -6
c8 0 20.333 3.33301 37 10s34 14.667 52 24s35 19.5 51 30.5s27.667 20.833 35 29.5z" />
    <glyph glyph-name="paragraph" unicode="&#xb6;" horiz-adv-x="509" 
d="M514 680l-128.002 -601.999c-6 -29.333 -16.333 -55.333 -31 -78s-31.667 -42 -51 -58s-40.666 -28.167 -63.999 -36.5s-47 -12.5 -71 -12.5c-22 0 -43.667 3.83301 -65 11.5s-41 19.167 -59 34.5l19 66c2.66699 -4.66699 7.33398 -11 14.001 -19
s14.5 -15.833 23.5 -23.5s18.5 -14.334 28.5 -20.001s19.667 -8.5 29 -8.5c16.667 0 29.334 9.33301 38.001 28s17.334 48 26.001 88l134 630h57l-137 -646c-5.33301 -25.333 -11.333 -44 -18 -56s-15.334 -22.333 -26.001 -31c19.333 3.33301 37.166 12.833 53.499 28.5
s27.833 38.5 34.5 68.5l135 636h58zM239.998 380.001l-25.001 -0.00195312c-36 0 -64.833 10.833 -86.5 32.5s-32.5 49.5 -32.5 83.5c0 23.333 4.83301 45.833 14.5 67.5s22.834 40.834 39.501 57.501s36.167 30.334 58.5 41.001s45.833 16.667 70.5 18h25z" />
    <glyph glyph-name="guillemotright" unicode="&#xbb;" horiz-adv-x="468" 
d="M275 462l63.998 -83.999l42.5 -56.5l26 -34.5c6.33301 -8 10.833 -13.833 13.5 -17.5s4.16699 -6 4.5 -7l0.5 -1.5c0 -1.33301 -0.333008 -2.33301 -1 -3l-236 -199l-26 12c6.66699 12 15.334 25.5 26.001 40.5s22.667 30.667 36 47s28 33.166 44 50.499s33 34.333 51 51
c-21.333 34 -38.166 68.333 -50.499 103s-20.5 63.667 -24.5 87zM133.998 430.001l74 -96.999l37.5 -50c7.66699 -10.667 12.167 -17 13.5 -19l2 -3c0 -1.33301 -0.333008 -2.33301 -1 -3l-198 -167l-22 10c12 20 29.5 44.5 52.5 73.5s49.5 57.5 79.5 85.5
c-18 28.667 -32 57.667 -42 87s-16.667 53.666 -20 72.999z" />
    <glyph glyph-name="Edieresis" unicode="&#xcb;" horiz-adv-x="833" 
 />
    <glyph glyph-name="divide" unicode="&#xf7;" horiz-adv-x="596" 
d="M574 284l-13 -60h-506l13 60h506zM333 63c-0.666992 -5.33301 -3.83008 -11.665 -9.49707 -18.998s-12.334 -14.333 -20.001 -21s-15.5 -12.167 -23.5 -16.5s-14.667 -6.5 -20 -6.5s-10.833 2 -16.5 6s-10.667 8.83301 -15 14.5s-8 11.667 -11 18
s-4.5 12.166 -4.5 17.499c0 7.33301 2.5 14.833 7.5 22.5s11.167 14.5 18.5 20.5s15.166 11 23.499 15s16.166 6 23.499 6c5.33301 0 10.833 -2 16.5 -6s10.667 -9 15 -15s8 -12.333 11 -19s4.5 -12.334 4.5 -17.001zM414.004 450.001
c-0.666992 -5.33301 -3.83008 -11.665 -9.49707 -18.998s-12.334 -14.333 -20.001 -21s-15.5 -12.167 -23.5 -16.5s-14.667 -6.5 -20 -6.5s-10.833 2 -16.5 6s-10.667 8.83301 -15 14.5s-8 11.667 -11 18s-4.5 12.166 -4.5 17.499c0 7.33301 2.5 14.833 7.5 22.5
s11.167 14.5 18.5 20.5s15.166 11 23.499 15s16.166 6 23.499 6c5.33301 0 10.833 -2 16.5 -6s10.667 -9 15 -15s8 -12.333 11 -19s4.5 -12.334 4.5 -17.001z" />
    <glyph glyph-name="uni0401" unicode="&#x401;" 
d="M369 780c0 -6 -3 -12.666 -9 -19.999s-13 -14.333 -21 -21s-16.333 -12.334 -25 -17.001s-15.667 -7 -21 -7c-4.66699 0 -9.66699 2 -15 6s-10.333 8.83301 -15 14.5s-8.66699 11.667 -12 18s-5 12.166 -5 17.499c1.33301 6 5 12.833 11 20.5s12.667 14.834 20 21.501
s14.833 12.334 22.5 17.001s14.167 7 19.5 7c4.66699 0 10 -2 16 -6s11.5 -8.83301 16.5 -14.5s9.16699 -11.834 12.5 -18.501s5 -12.667 5 -18zM549 780.001c0 -6 -3 -12.666 -9 -19.999s-13 -14.333 -21 -21s-16.333 -12.334 -25 -17.001s-15.667 -7 -21 -7
c-4.66699 0 -9.66699 2 -15 6s-10.333 8.83301 -15 14.5s-8.66699 11.667 -12 18s-5 12.166 -5 17.499c1.33301 6 5 12.833 11 20.5s12.667 14.834 20 21.501s14.833 12.334 22.5 17.001s14.167 7 19.5 7c4.66699 0 10 -2 16 -6s11.5 -8.83301 16.5 -14.5
s9.16699 -11.834 12.5 -18.501s5 -12.667 5 -18zM537 513.002l-30.999 0.00292969c-4.66699 7.33301 -8.83398 18.5 -12.501 33.5s-5.5 33.167 -5.5 54.5v18.5c0 6.33301 0.666992 12.833 2 19.5h-189l-60 -282h161c4.66699 13.333 10.667 27.333 18 42s15 29 23 43h33
l-42 -198h-33c-2 9.33301 -3.33301 18.666 -4 27.999s-1 19 -1 29v17h-163l-58 -274h214c9.33301 29.333 20.333 54.166 33 74.499s23.667 35.166 33 44.499h31l-34 -163h-442l4 21c20.667 7.33301 42.667 13 66 17l128 604c-10.667 2 -21 4.33301 -31 7s-19 6 -27 10l4 21
h418z" />
    <glyph glyph-name="uni0403" unicode="&#x403;" horiz-adv-x="469" 
d="M375 732c44.667 32 81.667 63.334 111 94.001s50.333 55 63 73c12.667 -5.33301 22.5 -12 29.5 -20s11.5 -19 13.5 -33c-30 -26 -61.167 -51.333 -93.5 -76s-64.833 -46.334 -97.5 -65.001zM264 0.000976562h-235.999l4 21c20.667 7.33301 42.667 13 66 17l128 604
c-10.667 2 -21 4.33301 -31 7s-19 6 -27 10l4 21h416l-35 -167h-21c-4 6.66699 -7.5 16.667 -10.5 30s-4.5 29.333 -4.5 48c0 7.33301 0.166992 15 0.5 23s1.16602 16.333 2.49902 25h-201l-127 -600c14 -2 27.833 -4.5 41.5 -7.5s25.167 -6.5 34.5 -10.5z" />
    <glyph glyph-name="uni0405" unicode="&#x405;" horiz-adv-x="833" 
 />
    <glyph glyph-name="uni040C" unicode="&#x40c;" horiz-adv-x="607" 
d="M375 732c44.667 32 81.667 63.334 111 94.001s50.333 55 63 73c12.667 -5.33301 22.5 -12 29.5 -20s11.5 -19 13.5 -33c-30 -26 -61.167 -51.333 -93.5 -76s-64.833 -46.334 -97.5 -65.001zM681 659.001c-10.667 -4 -21.5 -7.5 -32.5 -10.5s-21.833 -5.5 -32.5 -7.5
l-280 -286c4.66699 -2 13.167 -7.16699 25.5 -15.5s23.166 -20.5 32.499 -36.5l147 -266c10 -2 19.833 -4.33301 29.5 -7s18.5 -5.66699 26.5 -9l-4 -21h-149l-168 315h-44l-58 -277c10 -2 20.167 -4.5 30.5 -7.5s19.5 -6.16699 27.5 -9.5l-4 -21h-218l4 21
c20.667 7.33301 42.667 13 66 17l128 604c-10.667 2 -21 4.33301 -31 7s-19 6 -27 10l4 21h218l-4 -21c-10 -4 -20.667 -7.5 -32 -10.5s-22.666 -5.5 -33.999 -7.5l-62 -289l43 6l259 282c-10 2 -20 4.5 -30 7.5s-19.667 6.83301 -29 11.5l4 21h198z" />
    <glyph glyph-name="uni0410" unicode="&#x410;" horiz-adv-x="596" 
d="M586 0l-218.001 0.00195312l4 21c8.66699 3.33301 17.834 6.16602 27.501 8.49902s19.5 4.5 29.5 6.5l-26 184h-206l-99 -182c18.667 -4 36.667 -9.66699 54 -17l-4 -21h-198l4 21c13.333 5.33301 26.833 9.66602 40.5 12.999s27.167 6 40.5 8l366 638h35l94 -642
c10.667 -2 21.167 -4.5 31.5 -7.5s19.833 -6.16699 28.5 -9.5zM218.999 261.002h178l-32 267z" />
    <glyph glyph-name="uni0411" unicode="&#x411;" horiz-adv-x="551" 
d="M340 404c34.667 0 65.1689 -4.00195 91.502 -12.002s48 -18.833 65 -32.5s29.833 -30 38.5 -49s13 -39.5 13 -61.5c0 -35.333 -7.5 -68.166 -22.5 -98.499s-35.667 -56.666 -62 -78.999s-57.833 -39.833 -94.5 -52.5s-76.334 -19 -119.001 -19h-240l4 21
c9.33301 3.33301 19.833 6.5 31.5 9.5s23.167 5.5 34.5 7.5l128 604c-10.667 2 -21 4.33301 -31 7s-19 6 -27 10l4 21h428l-35 -167h-21c-4.66699 7.33301 -8.83398 18.5 -12.501 33.5s-5.5 33.167 -5.5 54.5v18.5c0 6.33301 0.666992 12.833 2 19.5h-209l-50 -235h89z
M175.002 43.998l27 -0.00292969c80.667 0 143.167 17.333 187.5 52s66.5 86.334 66.5 155.001c0 22 -4.33301 40.333 -13 55s-20.5 26.334 -35.5 35.001s-32.667 14.834 -53 18.501s-41.833 5.5 -64.5 5.5h-47z" />
    <glyph glyph-name="uni0412" unicode="&#x412;" horiz-adv-x="576" 
d="M10 0l4.00098 21c20.667 7.33301 42.667 13 66 17l128 604c-10.667 2 -21 4.33301 -31 7s-19 6 -27 10l4 21h245c57.333 0 101.166 -10.5 131.499 -31.5s45.5 -51.167 45.5 -90.5c0 -45.333 -13 -82.833 -39 -112.5s-63.333 -54.167 -112 -73.5
c44 -8.66699 78 -24 102 -46s36 -51.667 36 -89c0 -34.667 -8 -66.5 -24 -95.5s-37.667 -54 -65 -75s-59.333 -37.333 -96 -49s-76 -17.5 -118 -17.5h-250zM175.001 44l36.9971 0.00195312c38 0 72.833 3.5 104.5 10.5s58.834 18 81.501 33s40.334 34.5 53.001 58.5
s19 53 19 87c0 22 -4.33301 40.167 -13 54.5s-20.167 25.666 -34.5 33.999s-30.666 14.166 -48.999 17.499s-37.5 5 -57.5 5h-77zM300.998 639.002l-53.999 -257.002h37c40 0 73 5 99 15s46.667 23 62 39s26.166 33.833 32.499 53.5s9.5 39.5 9.5 59.5
c0 18 -4 32.833 -12 44.5s-18.5 20.834 -31.5 27.501s-27.833 11.334 -44.5 14.001s-33.667 4 -51 4h-47z" />
    <glyph glyph-name="uni0413" unicode="&#x413;" horiz-adv-x="500" 
d="M246 0h-235.999l4 21c20.667 7.33301 42.667 13 66 17l128 604c-10.667 2 -21 4.33301 -31 7s-19 6 -27 10l4 21h416l-35 -167h-31c-4 6.66699 -7.5 16.667 -10.5 30s-4.5 29.333 -4.5 48c0 7.33301 0.166992 15 0.5 23s1.16602 16.333 2.49902 25h-191l-127 -600
c14 -2 27.833 -4.5 41.5 -7.5s25.167 -6.5 34.5 -10.5z" />
    <glyph glyph-name="uni0414" unicode="&#x414;" horiz-adv-x="621" 
d="M37 47c24 18.667 47.667 46.1709 71 82.5039s46 79.833 68 130.5s42.833 108.167 62.5 172.5s37.167 134.166 52.5 209.499c-22.667 4 -42 9.66699 -58 17l4 21h439l-4 -21c-10 -4 -20.667 -7.33301 -32 -10s-22.666 -5 -33.999 -7l-128 -596h102l-51 -237h-33
c-4.66699 9.33301 -8 24 -10 44s-3 41.333 -3 64c0 15.333 0.5 30.166 1.5 44.499s2.16699 27.166 3.5 38.499h-440c-14.667 -46.667 -30.334 -86.834 -47.001 -120.501s-30.667 -57.167 -42 -70.5h-39l51 238h66zM344 639.004
c-19.333 -92.667 -39.333 -172.999 -60 -240.999s-41 -125.833 -61 -173.5s-39 -85.834 -57 -114.501s-33.333 -50 -46 -64h264l127 593h-167z" />
    <glyph glyph-name="uni0415" unicode="&#x415;" 
d="M537 513l-30.999 0.00292969c-4.66699 7.33301 -8.83398 18.5 -12.501 33.5s-5.5 33.167 -5.5 54.5v18.5c0 6.33301 0.666992 12.833 2 19.5h-189l-60 -282h161c4.66699 13.333 10.667 27.333 18 42s15 29 23 43h33l-42 -198h-33c-2 9.33301 -3.33301 18.666 -4 27.999
s-1 19 -1 29v17h-163l-58 -274h214c9.33301 29.333 20.333 54.166 33 74.499s23.667 35.166 33 44.499h31l-34 -163h-442l4 21c20.667 7.33301 42.667 13 66 17l128 604c-10.667 2 -21 4.33301 -31 7s-19 6 -27 10l4 21h418z" />
    <glyph glyph-name="uni0416" unicode="&#x416;" horiz-adv-x="947" 
d="M995 659c-10.667 -4 -21.499 -7.49805 -32.499 -10.498s-21.833 -5.5 -32.5 -7.5l-274 -286c4.66699 -2 12 -6.66699 22 -14s19 -18.333 27 -33l148 -271c10 -2 19.833 -4.33301 29.5 -7s18.5 -5.66699 26.5 -9l-4 -21h-147l-164 315h-37l-58 -277
c10 -2 20.167 -4.5 30.5 -7.5s19.5 -6.16699 27.5 -9.5l-4 -21h-218l4 21c20.667 7.33301 42.667 13 66 17l58 277h-36l-278 -315h-169l6 21c9.33301 3.33301 19.5 6.33301 30.5 9s21.5 5 31.5 7l243 266c7.33301 8 15.666 15 24.999 21s18.333 11.167 27 15.5
s16.667 7.66602 24 9.99902s12.666 4.16602 15.999 5.49902l-149 285c-22 4 -42 10.333 -60 19l4 21h198l-4 -21c-12 -4.66699 -24 -8.5 -36 -11.5s-23.667 -5.5 -35 -7.5l136 -282l34 -6l62 290c-10.667 2 -21 4.33301 -31 7s-19 6 -27 10l4 21h218l-4 -21
c-10 -4 -20.667 -7.5 -32 -10.5s-22.666 -5.5 -33.999 -7.5l-62 -289l39 6l252 282c-10 2 -20 4.5 -30 7.5s-19.667 6.83301 -29 11.5l4 21h198z" />
    <glyph glyph-name="uni0417" unicode="&#x417;" horiz-adv-x="496" 
d="M45 113c17.333 -20 38.668 -35.1709 64.001 -45.5039s53.333 -15.5 84 -15.5c28 0 53.167 4.66699 75.5 14s41.5 21.666 57.5 36.999s28.333 32.833 37 52.5s13 40.167 13 61.5c0 14.667 -2.83301 28.834 -8.5 42.501s-14.5 25.834 -26.5 36.501s-27.167 19 -45.5 25
s-40.166 9 -65.499 9h-68l10 43h59c25.333 0 48.833 5 70.5 15s40.5 23.5 56.5 40.5s28.667 37 38 60s14 47.5 14 73.5c0 26.667 -8 47.5 -24 62.5s-34.667 22.5 -56 22.5c-24.667 0 -47.667 -9.66699 -69 -29c-9.33301 -8.66699 -17.5 -18.667 -24.5 -30l-20 -32.5
c-6.33301 -10.333 -12.5 -19 -18.5 -26s-12.667 -10.5 -20 -10.5c-4 0 -9 0.666992 -15 2s-11.333 3.66602 -16 6.99902l30 143l43 -10c17.333 7.33301 35.5 13.5 54.5 18.5s38.167 7.5 57.5 7.5c22 0 43.333 -2.66699 64 -8s39 -13.333 55 -24s28.667 -24.167 38 -40.5
s14 -35.5 14 -57.5c0 -43.333 -14.333 -81.833 -43 -115.5s-66 -59.5 -112 -77.5c16.667 -3.33301 32.334 -9.33301 47.001 -18s27.5 -19.5 38.5 -32.5s19.667 -27.833 26 -44.5s9.5 -34 9.5 -52c0 -39.333 -8.16699 -73.166 -24.5 -101.499s-37.333 -51.5 -63 -69.5
s-54.334 -31.333 -86.001 -40s-62.834 -13 -93.501 -13c-18.667 0 -37.334 1.83301 -56.001 5.5s-36.5 8.83398 -53.5 15.501s-32.667 14.834 -47 24.501s-26.5 20.834 -36.5 33.501z" />
    <glyph glyph-name="uni0418" unicode="&#x418;" horiz-adv-x="698" 
d="M614 0h-218.002l4 21c20.667 7.33301 42.667 13 66 17l101 479l-383 -429l-10 -50c10 -2 20.167 -4.5 30.5 -7.5s19.5 -6.16699 27.5 -9.5l-4 -21h-218l4 21c20.667 7.33301 42.667 13 66 17l128 604c-10.667 2 -21 4.33301 -31 7s-19 6 -27 10l4 21h218l-4 -21
c-10 -4 -20.667 -7.33301 -32 -10s-22.666 -5 -33.999 -7l-97 -455l383 426l6 29c-10.667 2 -21 4.33301 -31 7s-19 6 -27 10l4 21h218l-4 -21c-10 -4 -20.667 -7.33301 -32 -10s-22.666 -5 -33.999 -7l-128 -604c10 -2 20.167 -4.5 30.5 -7.5s19.5 -6.16699 27.5 -9.5z" />
    <glyph glyph-name="uni0419" unicode="&#x419;" horiz-adv-x="698" 
d="M666 848c-26 -42 -53.667 -72.333 -83 -91s-60 -28 -92 -28c-34.667 0 -70.667 9.66699 -108 29l13 62c4 4 8.66699 7.83301 14 11.5s11 5.5 17 5.5c10 0 18.333 -2.5 25 -7.5s13.5 -10.667 20.5 -17s14.833 -12 23.5 -17s19.667 -7.5 33 -7.5c6 0 13 0.666992 21 2
s17 4.33301 27 9s21.167 11.5 33.5 20.5s25.833 21.167 40.5 36.5zM618 21c-8 3.33301 -17.165 6.5 -27.498 9.5s-20.5 5.5 -30.5 7.5l128 604c11.333 2 22.666 4.33301 33.999 7s22 6 32 10l4 21h-218l-4 -21c8 -4 17 -7.33301 27 -10s20.333 -5 31 -7l-6 -29l-383 -426
l97 455c11.333 2 22.666 4.33301 33.999 7s22 6 32 10l4 21h-218l-4 -21c8 -4 17 -7.33301 27 -10s20.333 -5 31 -7l-128 -604c-23.333 -4 -45.333 -9.66699 -66 -17l-4 -21h218l4 21c-8 3.33301 -17.167 6.5 -27.5 9.5s-20.5 5.5 -30.5 7.5l10 50l383 429l-101 -479
c-23.333 -4 -45.333 -9.66699 -66 -17l-4 -21h218z" />
    <glyph glyph-name="uni041A" unicode="&#x41a;" horiz-adv-x="607" 
d="M681 659c-10.667 -4 -21.5 -7.5 -32.5 -10.5s-21.833 -5.5 -32.5 -7.5l-280 -286c4.66699 -2 13.167 -7.16699 25.5 -15.5s23.166 -20.5 32.499 -36.5l147 -266c10 -2 19.833 -4.33301 29.5 -7s18.5 -5.66699 26.5 -9l-4 -21h-149l-168 315h-44l-58 -277
c10 -2 20.167 -4.5 30.5 -7.5s19.5 -6.16699 27.5 -9.5l-4 -21h-218l4 21c20.667 7.33301 42.667 13 66 17l128 604c-10.667 2 -21 4.33301 -31 7s-19 6 -27 10l4 21h218l-4 -21c-10 -4 -20.667 -7.5 -32 -10.5s-22.666 -5.5 -33.999 -7.5l-62 -289l43 6l259 282
c-10 2 -20 4.5 -30 7.5s-19.667 6.83301 -29 11.5l4 21h198z" />
    <glyph glyph-name="uni041B" unicode="&#x41b;" horiz-adv-x="632" 
d="M548 0h-218.004l4 21c20.667 7.33301 42.667 13 66 17l127 601h-163c-24 -112 -48 -207.333 -72 -286s-49.833 -143.5 -77.5 -194.5s-57.667 -89.667 -90 -116s-68.833 -42.833 -109.5 -49.5l9 100l95 51c26.667 26 50.834 60.333 72.501 103s40.5 87.5 56.5 134.5
s29.333 93.667 40 140s18.334 86.5 23.001 120.5c-10 2 -20.167 4.5 -30.5 7.5s-19.166 6.16699 -26.499 9.5l4 21h434l-4 -21c-10 -4 -20.667 -7.33301 -32 -10s-22.666 -5 -33.999 -7l-128 -604c10 -2 20.167 -4.5 30.5 -7.5s19.5 -6.16699 27.5 -9.5z" />
    <glyph glyph-name="uni041C" unicode="&#x41c;" horiz-adv-x="826" 
d="M188 0h-198.001l4 21c24.667 9.33301 49.334 16 74.001 20l190 601c-20.667 4 -38.667 9.66699 -54 17l4 21h151l67 -486l282 486h153l-4 -21c-9.33301 -3.33301 -19.5 -6.5 -30.5 -9.5s-21.833 -5.5 -32.5 -7.5l-80 -604c20 -4 39.667 -9.66699 59 -17l-4 -21h-218l4 21
c9.33301 3.33301 19.333 6.33301 30 9s21 5 31 7l73 511l-305 -535h-38l-71 525l-151 -497c24 -4 46.667 -10.667 68 -20z" />
    <glyph glyph-name="uni041D" unicode="&#x41d;" horiz-adv-x="692" 
d="M228 0h-218.002l4 21c20.667 7.33301 42.667 13 66 17l128 604c-10.667 2 -21 4.33301 -31 7s-19 6 -27 10l4 21h218l-4 -21c-10 -4 -20.667 -7.33301 -32 -10s-22.666 -5 -33.999 -7l-59 -274h286l59 274c-10.667 2 -21 4.33301 -31 7s-19 6 -27 10l4 21h218l-4 -21
c-10 -4 -20.667 -7.33301 -32 -10s-22.666 -5 -33.999 -7l-128 -604c10 -2 20.167 -4.5 30.5 -7.5s19.5 -6.16699 27.5 -9.5l-4 -21h-218l4 21c20.667 7.33301 42.667 13 66 17l61 289h-286l-61 -289c10 -2 20.167 -4.5 30.5 -7.5s19.5 -6.16699 27.5 -9.5z" />
    <glyph glyph-name="uni041E" unicode="&#x41e;" horiz-adv-x="642" 
d="M45 231c0 32.667 4.33105 66.498 12.998 101.498s21 69.5 37 103.5s35.5 66.167 58.5 96.5s48.833 57 77.5 80s60 41.167 94 54.5s70.333 20 109 20c36 0 67.833 -5.83301 95.5 -17.5s51 -28.167 70 -49.5s33.333 -46.666 43 -75.999s14.5 -62 14.5 -98
c0 -33.333 -4.33301 -67.5 -13 -102.5s-21.167 -69.333 -37.5 -103s-36 -65.5 -59 -95.5s-49.167 -56.167 -78.5 -78.5s-61.166 -40.166 -95.499 -53.499s-70.833 -20 -109.5 -20c-35.333 0 -66.666 5.83301 -93.999 17.5s-50.333 28 -69 49s-32.667 46 -42 75
s-14 61.167 -14 96.5zM416.998 645.998c-29.333 0 -56.5029 -6.66895 -81.5029 -20.002s-47.333 -31.166 -67 -53.499s-37 -47.833 -52 -76.5s-27.667 -58.5 -38 -89.5s-18 -61.667 -23 -92s-7.5 -58.166 -7.5 -83.499c0 -27.333 2.66699 -52.833 8 -76.5
s13.833 -44.167 25.5 -61.5s26.334 -31 44.001 -41s39.167 -15 64.5 -15c30 0 57.5 6.83301 82.5 20.5s47.333 31.667 67 54s36.667 48 51 77s26.333 59 36 90s16.834 61.833 21.501 92.5s7 59 7 85s-2.5 50.667 -7.5 74s-13 43.5 -24 60.5s-25.167 30.5 -42.5 40.5
s-38.666 15 -63.999 15z" />
    <glyph glyph-name="uni041F" unicode="&#x41f;" horiz-adv-x="692" 
d="M608 0h-218.001l4 21c20.667 7.33301 42.667 13 66 17l127 600h-286l-127 -600c10 -2 20.167 -4.5 30.5 -7.5s19.5 -6.16699 27.5 -9.5l-4 -21h-218l4 21c20.667 7.33301 42.667 13 66 17l128 604c-10.667 2 -21 4.33301 -31 7s-19 6 -27 10l4 21h598l-4 -21
c-10 -4 -20.667 -7.33301 -32 -10s-22.666 -5 -33.999 -7l-128 -604c10 -2 20.167 -4.5 30.5 -7.5s19.5 -6.16699 27.5 -9.5z" />
    <glyph glyph-name="uni0420" unicode="&#x420;" horiz-adv-x="551" 
d="M174 39c13.333 -2 27.002 -4.49902 41.002 -7.49902s25.667 -6.5 35 -10.5l-4 -21h-236l4 21c9.33301 3.33301 19.833 6.5 31.5 9.5s23.167 5.5 34.5 7.5l128 604c-10.667 2 -21 4.33301 -31 7s-19 6 -27 10l4 21h230c66.667 0 119.167 -13.167 157.5 -39.5
s57.5 -63.5 57.5 -111.5c0 -32 -8 -63.333 -24 -94s-37.833 -57.834 -65.5 -81.501s-59.834 -42.667 -96.501 -57s-75.334 -21.5 -116.001 -21.5h-28l7 34h6c28 0 55.5 4.83301 82.5 14.5s51 23.667 72 42s38 41 51 68s19.5 57.833 19.5 92.5s-14 62.167 -42 82.5
s-74 30.5 -138 30.5h-26z" />
    <glyph glyph-name="uni0421" unicode="&#x421;" horiz-adv-x="540" 
d="M583 528c-6.66699 -3.33301 -13.1689 -5.66992 -19.502 -7.00293s-11.166 -2 -14.499 -2c-6 0 -10.667 2 -14 6s-5.83301 9.33301 -7.5 16s-3.33398 14.334 -5.00098 23.001s-3.83398 17.334 -6.50098 26.001c-2.66699 6.66699 -5.66699 13.5 -9 20.5
s-8.16602 13 -14.499 18s-14.333 9.16699 -24 12.5s-21.834 5 -36.501 5c-40.667 0 -78.5 -10.833 -113.5 -32.5s-65.5 -50.5 -91.5 -86.5s-46.5 -77 -61.5 -123s-22.5 -93.333 -22.5 -142c0 -29.333 3.33301 -56.5 10 -81.5s16.834 -46.667 30.501 -65
s30.667 -32.666 51 -42.999s44.5 -15.5 72.5 -15.5c25.333 0 53.833 4.83301 85.5 14.5s66.5 25.167 104.5 46.5l5 -24c-38 -35.333 -77.167 -61 -117.5 -77s-78.833 -24 -115.5 -24c-38.667 0 -72 6.5 -100 19.5s-51.167 30.5 -69.5 52.5s-32 47.667 -41 77
s-13.5 60.666 -13.5 93.999c0 36.667 4.33301 73.334 13 110.001s21.334 71.667 38.001 105s37 64.333 61 93s51.167 53.667 81.5 75s63.5 38 99.5 50s74.333 18 115 18c20.667 0 39.834 -2.5 57.501 -7.5s36.167 -11.167 55.5 -18.5l47 10l-30 -143v0z" />
    <glyph glyph-name="uni0422" unicode="&#x422;" horiz-adv-x="559" 
d="M608 513l-30.999 0.000976562c-4.66699 7.33301 -8.83398 18.5 -12.501 33.5s-5.5 33.167 -5.5 54.5v18c0 6 0.666992 12.333 2 19h-134l-127 -600c10 -2 20.167 -4.5 30.5 -7.5s19.5 -6.16699 27.5 -9.5l-4 -21h-218l4 21c20.667 7.33301 42.667 13 66 17l127 600h-134
c-10 -30.667 -21.5 -56.834 -34.5 -78.501s-24.167 -37.167 -33.5 -46.5h-31l35 167h508z" />
    <glyph glyph-name="uni0423" unicode="&#x423;" horiz-adv-x="553" 
d="M683 659c-11.333 -4.66699 -23 -8.50098 -35 -11.501s-23.667 -5.5 -35 -7.5l-329 -561c-14 -24 -27.833 -45.167 -41.5 -63.5s-26 -33.666 -37 -45.999s-20.5 -22 -28.5 -29s-13.333 -10.833 -16 -11.5l-48 75l99 70l41 53l-93 514c-11.333 2 -22.333 4.5 -33 7.5
s-20.334 6.5 -29.001 10.5l4 21h218l-4 -21c-9.33301 -3.33301 -19.166 -6.33301 -29.499 -9s-20.833 -5 -31.5 -7l69 -406l224 402c-22.667 4 -43.667 10.667 -63 20l4 21h198z" />
    <glyph glyph-name="uni0424" unicode="&#x424;" horiz-adv-x="687" 
d="M562 686c-10 -4 -20.668 -7.33398 -32.001 -10.001s-22.666 -5 -33.999 -7l-11 -52c38.667 -1.33301 72 -7.5 100 -18.5s51.167 -25.167 69.5 -42.5s31.833 -37.5 40.5 -60.5s13 -47.167 13 -72.5c0 -43.333 -9.16699 -83.5 -27.5 -120.5s-42.833 -69.667 -73.5 -98
s-66.167 -51.5 -106.5 -69.5s-82.166 -29.333 -125.499 -34l-13 -63c10 -2 20.167 -4.5 30.5 -7.5s19.5 -6.16699 27.5 -9.5l-4 -21h-218l4 21c20.667 7.33301 42.667 13 66 17l13 61c-38 0.666992 -71 6.33398 -99 17.001s-51 24.834 -69 42.501s-31.333 38 -40 61
s-13 47.167 -13 72.5c0 42.667 9.16699 82.5 27.5 119.5s42.666 69.5 72.999 97.5s65.333 51.167 105 69.5s81.167 30.166 124.5 35.499l12 55c-10.667 2 -21 4.33301 -31 7s-19 6 -27 10l4 21h218zM608.999 409.999c0 20.667 -2.66504 40.3311 -7.99805 58.998
s-13.333 35.5 -24 50.5s-24.334 27.833 -41.001 38.5s-36.334 18 -59.001 22l-95 -446c32.667 2.66699 62.834 12.5 90.501 29.5s51.667 38.333 72 64s36.166 54.334 47.499 86.001s17 63.834 17 96.501zM157.001 293.996c0 -40 10.332 -74.832 30.999 -104.499
s54 -48.167 100 -55.5l95 447c-32 -4 -61.833 -15.167 -89.5 -33.5s-51.667 -40.833 -72 -67.5s-36.166 -56.334 -47.499 -89.001s-17 -65 -17 -97z" />
    <glyph glyph-name="uni0425" unicode="&#x425;" horiz-adv-x="579" 
d="M577 0l-228 -0.000976562l4 21c16 6.66699 33.333 11.334 52 14.001l-95 246l-189 -244c17.333 -4 34.333 -9.33301 51 -16l-4 -21h-198l4 21c24.667 9.33301 49.334 16 74.001 20l242 294l-110 306c-12 2 -23.833 4.5 -35.5 7.5s-21.5 6.5 -29.5 10.5l4 21h238l-4 -21
c-9.33301 -3.33301 -19 -6.33301 -29 -9s-20.667 -5 -32 -7l75 -228l169 225c-10.667 2 -20.667 4.66699 -30 8s-18.666 7 -27.999 11l4 21h198l-4 -21c-24.667 -9.33301 -49.334 -16 -74.001 -20l-216 -273l129 -328c12 -2 23.667 -4.5 35 -7.5
s21.666 -6.16699 30.999 -9.5z" />
    <glyph glyph-name="uni0426" unicode="&#x426;" horiz-adv-x="674" 
d="M10 0l3.99805 20.999c20.667 7.33301 42.667 13 66 17l128 604c-10.667 2 -21 4.33301 -31 7s-19 6 -27 10l4 21h218l-4 -21c-10 -4 -20.667 -7.33301 -32 -10s-22.666 -5 -33.999 -7l-127 -596h279l126 596c-10.667 2 -21 4.33301 -31 7s-19 6 -27 10l4 21h218l-4 -21
c-10 -4 -20.667 -7.33301 -32 -10s-22.666 -5 -33.999 -7l-126 -596h108l-50 -237h-34c-4 9.33301 -7.16699 24.333 -9.5 45s-3.5 42.667 -3.5 66c0 13.333 0.5 26.833 1.5 40.5s2.16699 26.834 3.5 39.501h-554z" />
    <glyph glyph-name="uni0427" unicode="&#x427;" horiz-adv-x="610" 
d="M336 659c-10 -4 -20.668 -7.33301 -32.001 -10s-22.666 -5 -33.999 -7l-58 -276c0 -6.66699 3.5 -12.667 10.5 -18s16 -10 27 -14s23.333 -7 37 -9s27.167 -3 40.5 -3c19.333 0 39.666 1.33301 60.999 4s39 6 53 10l65 306c-10.667 2 -21 4.33301 -31 7s-19 6 -27 10
l4 21h218l-4 -21c-10 -4 -20.667 -7.33301 -32 -10s-22.666 -5 -33.999 -7l-128 -604c10 -2 20.167 -4.5 30.5 -7.5s19.5 -6.16699 27.5 -9.5l-4 -21h-218l4 21c20.667 7.33301 42.667 13 66 17l56 264c-18.667 -9.33301 -40.667 -16.666 -66 -21.999s-49.333 -8 -72 -8
c-20.667 0 -41.5 1.5 -62.5 4.5s-40 8 -57 15s-30.833 16.5 -41.5 28.5s-16 27 -16 45c0 1.33301 0.333008 4.16602 1 8.49902s2.66699 15.5 6 33.5s8.83301 45.167 16.5 81.5l32.5 153.5c-10 2 -20 4.5 -30 7.5s-19 6.16699 -27 9.5l4 21h218z" />
    <glyph glyph-name="uni0428" unicode="&#x428;" horiz-adv-x="880" 
d="M796 0h-786.003l4 21c20.667 7.33301 42.667 13 66 17l128 604c-10.667 2 -21 4.33301 -31 7s-19 6 -27 10l4 21h218l-4 -21c-10 -4 -20.667 -7.33301 -32 -10s-22.666 -5 -33.999 -7l-127 -596h190l127 596c-10.667 2 -21 4.33301 -31 7s-19 6 -27 10l4 21h218l-4 -21
c-10 -4 -20.667 -7.33301 -32 -10s-22.666 -5 -33.999 -7l-127 -596h190l127 596c-10.667 2 -21 4.33301 -31 7s-19 6 -27 10l4 21h218l-4 -21c-10 -4 -20.667 -7.33301 -32 -10s-22.666 -5 -33.999 -7l-128 -604c10 -2 20.167 -4.5 30.5 -7.5s19.5 -6.16699 27.5 -9.5z" />
    <glyph glyph-name="uni0429" unicode="&#x429;" horiz-adv-x="870" 
d="M936 659c-10 -4 -20.6699 -7.33398 -32.0029 -10.001s-22.666 -5 -33.999 -7l-127 -596h117l-50 -237h-34c-4 9.33301 -7.16699 24.333 -9.5 45s-3.5 42.667 -3.5 66c0 13.333 0.5 26.833 1.5 40.5s2.16699 26.834 3.5 39.501h-758l4 21c20.667 7.33301 42.667 13 66 17
l128 604c-10.667 2 -21 4.33301 -31 7s-19 6 -27 10l4 21h218l-4 -21c-10 -4 -20.667 -7.33301 -32 -10s-22.666 -5 -33.999 -7l-127 -596h190l127 596c-10.667 2 -21 4.33301 -31 7s-19 6 -27 10l4 21h218l-4 -21c-10 -4 -20.667 -7.33301 -32 -10s-22.666 -5 -33.999 -7
l-127 -596h190l127 596c-10.667 2 -21 4.33301 -31 7s-19 6 -27 10l4 21h218z" />
    <glyph glyph-name="uni042A" unicode="&#x42a;" horiz-adv-x="627" 
d="M447 680l-4 -20.998c-10 -4 -20.667 -7.33301 -32 -10s-22.666 -5 -33.999 -7l-52 -243h78c70.667 0 123.167 -14 157.5 -42s51.5 -64 51.5 -108c0 -37.333 -8.5 -71.333 -25.5 -102s-39.333 -56.834 -67 -78.501s-59.334 -38.5 -95.001 -50.5s-72.5 -18 -110.5 -18h-229
l4 21c20.667 7.33301 42.667 13 66 17l127 600h-92c-10 -30.667 -21.5 -56.834 -34.5 -78.501s-24.167 -37.167 -33.5 -46.5h-31l35 167h321zM319 367.002l-71.001 -332.002h16c34.667 0 67.5 4 98.5 12s58.167 20.667 81.5 38s41.833 39.833 55.5 67.5
s20.5 61.167 20.5 100.5c0 22 -4.16699 40.333 -12.5 55s-19.833 26.334 -34.5 35.001s-32.167 14.834 -52.5 18.501s-42.166 5.5 -65.499 5.5h-36z" />
    <glyph glyph-name="uni042B" unicode="&#x42b;" horiz-adv-x="820" 
d="M368 659c-10 -4 -20.667 -7.33203 -32 -9.99902s-22.666 -5 -33.999 -7l-52 -243h78c70.667 0 123.167 -14 157.5 -42s51.5 -64 51.5 -108c0 -37.333 -8.5 -71.333 -25.5 -102s-39.333 -56.834 -67 -78.501s-59.334 -38.5 -95.001 -50.5s-72.5 -18 -110.5 -18h-229l4 21
c20.667 7.33301 42.667 13 66 17l128 604c-10.667 2 -21 4.33301 -31 7s-19 6 -27 10l4 21h218zM736 0.000976562h-218.001l4 21c20.667 7.33301 42.667 13 66 17l128 604c-10.667 2 -21 4.33301 -31 7s-19 6 -27 10l4 21h218l-4 -21c-10 -4 -20.667 -7.33301 -32 -10
s-22.666 -5 -33.999 -7l-128 -604c10 -2 20.167 -4.5 30.5 -7.5s19.5 -6.16699 27.5 -9.5zM243.999 367.001l-71.001 -332.002h16c34.667 0 67.5 4 98.5 12s58.167 20.667 81.5 38s41.833 39.833 55.5 67.5s20.5 61.167 20.5 100.5c0 22 -4.16699 40.333 -12.5 55
s-19.833 26.334 -34.5 35.001s-32.167 14.834 -52.5 18.501s-42.166 5.5 -65.499 5.5h-36z" />
    <glyph glyph-name="uni042C" unicode="&#x42c;" horiz-adv-x="552" 
d="M368 659c-10 -4 -20.667 -7.33203 -32 -9.99902s-22.666 -5 -33.999 -7l-52 -243h78c70.667 0 123.167 -14 157.5 -42s51.5 -64 51.5 -108c0 -37.333 -8.5 -71.333 -25.5 -102s-39.333 -56.834 -67 -78.501s-59.334 -38.5 -95.001 -50.5s-72.5 -18 -110.5 -18h-229l4 21
c20.667 7.33301 42.667 13 66 17l128 604c-10.667 2 -21 4.33301 -31 7s-19 6 -27 10l4 21h218zM244 367.001l-71.001 -332.002h16c34.667 0 67.5 4 98.5 12s58.167 20.667 81.5 38s41.833 39.833 55.5 67.5s20.5 61.167 20.5 100.5c0 22 -4.16699 40.333 -12.5 55
s-19.833 26.334 -34.5 35.001s-32.167 14.834 -52.5 18.501s-42.166 5.5 -65.499 5.5h-36z" />
    <glyph glyph-name="uni042D" unicode="&#x42d;" horiz-adv-x="554" 
d="M152 319l10 47.999h308l4 39c1.33301 12.667 2 25.667 2 39c0 58.667 -12.167 106 -36.5 142s-61.5 54 -111.5 54c-21.333 0 -39.333 -3 -54 -9s-27.167 -13.5 -37.5 -22.5s-19 -18.667 -26 -29l-19.5 -29c-6 -9 -12 -16.5 -18 -22.5s-13.333 -9 -22 -9
c-8 0 -15.667 2.66699 -23 8l30 143l43 -10c22.667 7.33301 44 13.5 64 18.5s40.333 7.5 61 7.5c43.333 0 80.666 -6.5 111.999 -19.5s57 -30.667 77 -53s34.833 -48.5 44.5 -78.5s14.5 -62 14.5 -96c0 -55.333 -9.83301 -109.833 -29.5 -163.5s-46.167 -101.5 -79.5 -143.5
s-72.666 -75.833 -117.999 -101.5s-93.333 -38.5 -144 -38.5c-33.333 0 -65.333 7 -96 21s-60 36.333 -88 67l20 37c23.333 -21.333 48.5 -37.333 75.5 -48s54.5 -16 82.5 -16c36.667 0 69.667 7.33301 99 22s55 34.334 77 59.001s40.167 53 54.5 85s25.5 65 33.5 99h-309z
" />
    <glyph glyph-name="uni042E" unicode="&#x42e;" horiz-adv-x="893" 
d="M228 0l-218.002 -0.000976562l4 21c20.667 7.33301 42.667 13 66 17l128 604c-10.667 2 -21 4.33301 -31 7s-19 6 -27 10l4 21h218l-4 -21c-10 -4 -20.667 -7.33301 -32 -10s-22.666 -5 -33.999 -7l-60 -282l82 6c12.667 40.667 30.334 80.167 53.001 118.5
s49.667 72.5 81 102.5s66.333 54.167 105 72.5s80.334 27.5 125.001 27.5c36 0 67.667 -5.83301 95 -17.5s50.166 -28 68.499 -49s32.333 -46.167 42 -75.5s14.5 -61.666 14.5 -96.999c0 -33.333 -4.16699 -67.5 -12.5 -102.5s-20.5 -69.5 -36.5 -103.5s-35.5 -66 -58.5 -96
s-49 -56.333 -78 -79s-60.667 -40.667 -95 -54s-70.833 -20 -109.5 -20c-35.333 0 -66.5 5.66699 -93.5 17s-49.5 27.5 -67.5 48.5s-31.667 45.833 -41 74.5s-14 60.667 -14 96c0 15.333 0.833008 30.833 2.5 46.5s4.16699 31.5 7.5 47.5h-78l-60 -285
c10 -2 20.167 -4.5 30.5 -7.5s19.5 -6.16699 27.5 -9.5zM670.998 645.999c-30 0 -57.3311 -6.83398 -81.998 -20.501s-46.834 -31.667 -66.501 -54s-36.834 -48.166 -51.501 -77.499s-26.834 -59.5 -36.501 -90.5s-17 -61.667 -22 -92s-7.5 -58.166 -7.5 -83.499
c0 -26.667 2.66699 -51.667 8 -75s13.5 -43.5 24.5 -60.5s25.333 -30.5 43 -40.5s38.834 -15 63.501 -15c30 0 57.333 6.83301 82 20.5s46.834 32 66.501 55s36.667 49.167 51 78.5s26.166 59.666 35.499 90.999s16.333 62.5 21 93.5s7 59.167 7 84.5
c0 26 -2.33301 50.167 -7 72.5s-12.5 42 -23.5 59s-25.167 30.333 -42.5 40s-38.333 14.5 -63 14.5z" />
    <glyph glyph-name="uni042F" unicode="&#x42f;" horiz-adv-x="614" 
d="M530 0l-217.999 -0.000976562l4 21c20.667 7.33301 42.667 13 66 17l52 245h-85l-237 -283h-148l4 21c21.333 7.33301 43 13 65 17l177 211c8 9.33301 16.667 17.833 26 25.5s18.666 14.5 27.999 20.5c-38 12.667 -66.333 33.334 -85 62.001s-28 60 -28 94
c0 34.667 7.66699 66.167 23 94.5s36.166 52.5 62.499 72.5s56.833 35.333 91.5 46s71.667 16 111 16h235l-4 -21c-10 -4 -20.667 -7.33301 -32 -10s-22.666 -5 -33.999 -7l-128 -604c10 -2 20.167 -4.5 30.5 -7.5s19.5 -6.16699 27.5 -9.5zM509.001 638.999h-43
c-79.333 0 -136.666 -17.667 -171.999 -53s-53 -83 -53 -143c0 -38.667 12.667 -68.667 38 -90s62.666 -32 111.999 -32h51z" />
    <glyph glyph-name="uni0430" unicode="&#x430;" horiz-adv-x="485" 
d="M287 63c0 2.66699 0.166016 6.5 0.499023 11.5s0.833008 8.5 1.5 10.5c-12 -10.667 -25 -21.334 -39 -32.001s-28.5 -20.5 -43.5 -29.5s-30 -16.333 -45 -22s-29.167 -8.5 -42.5 -8.5c-25.333 0 -46.5 9.83301 -63.5 29.5s-25.5 53.5 -25.5 101.5
c0 42 6.5 85.5 19.5 130.5s32 86.333 57 124s56 68.5 93 92.5s79.167 36 126.5 36c24 0 48 -2.16699 72 -6.5s46.333 -10.166 67 -17.499l-90 -425h70l4 -19l-105 -46c-13.333 0 -26.166 6.33301 -38.499 19s-18.5 29.667 -18.5 51zM368.999 458l-39.499 9
c-11.667 2.66699 -22.5 4 -32.5 4c-22.667 0 -42.667 -6 -60 -18s-32.5 -27.833 -45.5 -47.5s-24 -42 -33 -67s-16.333 -50.5 -22 -76.5s-9.66699 -51.167 -12 -75.5s-3.5 -45.5 -3.5 -63.5c0 -4.66699 0.166992 -10 0.5 -16s1 -11.833 2 -17.5s2 -10.667 3 -15
s2.16699 -7.16602 3.5 -8.49902c6.66699 -3.33301 15 -5 25 -5c12 0 24.833 2.66699 38.5 8s27.167 11.666 40.5 18.999s25.666 14.833 36.999 22.5l28 19.5z" />
    <glyph glyph-name="uni0431" unicode="&#x431;" horiz-adv-x="464" 
d="M464 376c0 -27.333 -2.8291 -55.8379 -8.49609 -85.5049s-14 -58.667 -25 -87s-24.667 -55.166 -41 -80.499s-35.5 -47.666 -57.5 -66.999s-46.5 -34.666 -73.5 -45.999s-56.833 -17 -89.5 -17c-17.333 0 -33.5 2.33301 -48.5 7s-28.167 12.334 -39.5 23.001
s-20.333 24.834 -27 42.501s-10 39.5 -10 65.5c0 36 3.16699 72.833 9.5 110.5s15.166 74.334 26.499 110.001s24.5 70 39.5 103s30.833 62.667 47.5 89s34 48.666 52 66.999s35.667 31.166 53 38.499c28 9.33301 52.333 16.333 73 21s39.667 9.83398 57 15.501
s34.166 13.167 50.499 22.5s34.5 23.666 54.5 42.999l16 -12l-22 -41c-8 -14.667 -16.333 -28.5 -25 -41.5s-17.5 -24.167 -26.5 -33.5s-17.5 -15 -25.5 -17c-26 -7.33301 -48 -12 -66 -14s-35.667 -3 -53 -3c-14 0 -29.333 -7.33301 -46 -22s-32.834 -33 -48.501 -55
s-29.667 -45.333 -42 -70s-21.5 -47 -27.5 -67c14 23.333 30.5 43.333 49.5 60s39 30.334 60 41.001s42.167 18.5 63.5 23.5s41.666 7.5 60.999 7.5c25.333 0 46.5 -9.83301 63.5 -29.5s25.5 -53.5 25.5 -101.5zM341.004 437.995
c-32.667 0 -60.668 -5.66504 -84.001 -16.998s-42.833 -26.666 -58.5 -45.999s-28.167 -41.5 -37.5 -66.5s-16.5 -51.333 -21.5 -79s-8.16699 -55.5 -9.5 -83.5s-2 -54.667 -2 -80c6.66699 -8 15.667 -15.167 27 -21.5s25 -9.5 41 -9.5c22.667 0 42.834 5.83301 60.501 17.5
s33 27.167 46 46.5s24 41.166 33 65.499s16.333 49.166 22 74.499s9.66699 50 12 74s3.5 45.333 3.5 64c0 16 -1.16699 29.167 -3.5 39.5s-4.16602 16.166 -5.49902 17.499c-4.66699 2.66699 -12.334 4 -23.001 4z" />
    <glyph glyph-name="uni0432" unicode="&#x432;" horiz-adv-x="424" 
d="M390 172c0 -25.333 -7.33301 -48.8281 -22 -70.4951s-33.5 -40.5 -56.5 -56.5s-48.333 -28.667 -76 -38s-54.5 -14 -80.5 -14c-28 0 -50.333 2.66699 -67 8s-29.334 13 -38.001 23c-8 9.33301 -13.333 23.666 -16 42.999s-4 38.333 -4 57c0 24.667 2.33301 51.167 7 79.5
s11.667 56.666 21 84.999s21.333 55.666 36 81.999s32.167 49.666 52.5 69.999s43.333 36.5 69 48.5s54.5 18 86.5 18c36 0 63.667 -7.16699 83 -21.5s29 -33.833 29 -58.5c0 -10.667 -2 -22.334 -6 -35.001s-10.667 -26 -20 -40s-22.166 -28.333 -38.499 -43
s-36.5 -29 -60.5 -43c28 -4 51.833 -14.333 71.5 -31s29.5 -37.667 29.5 -63zM240 250.005c-19.333 -5.33301 -36.334 -9.83105 -51.001 -13.498s-31.334 -7.16699 -50.001 -10.5c-6 -24.667 -10.833 -50.834 -14.5 -78.501s-5.5 -60.5 -5.5 -98.5
c10 -6.66699 19.833 -11.167 29.5 -13.5s19.167 -3.5 28.5 -3.5c18 0 34.833 4 50.5 12s29.334 18.5 41.001 31.5s20.834 27.333 27.501 43s10 31.167 10 46.5c0 41.333 -22 69.666 -66 84.999zM347.999 412.007c0 19.333 -4.66406 33.167 -13.9971 41.5
s-20.666 12.5 -33.999 12.5c-20.667 0 -39.334 -7.33301 -56.001 -22s-31.334 -32.5 -44.001 -53.5s-23.5 -43.167 -32.5 -66.5s-15.833 -44 -20.5 -62c18 2.66699 38.667 7.33398 62 14.001s45.166 16 65.499 28s37.666 26.667 51.999 44s21.5 38.666 21.5 63.999z" />
    <glyph glyph-name="uni0433" unicode="&#x433;" horiz-adv-x="377" 
d="M245 304c10 6.66699 18.335 19.333 25.002 38s10 39.334 10 62.001c0 13.333 -0.666992 25 -2 35s-5 17.667 -11 23c-4.66699 2.66699 -11 4 -19 4c-10 0 -21.333 -1.66699 -34 -5s-25.167 -7.16602 -37.5 -11.499l-35.5 -13l-27 -10.5l-11 32
c19.333 12 42 23.167 68 33.5s52.667 15.5 80 15.5c16.667 0 32.5 -2 47.5 -6s28.167 -10.667 39.5 -20s20.5 -21.5 27.5 -36.5s10.5 -33.5 10.5 -55.5c0 -15.333 -2.5 -29 -7.5 -41s-11.833 -22.833 -20.5 -32.5s-18.5 -18.834 -29.5 -27.501
s-22.833 -17.334 -35.5 -26.001l-104 -72c-16.667 -11.333 -28.334 -23.833 -35.001 -37.5s-10 -28.834 -10 -45.501c0 -12.667 1.33301 -23.167 4 -31.5s5.66699 -14.166 9 -17.499c8.66699 -4.66699 19 -7 31 -7c14 0 29.333 2.66699 46 8s32.667 11.833 48 19.5
s29.666 15.334 42.999 23.001s24 14.167 32 19.5l16 -22l-43 -38c-14.667 -12.667 -30.167 -24 -46.5 -34s-33.833 -18.167 -52.5 -24.5s-39 -9.5 -61 -9.5c-17.333 0 -33.833 2 -49.5 6s-29.5 10.167 -41.5 18.5s-21.5 18.833 -28.5 31.5s-10.5 27.334 -10.5 44.001
c0 25.333 9.5 49.666 28.5 72.999s43.833 44.666 74.5 63.999z" />
    <glyph glyph-name="uni0434" unicode="&#x434;" horiz-adv-x="480" 
d="M30 149c2 36 7.99707 74.832 17.9971 116.499s25.167 80.334 45.5 116.001s46.333 65.5 78 89.5s70.167 36 115.5 36c30.667 0 57.667 -8.66699 81 -26c0 18 -1 37.5 -3 58.5s-4.83301 41 -8.5 60s-8 36 -13 51s-10.5 25.167 -16.5 30.5
c-8.66699 8 -22.5 13.333 -41.5 16s-36.5 4 -52.5 4c-15.333 0 -30.666 -1.5 -45.999 -4.5s-30 -6.16699 -44 -9.5l-7 26c26 11.333 50.833 20.166 74.5 26.499s45.5 9.5 65.5 9.5c26.667 0 51 -4 73 -12s38.667 -18.667 50 -32c6.66699 -8 13.834 -20.5 21.501 -37.5
s14.667 -37 21 -60s11.5 -48.167 15.5 -75.5s6 -55.666 6 -84.999c0 -28 -1.83301 -58.667 -5.5 -92s-9.66699 -66.833 -18 -100.5s-19.666 -66.167 -33.999 -97.5s-32 -59.166 -53 -83.499s-46 -43.833 -75 -58.5s-62.5 -22 -100.5 -22c-52 0 -89.5 14.167 -112.5 42.5
s-34.5 66.166 -34.5 113.499zM274.997 467.999c-22 0 -41.1699 -6.33105 -57.5029 -18.998s-30.333 -29.334 -42 -50.001s-21 -44.167 -28 -70.5s-12.5 -53 -16.5 -80s-6.66699 -53.167 -8 -78.5s-2 -47.333 -2 -66c0 -8.66699 0.333008 -17.5 1 -26.5
s2.33398 -15.167 5.00098 -18.5c4.66699 -5.33301 11.834 -11 21.501 -17s26.167 -9 49.5 -9c22 0 41.5 6.16699 58.5 18.5s32 28.666 45 48.999s23.833 43.333 32.5 69s15.834 51.667 21.501 78s9.66699 52 12 77s3.5 47.167 3.5 66.5c0 15.333 -0.5 26.833 -1.5 34.5
s-2.83301 13.167 -5.5 16.5c-4 5.33301 -14.667 11 -32 17s-36.333 9 -57 9z" />
    <glyph glyph-name="uni0435" unicode="&#x435;" horiz-adv-x="410" 
d="M30 124c0 38.667 5.50098 80.3359 16.501 125.003s27.667 86.167 50 124.5s51 70.166 86 95.499s76.5 38 124.5 38c15.333 0 30.333 -2.33301 45 -7s27.834 -12 39.501 -22s21 -22.667 28 -38s10.5 -33.666 10.5 -54.999c0 -8.66699 -6.16699 -19 -18.5 -31
s-30.833 -24.167 -55.5 -36.5s-55 -24.166 -91 -35.499s-77.667 -20.333 -125 -27c-6.66699 -26.667 -11.334 -51.834 -14.001 -75.501s-4 -42.5 -4 -56.5c0 -15.333 0.833008 -28.5 2.5 -39.5s3.16699 -16.833 4.5 -17.5c6 -2 12.667 -3 20 -3c14 0 30.333 3 49 9
s37 13 55 21s34.833 16.167 50.5 24.5s27.834 15.166 36.501 20.499l9 -32l-40 -27.5c-18 -12.333 -37.833 -24.833 -59.5 -37.5s-44 -23.834 -67 -33.501s-43.833 -14.5 -62.5 -14.5s-33.834 4 -45.501 12s-20.834 18.333 -27.501 31s-11.167 26.667 -13.5 42
s-3.5 30.666 -3.5 45.999zM303.001 466.002c-19.333 0 -36.999 -5.00098 -52.999 -15.001s-30.167 -23.167 -42.5 -39.5s-23.333 -35 -33 -56s-17.834 -42.5 -24.501 -64.5c18 2.66699 39.167 7 63.5 13s47.333 13.667 69 23s40.167 21 55.5 35s23 30.667 23 50
c0 14.667 -5.5 27.334 -16.5 38.001s-24.833 16 -41.5 16z" />
    <glyph glyph-name="uni0436" unicode="&#x436;" horiz-adv-x="721" 
d="M449 241h-23l-10 -48c-3.33301 -15.333 -6.5 -31.666 -9.5 -48.999s-5.66699 -34.333 -8 -51s-4.33301 -32 -6 -46s-2.5 -25.333 -2.5 -34c0 -6.66699 1 -11 3 -13h-111c2.66699 10 5.5 22 8.5 36l9.5 45.5l11 52l12 55.5l11 52h-26l-154 -198
c-14.667 -18.667 -31.334 -31.667 -50.001 -39s-35 -11 -49 -11c-16.667 0 -30.167 2.83301 -40.5 8.5s-20.166 11.834 -29.499 18.501l11 26h51l147 179c5.33301 7.33301 11.666 14 18.999 20l20 17l21 17l-54 107l-73 38l-7 83c17.333 -0.666992 31.333 -2.66699 42 -6
s19.667 -7.66602 27 -12.999c10.667 -8.66699 21.334 -23.334 32.001 -44.001s21.167 -42.5 31.5 -65.5l30 -65.5c9.66699 -20.667 19.167 -35 28.5 -43l29 -1l46 218l96 20l-50 -238l33 2c10.667 8.66699 23.334 23.167 38.001 43.5l45.5 65
c15.667 23 31.167 44.667 46.5 65s29.666 34.833 42.999 43.5c8.66699 5.33301 18.667 9.66602 30 12.999s25.666 5.33301 42.999 6l-24 -83l-81 -38l-91 -117l18 -18c6.66699 -6.66699 12.334 -14 17.001 -22l95 -183h51l6 -26c-10.667 -6.66699 -22 -12.834 -34 -18.501
s-26.333 -8.5 -43 -8.5c-14 0 -27.833 3.33301 -41.5 10s-25.5 20 -35.5 40z" />
    <glyph glyph-name="uni0437" unicode="&#x437;" horiz-adv-x="366" 
d="M28 80c11.333 -11.333 25.665 -20.667 42.998 -28s36.666 -11 57.999 -11c16.667 0 32.5 2.83301 47.5 8.5s28 13.834 39 24.501s19.667 23.5 26 38.5s9.5 31.5 9.5 49.5c0 9.33301 -1.66699 18.666 -5 27.999s-8.5 17.833 -15.5 25.5s-16 13.834 -27 18.501
s-24.5 7 -40.5 7h-50l8 39h38c38 0 67.167 12.5 87.5 37.5s30.5 55.833 30.5 92.5c0 10 -0.666992 20.167 -2 30.5s-3.66602 17.166 -6.99902 20.499s-8.5 5.83301 -15.5 7.5s-14.167 2.5 -21.5 2.5c-16 0 -28.833 -2.66699 -38.5 -8s-18 -11.166 -25 -17.499l-19 -17.5
c-5.66699 -5.33301 -12.5 -8 -20.5 -8c-4 0 -8.5 1.5 -13.5 4.5s-8.5 6.5 -10.5 10.5l10 46c16.667 7.33301 34.834 13.5 54.501 18.5s41.5 7.5 65.5 7.5c37.333 0 67.833 -8.5 91.5 -25.5s35.5 -40.5 35.5 -70.5c0 -18 -3.5 -34.667 -10.5 -50s-16.5 -29 -28.5 -41
s-25.833 -22.333 -41.5 -31s-32.167 -15.667 -49.5 -21c14 -2 27.667 -5.83301 41 -11.5s25 -13 35 -22s18 -19.667 24 -32s9 -26.5 9 -42.5c0 -24 -5.5 -46.333 -16.5 -67s-25.667 -38.334 -44 -53.001s-39.166 -26.167 -62.499 -34.5s-47.333 -12.5 -72 -12.5
c-30.667 0 -58.5 5.5 -83.5 16.5s-45.5 25.833 -61.5 44.5z" />
    <glyph glyph-name="uni0438" unicode="&#x438;" horiz-adv-x="522" 
d="M412 487l94.998 20.0039l-95 -449h70l4 -19l-105 -46c-15.333 0.666992 -28.833 7.66699 -40.5 21s-17.5 29.333 -17.5 48c0 7.33301 2 18.666 6 33.999c-10 -12.667 -22 -25.167 -36 -37.5s-29.333 -23.333 -46 -33s-34.667 -17.5 -54 -23.5s-39.666 -9 -60.999 -9
c-24.667 0 -44.5 5.5 -59.5 16.5s-22.5 30.833 -22.5 59.5l1.5 11c1 7.33301 4 23.833 9 49.5l23 113.5l43.5 205h-48l-7 26c23.333 9.33301 45 17.166 65 23.499s36.667 9.5 50 9.5c22.667 0 34 -10.667 34 -32v-6c0 -2 -0.5 -5.5 -1.5 -10.5l-4 -20.5
c-1.66699 -8.66699 -4.16699 -20.334 -7.5 -35.001c-15.333 -70 -27.166 -125.667 -35.499 -167l-19.5 -96c-4.66699 -22.667 -7.5 -38.334 -8.5 -47.001s-1.5 -15.667 -1.5 -21c0 -17.333 6.66699 -26 20 -26c8 0 20.333 3.33301 37 10s34 14.667 52 24s35 19.5 51 30.5
s27.667 20.833 35 29.5z" />
    <glyph glyph-name="uni0439" unicode="&#x439;" horiz-adv-x="523" 
d="M508 691c-25.333 -40.667 -52.002 -69.834 -80.002 -87.501s-57.333 -26.5 -88 -26.5c-17.333 0 -33.166 2.5 -47.499 7.5s-30.166 12.167 -47.499 21.5l12 57c4.66699 4 9.5 7.83301 14.5 11.5s10.5 5.5 16.5 5.5c9.33301 0 17.166 -2.5 23.499 -7.5
s12.333 -10.333 18 -16s12 -11 19 -16s16.167 -7.5 27.5 -7.5c6 0 12.833 0.5 20.5 1.5s16.334 3.83301 26.001 8.5s20.5 11.334 32.5 20.001s25.333 20.667 40 36zM411.998 487l94.998 20.0039l-95 -449h70l4 -19l-105 -46c-15.333 0.666992 -28.833 7.66699 -40.5 21
s-17.5 29.333 -17.5 48c0 7.33301 2 18.666 6 33.999c-10 -12.667 -22 -25.167 -36 -37.5s-29.333 -23.333 -46 -33s-34.667 -17.5 -54 -23.5s-39.666 -9 -60.999 -9c-24.667 0 -44.5 5.5 -59.5 16.5s-22.5 30.833 -22.5 59.5l1.5 11c1 7.33301 4 23.833 9 49.5l23 113.5
l43.5 205h-48l-7 26c23.333 9.33301 45 17.166 65 23.499s36.667 9.5 50 9.5c22.667 0 34 -10.667 34 -32v-6c0 -2 -0.5 -5.5 -1.5 -10.5l-4 -20.5c-1.66699 -8.66699 -4.16699 -20.334 -7.5 -35.001c-15.333 -70 -27.166 -125.667 -35.499 -167l-19.5 -96
c-4.66699 -22.667 -7.5 -38.334 -8.5 -47.001s-1.5 -15.667 -1.5 -21c0 -17.333 6.66699 -26 20 -26c8 0 20.333 3.33301 37 10s34 14.667 52 24s35 19.5 51 30.5s27.667 20.833 35 29.5z" />
    <glyph glyph-name="uni043A" unicode="&#x43a;" horiz-adv-x="481" 
d="M174 193c-3.33301 -15.333 -6.49512 -31.6641 -9.49512 -48.9971s-5.66699 -34.333 -8 -51s-4.33301 -32 -6 -46s-2.5 -25.333 -2.5 -34c0 -6.66699 1 -11 3 -13h-111c2.66699 10 5.5 22 8.5 36l9.5 45.5l11 52l12 55.5l55 259h-48l-6 26
c23.333 9.33301 44.666 17.166 63.999 23.499s35.666 9.5 48.999 9.5c11.333 0 20.166 -2.5 26.499 -7.5s9.5 -13.167 9.5 -24.5v-5c0 -2 -0.5 -5.5 -1.5 -10.5l-4 -21c-1.66699 -9 -4.16699 -20.833 -7.5 -35.5l-28 -134l38 2c11.333 8.66699 24.333 23.167 39 43.5l46 65
l47 65c15.333 20.333 29.666 34.833 42.999 43.5c8.66699 5.33301 18.667 9.66602 30 12.999s25.666 5.33301 42.999 6l-24 -83l-81 -38l-93 -117c6 -5.33301 12.167 -11.333 18.5 -18s11.833 -14 16.5 -22l98 -183h51l6 -26c-10.667 -6.66699 -22 -12.834 -34 -18.501
s-26.333 -8.5 -43 -8.5c-14 0 -27.667 3.16699 -41 9.5s-25.333 19.833 -36 40.5l-102 198h-28z" />
    <glyph glyph-name="uni043B" unicode="&#x43b;" horiz-adv-x="454" 
d="M355 507l5.00098 -448.998h70l4 -19l-106 -46c-17.333 1.33301 -31.333 9.16602 -42 23.499s-16 30.5 -16 48.5l-1 380l-73.5 -142.5l-45.5 -92c-11.333 -23.667 -19.333 -41.834 -24 -54.501s-7.33398 -22.334 -8.00098 -29.001l-5 -103l-82 -31
c-2.66699 10.667 -4 23.334 -4 38.001c0 18.667 3 38.834 9 60.501s13.667 43.167 23 64.5s19.333 42.166 30 62.499s21 38.833 31 55.5l123 209z" />
    <glyph glyph-name="uni043C" unicode="&#x43c;" horiz-adv-x="681" 
d="M317 507l17 -379.997l126 356l108 24l15 -449h74l4 -19l-106 -46c-17.333 1.33301 -31.166 9.16602 -41.499 23.499s-15.833 30.5 -16.5 48.5l-10 366l-140 -406l-87 -33l-19 451l-63.5 -145.5c-15.667 -37.667 -27.834 -68 -36.501 -91s-14.5 -40.333 -17.5 -52
s-4.83301 -20.834 -5.5 -27.501l-5 -103l-82 -31c-2.66699 10.667 -4 23.334 -4 38.001c0 18.667 3 38.667 9 60s13.333 42.666 22 63.999s18 42.166 28 62.499l28 56.5l101 209z" />
    <glyph glyph-name="uni043D" unicode="&#x43d;" horiz-adv-x="530" 
d="M515 507l-94.998 -448.999h70l4 -19l-105 -46c-15.333 0.666992 -28.666 7.5 -39.999 20.5s-17.333 29.167 -18 48.5c0 4 0.666992 9.33301 2 16l39 181c-27.333 -0.666992 -57.333 -3.16699 -90 -7.5s-66 -10.166 -100 -17.499l-8 -41
c-3.33301 -15.333 -6.5 -31.666 -9.5 -48.999s-5.66699 -34.333 -8 -51s-4.33301 -32 -6 -46s-2.5 -25.333 -2.5 -34c0 -6.66699 1 -11 3 -13h-111c2.66699 10 5.5 22 8.5 36l9.5 45.5l11 52l12 55.5l55 259h-48l-6 26c23.333 9.33301 44.666 17.166 63.999 23.499
s35.666 9.5 48.999 9.5c11.333 0 20.166 -2.5 26.499 -7.5s9.5 -13.167 9.5 -24.5v-5c0 -2 -0.5 -5.5 -1.5 -10.5l-4 -21c-1.66699 -9 -4.16699 -20.833 -7.5 -35.5l-28 -132c28.667 7.33301 59 14.166 91 20.499s65.667 11.166 101 14.499l39 181z" />
    <glyph glyph-name="uni043E" unicode="&#x43e;" horiz-adv-x="461" 
d="M30 149c1.33301 42.667 7.50195 85.3311 18.502 127.998s27.5 81 49.5 115s49.5 61.667 82.5 83s72.5 32 118.5 32c28 0 51.667 -3.83301 71 -11.5s34.666 -18.667 45.999 -33s19.5 -31.833 24.5 -52.5s7.5 -44 7.5 -70c0 -39.333 -5.5 -79.666 -16.5 -120.999
s-27.833 -78.666 -50.5 -111.999s-50.834 -60.666 -84.501 -81.999s-73.5 -32 -119.5 -32c-52 0 -89.5 14.167 -112.5 42.5s-34.5 66.166 -34.5 113.499zM275.002 471.997c-22 0 -41.165 -6.5 -57.498 -19.5s-30.333 -30 -42 -51s-21 -44.667 -28 -71
s-12.5 -53.166 -16.5 -80.499s-6.66699 -53.833 -8 -79.5s-2 -47.834 -2 -66.501c0 -8.66699 0.333008 -17.5 1 -26.5s2.33398 -15.167 5.00098 -18.5c4.66699 -5.33301 11.834 -11 21.501 -17s26.167 -9 49.5 -9s43.666 6.33301 60.999 19s32 29.167 44 49.5
s21.667 43.5 29 69.5s13.166 52.5 17.499 79.5s7.16602 53 8.49902 78s2 47.167 2 66.5c0 15.333 -0.5 26.833 -1.5 34.5s-2.83301 13.167 -5.5 16.5c-4 5.33301 -12.833 11 -26.5 17s-30.834 9 -51.501 9z" />
    <glyph glyph-name="uni043F" unicode="&#x43f;" horiz-adv-x="520" 
d="M333 78l39.002 182.502l21 101c4.66699 23 7.5 38.167 8.5 45.5s1.5 13 1.5 17c0 20 -7 30 -21 30c-8 0 -20.167 -3.33301 -36.5 -10s-33.5 -14.834 -51.5 -24.501s-35 -20 -51 -31s-27.333 -20.833 -34 -29.5l-35 -166c-3.33301 -15.333 -6.5 -31.666 -9.5 -48.999
s-5.66699 -34.333 -8 -51s-4.33301 -32 -6 -46s-2.5 -25.333 -2.5 -34c0 -6.66699 1 -11 3 -13h-111c2.66699 10 5.5 22 8.5 36l9.5 45.5l11 52l12 55.5l55 259h-48l-6 26c23.333 9.33301 44.666 17.166 63.999 23.499s35.666 9.5 48.999 9.5c11.333 0 20.333 -2.5 27 -7.5
s10 -13.167 10 -24.5c0 -1.33301 -0.166992 -3 -0.5 -5s-1 -5.5 -2 -10.5s-2.5 -12 -4.5 -21s-4.33301 -20.833 -7 -35.5c10 12.667 21.833 25.167 35.5 37.5s28.667 23.5 45 33.5s34.166 18 53.499 24s39.666 9 60.999 9c24.667 0 44.5 -5.5 59.5 -16.5
s22.5 -30.833 22.5 -59.5l-0.5 -4c-0.333008 -2.66699 -1.16602 -8.16699 -2.49902 -16.5s-3.66602 -20.5 -6.99902 -36.5l-13 -65.5c-5.33301 -27.667 -12.333 -62 -21 -103l-31 -147.5h70l4 -19l-105 -46c-17.333 1.33301 -31.333 9.16602 -42 23.499s-16 29.833 -16 46.5
c0 3.33301 0.666992 8.33301 2 15z" />
    <glyph glyph-name="uni0440" unicode="&#x440;" horiz-adv-x="494" 
d="M81 474c23.333 9.33301 44.5 17.166 63.5 23.499s35.167 9.5 48.5 9.5c11.333 0 20.5 -2.5 27.5 -7.5s10.5 -13.5 10.5 -25.5c0 -2.66699 -0.166992 -5.5 -0.5 -8.5s-0.833008 -6.16699 -1.5 -9.5l-9 -43c12.667 12 27.334 23.5 44.001 34.5s33.5 21 50.5 30
s33.333 16.167 49 21.5s29.5 8 41.5 8c25.333 0 46.5 -9.83301 63.5 -29.5s25.5 -53.5 25.5 -101.5c0 -43.333 -6.33301 -87.5 -19 -132.5s-31.834 -86.167 -57.501 -123.5s-57.667 -67.833 -96 -91.5s-82.833 -35.5 -133.5 -35.5c-17.333 0 -35.666 2.66699 -54.999 8
l-18 -87c-3.33301 -15.333 -6.5 -31.666 -9.5 -48.999s-5.66699 -34.333 -8 -51s-4.33301 -32.167 -6 -46.5s-2.5 -25.833 -2.5 -34.5c0 -6.66699 0.333008 -11 1 -13h-110c2.66699 9.33301 5.66699 20.833 9 34.5s6.66602 28.5 9.99902 44.5l138 649h-50zM146 56
c4.66699 -3.33301 10.5029 -6.49902 17.5029 -9.49902s14.333 -5.83301 22 -8.5s15 -4.66699 22 -6s13.167 -2 18.5 -2c22.667 0 42.667 6 60 18s32.666 27.833 45.999 47.5s24.5 42 33.5 67s16.333 50.333 22 76s9.66699 50.5 12 74.5s3.5 45.333 3.5 64
c0 11.333 -0.833008 22.666 -2.5 33.999s-3.83398 19 -6.50098 23c-5.33301 3.33301 -13 5 -23 5c-13.333 0 -28.333 -2.83301 -45 -8.5s-32.834 -12.167 -48.501 -19.5s-29.5 -15 -41.5 -23s-20 -14 -24 -18z" />
    <glyph glyph-name="uni0441" unicode="&#x441;" horiz-adv-x="398" 
d="M30 124c0 42.667 5.67188 86.6719 17.0049 132.005s28.5 86.5 51.5 123.5s52.167 67.5 87.5 91.5s77.666 36 126.999 36c16.667 0 35 -1.5 55 -4.5s40 -7.83301 60 -14.5l-16 -78c-4 -4 -9.33301 -7.5 -16 -10.5s-12 -4.5 -16 -4.5c-8.66699 0 -14.667 3.66699 -18 11
s-7.33301 15.5 -12 24.5s-11.834 17.167 -21.501 24.5s-24.834 11 -45.501 11c-16 0 -31.167 -6.16699 -45.5 -18.5s-27.333 -28.333 -39 -48s-22.334 -42 -32.001 -67s-17.667 -50.167 -24 -75.5s-11.333 -49.833 -15 -73.5s-5.5 -43.834 -5.5 -60.501
c0 -6 0.166992 -12.167 0.5 -18.5s0.833008 -12.333 1.5 -18s1.33398 -10.334 2.00098 -14.001s1.66699 -5.83398 3 -6.50098c6 -2 13 -3 21 -3c14 0 30 3 48 9s36 13 54 21s34.833 16.167 50.5 24.5l37.5 20.5l9 -32l-40 -27.5c-18 -12.333 -37.833 -24.833 -59.5 -37.5
s-44 -23.834 -67 -33.501s-43.833 -14.5 -62.5 -14.5s-33.834 4 -45.501 12s-20.834 18.333 -27.501 31s-11.167 26.667 -13.5 42s-3.5 30.666 -3.5 45.999z" />
    <glyph glyph-name="uni0442" unicode="&#x442;" horiz-adv-x="787" 
d="M220 408c10.667 12 22.667 23.834 36 35.501s28 22.167 44 31.5s33 17 51 23s37 9 57 9c24.667 0 44.5 -5.5 59.5 -16.5s22.5 -30.5 22.5 -58.5c0 -0.666992 -0.333008 -3.83398 -1 -9.50098s-1.33398 -10.5 -2.00098 -14.5c10 12 21.833 23.833 35.5 35.5
s28.834 22.334 45.501 32.001s34.334 17.334 53.001 23.001s38.334 8.5 59.001 8.5c24.667 0 44.5 -5.5 59.5 -16.5s22.5 -30.833 22.5 -59.5l-0.5 -4c-0.333008 -2.66699 -1.16602 -8.16699 -2.49902 -16.5s-3.66602 -20.5 -6.99902 -36.5l-13 -65.5
c-5.33301 -27.667 -12.333 -62 -21 -103l-31 -147.5h70l4 -19l-105 -46c-17.333 1.33301 -31.333 9.16602 -42 23.499s-16 29.833 -16 46.5c0 3.33301 0.666992 8.33301 2 15l39 182.5l21 101c4.66699 23 7.5 38.167 8.5 45.5s1.5 13 1.5 17c0 20 -7 30 -21 30
c-7.33301 0 -18.5 -2.83301 -33.5 -8.5s-31 -12.834 -48 -21.501s-33.333 -18 -49 -28s-28.167 -19.333 -37.5 -28l-37 -175c-3.33301 -15.333 -6.5 -31.666 -9.5 -48.999s-5.66699 -34.333 -8 -51s-4.33301 -32 -6 -46s-2.5 -25.333 -2.5 -34
c0 -6.66699 0.666992 -11 2 -13h-111l42 187l26.5 119.5c6.33301 29.667 11 52.5 14 68.5s4.83301 27.167 5.5 33.5s1 11.5 1 15.5c0 20 -7 30 -21 30c-7.33301 0 -18.333 -2.83301 -33 -8.5s-30.167 -12.834 -46.5 -21.501s-32.333 -18 -48 -28s-28.167 -19.333 -37.5 -28
l-37 -175c-3.33301 -15.333 -6.5 -31.666 -9.5 -48.999s-5.66699 -34.333 -8 -51s-4.33301 -32 -6 -46s-2.5 -25.333 -2.5 -34c0 -6.66699 0.666992 -11 2 -13h-111c2.66699 10 5.66699 22 9 36s6.66602 29.167 9.99902 45.5l11 52l12 55.5l55 259h-48l-6 26
c23.333 9.33301 44.666 17.166 63.999 23.499s35.666 9.5 48.999 9.5c11.333 0 20.333 -2.5 27 -7.5s10 -13.167 10 -24.5c0 -1.33301 -0.166992 -3 -0.5 -5s-1 -5.33301 -2 -10l-4 -19c-1.66699 -8 -3.83398 -19 -6.50098 -33z" />
    <glyph glyph-name="uni0443" unicode="&#x443;" horiz-adv-x="430" 
d="M88 448l-49.9971 -0.00292969l-6 26c23.333 9.33301 44.166 17.166 62.499 23.499s34.166 9.5 47.499 9.5c20 0 31 -8 33 -24l48 -367l2 -42h2l5 18l114 281l-11 106l73 28c6 -7.33301 10.167 -15.5 12.5 -24.5s3.5 -18.167 3.5 -27.5
c0 -16.667 -2.33301 -33.167 -7 -49.5s-10.667 -32.166 -18 -47.499l-196 -445c-14 -31.333 -27.167 -58.166 -39.5 -80.499s-24 -41.166 -35 -56.499s-21 -27.5 -30 -36.5s-16.833 -15.5 -23.5 -19.5l-45 85c13.333 10 26 20.333 38 31l30.5 28.5
c10.333 9.66699 18.166 18.834 23.499 27.501l72 108h-41z" />
    <glyph glyph-name="uni0444" unicode="&#x444;" horiz-adv-x="622" 
d="M418 507c56.667 -1.33301 102.001 -16.499 136.001 -45.499s51 -69.5 51 -121.5c0 -39.333 -5.66699 -79.333 -17 -120s-29 -77.667 -53 -111s-54.667 -60.833 -92 -82.5s-82 -32.834 -134 -33.501l-17 -80c-3.33301 -15.333 -6.33301 -31.666 -9 -48.999l-8 -51
c-2.66699 -16.667 -4.66699 -32 -6 -46s-2 -25.333 -2 -34c0 -6.66699 1 -11 3 -13h-113l7.5 36l10 45.5c3.66699 16.333 7.33398 33.666 11.001 51.999l11.5 55.5l18 84c-24 0.666992 -47.167 5 -69.5 13s-42 19 -59 33s-30.667 30.333 -41 49s-15.5 39 -15.5 61
c0 40 5.16699 80.667 15.5 122s27.166 79 50.499 113s53.666 62.167 90.999 84.5s83 34.833 137 37.5l39 185h-48l-5 26l160 33zM508.001 446.001c-3.33301 5.33301 -14.0029 11.001 -32.0029 17.001s-39.667 9 -65 9l-94 -439h8c28.667 0 53.334 6.33301 74.001 19
s38.167 29.167 52.5 49.5s25.833 43.5 34.5 69.5s15.334 52.5 20.001 79.5s7.83398 53 9.50098 78s2.5 47.167 2.5 66.5c0 15.333 -0.833008 26.666 -2.5 33.999s-4.16699 13 -7.5 17zM129.998 64.002c2 -3.33301 6.49707 -6.50098 13.4971 -9.50098s15 -5.83301 24 -8.5
s18.5 -5.16699 28.5 -7.5s19 -4.16602 27 -5.49902l93 438c-28 -2.66699 -52.167 -11 -72.5 -25s-37.666 -31.5 -51.999 -52.5s-26.166 -44.5 -35.499 -70.5s-16.5 -52 -21.5 -78s-8.5 -51.167 -10.5 -75.5s-3 -45.5 -3 -63.5c0 -8.66699 0.833008 -17 2.5 -25
s3.83398 -13.667 6.50098 -17z" />
    <glyph glyph-name="uni0445" unicode="&#x445;" horiz-adv-x="445" 
d="M212 191l-73.002 -111.002l-32 -80h-77l-10 23l173 217l-78 208h-51l-6 26c23.333 9.33301 43.833 17.166 61.5 23.499s33.167 9.5 46.5 9.5c9.33301 0 16.166 -2 20.499 -6s8.16602 -10 11.499 -18l66 -176l81 93l-8 84l64 23c6 -5.33301 10.167 -11.166 12.5 -17.499
s3.5 -13.166 3.5 -20.499c0 -16 -5.16699 -33.167 -15.5 -51.5s-22.666 -36.833 -36.999 -55.5s-29.333 -36.5 -45 -53.5s-28.834 -32.167 -39.501 -45.5l80 -211h51l6 -26c-23.333 -9.33301 -43.666 -17.166 -60.999 -23.499s-32.666 -9.5 -45.999 -9.5
c-9.33301 0 -16.166 2 -20.499 6s-8.16602 10 -11.499 18z" />
    <glyph glyph-name="uni0446" unicode="&#x446;" horiz-adv-x="541" 
d="M380 -7c-15.333 0.666992 -28.8359 7.66992 -40.5029 21.0029s-17.5 29.333 -17.5 48c0 7.33301 2 18.666 6 33.999c-10 -12.667 -22 -25.167 -36 -37.5s-29.167 -23.333 -45.5 -33s-34.166 -17.5 -53.499 -23.5s-39.666 -9 -60.999 -9c-24.667 0 -44.5 5.5 -59.5 16.5
s-22.5 30.833 -22.5 59.5l1.5 11c1 7.33301 4 23.833 9 49.5l23 113.5l43.5 205h-48l-7 26c23.333 9.33301 45 17.166 65 23.499s36.667 9.5 50 9.5c22.667 0 34 -10.667 34 -32v-6c0 -2 -0.5 -5.5 -1.5 -10.5l-4 -20.5c-1.66699 -8.66699 -4.16699 -20.334 -7.5 -35.001
c-15.333 -70 -27.166 -125.667 -35.499 -167l-19.5 -96c-4.66699 -22.667 -7.5 -38.334 -8.5 -47.001s-1.5 -15.667 -1.5 -21c0 -17.333 6.66699 -26 20 -26c8 0 20.167 3.33301 36.5 10s33.5 14.667 51.5 24s35 19.5 51 30.5s27.667 20.833 35 29.5l74 347l95 20l-95 -449
h105l-40 -189h-31c-4.66699 10 -8.16699 24.167 -10.5 42.5s-3.5 36.833 -3.5 55.5c0 9.33301 0.333008 18.333 1 27s1.66699 16.334 3 23.001z" />
    <glyph glyph-name="uni0447" unicode="&#x447;" horiz-adv-x="459" 
d="M444 507l-94.999 -448.997h70l4 -19l-105 -46c-15.333 0.666992 -28.666 7.5 -39.999 20.5s-17.333 29.167 -18 48.5c0 4 0.666992 9.33301 2 16l32 150c-23.333 -18 -49 -33.333 -77 -46s-53.667 -19 -77 -19c-22.667 0 -42.667 4.83301 -60 14.5s-26 25.5 -26 47.5
c0 0.666992 0.166992 2.66699 0.5 6s2 12.166 5 26.499l14 66l26.5 124.5h-48l-7 26c23.333 9.33301 45.166 17.166 65.499 23.499s37.166 9.5 50.499 9.5c22.667 0 34 -10.667 34 -32v-6c0 -2 -0.5 -5.5 -1.5 -10.5l-4 -20.5
c-1.66699 -8.66699 -4.16699 -20.334 -7.5 -35.001l-35 -167c0 -17.333 6.66699 -26 20 -26c12.667 0 31.5 4.5 56.5 13.5s51.5 24.167 79.5 45.5l46 218z" />
    <glyph glyph-name="uni0448" unicode="&#x448;" horiz-adv-x="758" 
d="M647 487l94.998 20.0039l-95 -449h70l4 -19l-105 -46c-15.333 0 -28.833 6.83301 -40.5 20.5s-17.5 29.834 -17.5 48.501c0 7.33301 2 18.666 6 33.999c-10 -12.667 -20.833 -25.167 -32.5 -37.5s-24.667 -23.333 -39 -33s-30 -17.5 -47 -23.5s-36.167 -9 -57.5 -9
c-24.667 0 -44.5 5.5 -59.5 16.5s-22.5 30.833 -22.5 59.5l6 27c-10 -12.667 -21.167 -25.167 -33.5 -37.5s-25.666 -23.333 -39.999 -33s-30.333 -17.5 -48 -23.5s-37.167 -9 -58.5 -9c-24.667 0 -44.5 5.5 -59.5 16.5s-22.5 30.833 -22.5 59.5l1.5 11
c1 7.33301 4 23.833 9 49.5l23 113.5l43.5 205h-48l-7 26c23.333 9.33301 45 17.166 65 23.499s36.667 9.5 50 9.5c22.667 0 34 -10.667 34 -32v-6c0 -2 -0.5 -5.5 -1.5 -10.5l-4 -20.5c-1.66699 -8.66699 -4.16699 -20.334 -7.5 -35.001
c-15.333 -70 -27.166 -125.667 -35.499 -167l-19.5 -96c-4.66699 -22.667 -7.5 -38.334 -8.5 -47.001s-1.5 -15.667 -1.5 -21c0 -17.333 6.66699 -26 20 -26c8 0 19.333 3.16699 34 9.5s30 14.166 46 23.499s31.167 19.333 45.5 30s25.166 20.667 32.499 30l74 348l95 20
l-37 -173l-29 -135l-18.5 -90c-4.33301 -22 -6.5 -34.333 -6.5 -37c0 -17.333 6.66699 -26 20 -26c8 0 19.167 3.33301 33.5 10s29.333 14.667 45 24s30.334 19.5 44.001 30.5s24.167 20.833 31.5 29.5z" />
    <glyph glyph-name="uni0449" unicode="&#x449;" horiz-adv-x="777" 
d="M616 -7c-15.333 0 -28.835 6.83594 -40.502 20.5029s-17.5 29.834 -17.5 48.501c0 7.33301 2 18.666 6 33.999c-10 -12.667 -20.833 -25.167 -32.5 -37.5s-24.667 -23.333 -39 -33s-30 -17.5 -47 -23.5s-36.167 -9 -57.5 -9c-24.667 0 -44.5 5.5 -59.5 16.5
s-22.5 30.833 -22.5 59.5l6 27c-10 -12.667 -21.167 -25.167 -33.5 -37.5s-25.666 -23.333 -39.999 -33s-30.333 -17.5 -48 -23.5s-37.167 -9 -58.5 -9c-24.667 0 -44.5 5.5 -59.5 16.5s-22.5 30.833 -22.5 59.5l1.5 11c1 7.33301 4 23.833 9 49.5l23 113.5l43.5 205h-48
l-7 26c23.333 9.33301 45 17.166 65 23.499s36.667 9.5 50 9.5c22.667 0 34 -10.667 34 -32v-6c0 -2 -0.5 -5.5 -1.5 -10.5l-4 -20.5c-1.66699 -8.66699 -4.16699 -20.334 -7.5 -35.001c-15.333 -70 -27.166 -125.667 -35.499 -167l-19.5 -96
c-4.66699 -22.667 -7.5 -38.334 -8.5 -47.001s-1.5 -15.667 -1.5 -21c0 -17.333 6.66699 -26 20 -26c8 0 19.333 3.16699 34 9.5s30 14.166 46 23.499s31.167 19.333 45.5 30s25.166 20.667 32.499 30l74 348l95 20l-37 -173l-29 -135l-18.5 -90
c-4.33301 -22 -6.5 -34.333 -6.5 -37c0 -17.333 6.66699 -26 20 -26c8 0 19.167 3.33301 33.5 10s29.333 14.667 45 24s30.334 19.5 44.001 30.5s24.167 20.833 31.5 29.5l74 347l95 20l-95 -449h105l-40 -189h-31c-4.66699 10 -8.16699 24.167 -10.5 42.5
s-3.5 36.833 -3.5 55.5c0 9.33301 0.333008 18.333 1 27s1.66699 16.334 3 23.001z" />
    <glyph glyph-name="uni044A" unicode="&#x44a;" horiz-adv-x="478" 
d="M45 409c0 14 1.50098 29.002 4.50098 45.002s7.83301 30.333 14.5 43c21.333 2.66699 43.333 5 66 7s45.667 3 69 3c25.333 0 51 -1.66699 77 -5s52.333 -8.66602 79 -15.999c-12.667 -10 -26.167 -21.833 -40.5 -35.5s-28 -28.834 -41 -45.501
s-24.167 -34.5 -33.5 -53.5s-15.333 -38.833 -18 -59.5c61.333 37.333 111.666 56 150.999 56c28 0 49.167 -9.5 63.5 -28.5s21.5 -50.833 21.5 -95.5c0 -33.333 -7.33301 -64.166 -22 -92.499s-33.5 -52.666 -56.5 -72.999s-48.333 -36.333 -76 -48
s-54.5 -17.5 -80.5 -17.5c-28 0 -50.333 2.66699 -67 8s-29.334 13 -38.001 23c-8 9.33301 -13.333 23.666 -16 42.999s-4 38.333 -4 57c0 29.333 4 59.166 12 89.499s19 59.666 33 87.999s31 55.333 51 81s42 48.5 66 68.5h-10c-25.333 0 -49.166 -2.33301 -71.499 -7
s-42.166 -10 -59.499 -16s-32.333 -11.833 -45 -17.5s-22.334 -9.83398 -29.001 -12.501v11zM368.001 295.002c-2.66699 2.66699 -7.16895 4.50195 -13.502 5.50195s-11.166 1.5 -14.499 1.5c-10.667 0 -22.5 -2 -35.5 -6s-25.667 -8.83301 -38 -14.5
s-23.333 -11.334 -33 -17.001s-16.5 -10.167 -20.5 -13.5c-6 -24.667 -11.833 -55 -17.5 -91s-8.5 -73 -8.5 -111c10 -6.66699 19.833 -11.167 29.5 -13.5s19.167 -3.5 28.5 -3.5c20 0 38.5 5.16699 55.5 15.5s31.833 24 44.5 41s22.667 36.667 30 59s11 45.166 11 68.499
c0 18.667 -1.66699 35 -5 49s-7.66602 24 -12.999 30z" />
    <glyph glyph-name="uni044B" unicode="&#x44b;" horiz-adv-x="625" 
d="M173 292c61.333 37.333 111.671 55.998 151.004 55.998c28 0 49.167 -9.5 63.5 -28.5s21.5 -50.833 21.5 -95.5c0 -33.333 -7.33301 -64.166 -22 -92.499s-33.5 -52.666 -56.5 -72.999s-48.333 -36.333 -76 -48s-54.5 -17.5 -80.5 -17.5c-28 0 -50.333 2.66699 -67 8
s-29.334 13 -38.001 23c-7.33301 9.33301 -12.333 21 -15 35s-4 27.667 -4 41c0 12 1 26.667 3 44s5.5 39.333 10.5 66s11.5 59.334 19.5 98.001l30 140h-48l-6 26c23.333 9.33301 44.666 17.166 63.999 23.499s35.666 9.5 48.999 9.5c11.333 0 20.166 -2.5 26.499 -7.5
s9.5 -13.167 9.5 -24.5v-5c0 -2 -0.5 -5.5 -1.5 -10.5l-4 -21c-1.66699 -9 -4.16699 -20.833 -7.5 -35.5zM319.005 294.998c-2.66699 2.66699 -7.16895 4.50195 -13.502 5.50195s-11.166 1.5 -14.499 1.5c-10.667 0 -22.5 -2 -35.5 -6s-25.667 -8.83301 -38 -14.5
s-23.333 -11.334 -33 -17.001s-16.5 -10.167 -20.5 -13.5c-6 -24.667 -11.833 -55 -17.5 -91s-8.5 -73 -8.5 -111c10 -6.66699 19.833 -11.167 29.5 -13.5s19.167 -3.5 28.5 -3.5c20 0 38.5 5.16699 55.5 15.5s31.833 24 44.5 41s22.667 36.667 30 59s11 45.166 11 68.499
c0 18.667 -1.66699 35 -5 49s-7.66602 24 -12.999 30zM610.003 507l-95.001 -449h70l4 -19l-105 -46c-15.333 0.666992 -28.666 7.5 -39.999 20.5s-17.333 29.167 -18 48.5c0 4 0.666992 9.33301 2 16l88 409z" />
    <glyph glyph-name="uni044C" unicode="&#x44c;" horiz-adv-x="429" 
d="M173 292c61.333 37.333 111.671 55.998 151.004 55.998c28 0 49.167 -9.5 63.5 -28.5s21.5 -50.833 21.5 -95.5c0 -33.333 -7.33301 -64.166 -22 -92.499s-33.5 -52.666 -56.5 -72.999s-48.333 -36.333 -76 -48s-54.5 -17.5 -80.5 -17.5c-28 0 -50.333 2.66699 -67 8
s-29.334 13 -38.001 23c-7.33301 9.33301 -12.333 21 -15 35s-4 27.667 -4 41c0 12 1 26.667 3 44s5.5 39.333 10.5 66s11.5 59.334 19.5 98.001l30 140h-48l-6 26c23.333 9.33301 44.666 17.166 63.999 23.499s35.666 9.5 48.999 9.5c11.333 0 20.166 -2.5 26.499 -7.5
s9.5 -13.167 9.5 -24.5v-5c0 -2 -0.5 -5.5 -1.5 -10.5l-4 -21c-1.66699 -9 -4.16699 -20.833 -7.5 -35.5zM319.005 294.998c-2.66699 2.66699 -7.16895 4.50195 -13.502 5.50195s-11.166 1.5 -14.499 1.5c-10.667 0 -22.5 -2 -35.5 -6s-25.667 -8.83301 -38 -14.5
s-23.333 -11.334 -33 -17.001s-16.5 -10.167 -20.5 -13.5c-6 -24.667 -11.833 -55 -17.5 -91s-8.5 -73 -8.5 -111c10 -6.66699 19.833 -11.167 29.5 -13.5s19.167 -3.5 28.5 -3.5c20 0 38.5 5.16699 55.5 15.5s31.833 24 44.5 41s22.667 36.667 30 59s11 45.166 11 68.499
c0 18.667 -1.66699 35 -5 49s-7.66602 24 -12.999 30z" />
    <glyph glyph-name="uni044D" unicode="&#x44d;" horiz-adv-x="416" 
d="M24 84c18.667 -16.667 36.666 -28.1689 53.999 -34.502s35.666 -9.5 54.999 -9.5c20 0 39.5 4.16699 58.5 12.5s36.167 20.833 51.5 37.5s28.333 37 39 61s18.334 52 23.001 84h-201l10 47l196 -11c0.666992 4 1.5 10.667 2.5 20s1.83301 20 2.5 32l2 37
c0.666992 12.667 1 24.334 1 35.001v10.5c0 5 -0.333008 10.333 -1 16s-1.5 10.834 -2.5 15.501s-2.5 8 -4.5 10c-4 4 -12.167 9 -24.5 15s-26.833 9 -43.5 9c-19.333 0 -35.166 -4 -47.499 -12s-23 -16.667 -32 -26s-17 -18 -24 -26s-14.833 -12 -23.5 -12
c-4 0 -8.5 1.5 -13.5 4.5s-8.5 6.5 -10.5 10.5l16 78c27.333 5.33301 53.333 9.83301 78 13.5s47.667 5.5 69 5.5c22.667 0 43.334 -2.66699 62.001 -8s34.667 -14.333 48 -27s23.666 -29.667 30.999 -51s11 -48 11 -80c0 -38 -5.5 -77.5 -16.5 -118.5
s-27.5 -78.5 -49.5 -112.5s-49.5 -62 -82.5 -84s-71.833 -33 -116.5 -33c-25.333 0 -48 4.83301 -68 14.5s-41.333 26.167 -64 49.5z" />
    <glyph glyph-name="uni044E" unicode="&#x44e;" horiz-adv-x="682" 
d="M190 271c25.333 7.33301 51.6748 13.3301 79.0078 17.9971c8.66699 30 20.334 58.167 35.001 84.5s32.167 49.333 52.5 69s43.666 35.334 69.999 47.001s56.166 17.5 89.499 17.5c28 0 51.667 -3.83301 71 -11.5s34.666 -18.667 45.999 -33s19.5 -31.833 24.5 -52.5
s7.5 -44 7.5 -70c0 -39.333 -5.5 -79.666 -16.5 -120.999s-27.833 -78.666 -50.5 -111.999s-50.834 -60.666 -84.501 -81.999s-73.5 -32 -119.5 -32c-52 0 -89.5 14.167 -112.5 42.5s-34.5 66.166 -34.5 113.499c0 16.667 1.16699 33.167 3.5 49.5
s5.16602 32.833 8.49902 49.5c-12.667 -2 -25.334 -4.16699 -38.001 -6.5l-39 -7.5l-8 -41c-3.33301 -15.333 -6.5 -31.666 -9.5 -48.999s-5.66699 -34.333 -8 -51s-4.33301 -32 -6 -46s-2.5 -25.333 -2.5 -34c0 -6.66699 1 -11 3 -13h-111c2.66699 10 5.5 22 8.5 36
l9.5 45.5l11 52l12 55.5l55 259h-48l-6 26c23.333 9.33301 44.666 17.166 63.999 23.499s35.666 9.5 48.999 9.5c11.333 0 20.166 -2.5 26.499 -7.5s9.5 -13.167 9.5 -24.5v-5c0 -2 -0.5 -5.5 -1.5 -10.5l-4 -21c-1.66699 -9 -4.16699 -20.833 -7.5 -35.5zM492.009 471.997
c-22.667 0 -41.998 -6.5 -57.998 -19.5s-29.833 -30 -41.5 -51s-21 -44.667 -28 -71s-12.5 -53.166 -16.5 -80.499s-6.66699 -53.833 -8 -79.5s-2 -47.834 -2 -66.501c0 -8.66699 0.333008 -17.5 1 -26.5s2.33398 -15.167 5.00098 -18.5
c4.66699 -5.33301 11.834 -11 21.501 -17s26.167 -9 49.5 -9s43.666 6.33301 60.999 19s32 29.167 44 49.5s21.667 43.5 29 69.5s13.166 52.5 17.499 79.5s7.16602 53 8.49902 78s2 47.167 2 66.5c0 15.333 -0.5 26.833 -1.5 34.5s-2.83301 13.167 -5.5 16.5
c-4 5.33301 -12.833 11 -26.5 17s-30.834 9 -51.501 9z" />
    <glyph glyph-name="uni044F" unicode="&#x44f;" horiz-adv-x="484" 
d="M374 463c-20.667 6.66699 -39.998 10 -57.998 10c-17.333 0 -33.333 -3.66699 -48 -11c-10.667 -6 -19.834 -14.5 -27.501 -25.5s-13.834 -23.5 -18.501 -37.5s-8.16699 -28.5 -10.5 -43.5s-3.5 -29.167 -3.5 -42.5c0 -22.667 7 -42 21 -58s36.667 -24.333 68 -25h28z
M291.002 198h-11.498c-3.66699 0 -7.83398 0.333008 -12.501 1l-110 -156c-12 -17.333 -24.333 -30 -37 -38s-26 -12 -40 -12c-16.667 0 -31 2.83301 -43 8.5s-23 11.834 -33 18.501l7 26h51l86 118c7.33301 10.667 15.833 19.667 25.5 27s17.5 13.666 23.5 18.999
c-16.667 2.66699 -30 7.5 -40 14.5s-17.667 15 -23 24s-8.83301 18.333 -10.5 28s-2.5 18.834 -2.5 27.501c0 29.333 5.66699 56.5 17 81.5s27 46.5 47 64.5s43.333 32 70 42s55.667 15 87 15c21.333 0 42.666 -2.33301 63.999 -7s42.333 -12 63 -22l-89 -420h70l4 -19
l-106 -46c-17.333 1.33301 -31.333 9.16602 -42 23.499s-16 30.5 -16 48.5c0 2 1.5 10 4.5 24l9.5 45l14 64h-27z" />
    <glyph glyph-name="uni0451" unicode="&#x451;" horiz-adv-x="410" 
d="M30 124c0 38.667 5.50098 80.3359 16.501 125.003s27.667 86.167 50 124.5s51 70.166 86 95.499s76.5 38 124.5 38c15.333 0 30.333 -2.33301 45 -7s27.834 -12 39.501 -22s21 -22.667 28 -38s10.5 -33.666 10.5 -54.999c0 -8.66699 -6.16699 -19 -18.5 -31
s-30.833 -24.167 -55.5 -36.5s-55 -24.166 -91 -35.499s-77.667 -20.333 -125 -27c-6.66699 -26.667 -11.334 -51.834 -14.001 -75.501s-4 -42.5 -4 -56.5c0 -15.333 0.833008 -28.5 2.5 -39.5s3.16699 -16.833 4.5 -17.5c6 -2 12.667 -3 20 -3c14 0 30.333 3 49 9
s37 13 55 21s34.833 16.167 50.5 24.5s27.834 15.166 36.501 20.499l9 -32l-40 -27.5c-18 -12.333 -37.833 -24.833 -59.5 -37.5s-44 -23.834 -67 -33.501s-43.833 -14.5 -62.5 -14.5s-33.834 4 -45.501 12s-20.834 18.333 -27.501 31s-11.167 26.667 -13.5 42
s-3.5 30.666 -3.5 45.999zM303.001 466.002c-19.333 0 -36.999 -5.00098 -52.999 -15.001s-30.167 -23.167 -42.5 -39.5s-23.333 -35 -33 -56s-17.834 -42.5 -24.501 -64.5c18 2.66699 39.167 7 63.5 13s47.333 13.667 69 23s40.167 21 55.5 35s23 30.667 23 50
c0 14.667 -5.5 27.334 -16.5 38.001s-24.833 16 -41.5 16zM323.002 632.001c0 -6 -2.66406 -12.5 -7.99707 -19.5s-11.833 -13.667 -19.5 -20s-15.5 -11.666 -23.5 -15.999s-14.667 -6.5 -20 -6.5c-4.66699 0 -9.66699 1.83301 -15 5.5s-10.333 8.33398 -15 14.001
s-8.5 11.5 -11.5 17.5s-4.5 11.667 -4.5 17s2.66699 11.666 8 18.999s11.666 14.166 18.999 20.499s15.166 11.833 23.499 16.5s15.166 7 20.499 7c4.66699 0 9.66699 -1.83301 15 -5.5s10.333 -8.33398 15 -14.001s8.5 -11.667 11.5 -18s4.5 -12.166 4.5 -17.499z
M486.005 632.001c-1.33301 -6 -4.66602 -12.666 -9.99902 -19.999s-11.833 -14 -19.5 -20s-15.334 -11.167 -23.001 -15.5s-13.834 -6.5 -18.501 -6.5s-9.66699 1.83301 -15 5.5s-10.333 8.33398 -15 14.001s-8.5 11.5 -11.5 17.5s-4.5 11.667 -4.5 17
c0.666992 6 3.83398 12.667 9.50098 20s12.334 14.166 20.001 20.499s15.167 11.666 22.5 15.999s13.666 6.5 18.999 6.5c4.66699 0 9.66699 -1.83301 15 -5.5s10.333 -8.33398 15 -14.001s8.5 -11.667 11.5 -18s4.5 -12.166 4.5 -17.499z" />
    <glyph glyph-name="uni0453" unicode="&#x453;" horiz-adv-x="498" 
d="M280 566c44.667 32 81.667 63.334 111 94.001s50 55 62 73c13.333 -5.33301 23.5 -12 30.5 -20s11.5 -19 13.5 -33c-30 -26 -61.167 -51.333 -93.5 -76s-64.833 -46.334 -97.5 -65.001zM245 304.001c10 6.66699 18.335 19.333 25.002 38s10 39.334 10 62.001
c0 13.333 -0.666992 25 -2 35s-5 17.667 -11 23c-4.66699 2.66699 -11 4 -19 4c-10 0 -21.333 -1.66699 -34 -5s-25.167 -7.16602 -37.5 -11.499l-35.5 -13l-27 -10.5l-11 32c19.333 12 42 23.167 68 33.5s52.667 15.5 80 15.5c16.667 0 32.5 -2 47.5 -6
s28.167 -10.667 39.5 -20s20.5 -21.5 27.5 -36.5s10.5 -33.5 10.5 -55.5c0 -15.333 -2.5 -29 -7.5 -41s-11.833 -22.833 -20.5 -32.5s-18.5 -18.834 -29.5 -27.501s-22.833 -17.334 -35.5 -26.001l-104 -72c-16.667 -11.333 -28.334 -23.833 -35.001 -37.5
s-10 -28.834 -10 -45.501c0 -12.667 1.33301 -23.167 4 -31.5s5.66699 -14.166 9 -17.499c8.66699 -4.66699 19 -7 31 -7c14 0 29.333 2.66699 46 8s32.667 11.833 48 19.5s29.666 15.334 42.999 23.001s24 14.167 32 19.5l16 -22l-43 -38
c-14.667 -12.667 -30.167 -24 -46.5 -34s-33.833 -18.167 -52.5 -24.5s-39 -9.5 -61 -9.5c-17.333 0 -33.833 2 -49.5 6s-29.5 10.167 -41.5 18.5s-21.5 18.833 -28.5 31.5s-10.5 27.334 -10.5 44.001c0 25.333 9.5 49.666 28.5 72.999s43.833 44.666 74.5 63.999z" />
    <glyph glyph-name="uni0456" unicode="&#x456;" horiz-adv-x="833" 
 />
    <glyph glyph-name="uni045C" unicode="&#x45c;" horiz-adv-x="481" 
d="M320 566c44.667 32 81.667 63.334 111 94.001s50 55 62 73c13.333 -5.33301 23.5 -12 30.5 -20s11.5 -19 13.5 -33c-30 -26 -61.167 -51.333 -93.5 -76s-64.833 -46.334 -97.5 -65.001zM174 193.001c-3.33301 -15.333 -6.49512 -31.6641 -9.49512 -48.9971
s-5.66699 -34.333 -8 -51s-4.33301 -32 -6 -46s-2.5 -25.333 -2.5 -34c0 -6.66699 1 -11 3 -13h-111c2.66699 10 5.5 22 8.5 36l9.5 45.5l11 52l12 55.5l55 259h-48l-6 26c23.333 9.33301 44.666 17.166 63.999 23.499s35.666 9.5 48.999 9.5
c11.333 0 20.166 -2.5 26.499 -7.5s9.5 -13.167 9.5 -24.5v-5c0 -2 -0.5 -5.5 -1.5 -10.5l-4 -21c-1.66699 -9 -4.16699 -20.833 -7.5 -35.5l-28 -134l38 2c11.333 8.66699 24.333 23.167 39 43.5l46 65l47 65c15.333 20.333 29.666 34.833 42.999 43.5
c8.66699 5.33301 18.667 9.66602 30 12.999s25.666 5.33301 42.999 6l-24 -83l-81 -38l-93 -117c6 -5.33301 12.167 -11.333 18.5 -18s11.833 -14 16.5 -22l98 -183h51l6 -26c-10.667 -6.66699 -22 -12.834 -34 -18.501s-26.333 -8.5 -43 -8.5
c-14 0 -27.667 3.16699 -41 9.5s-25.333 19.833 -36 40.5l-102 198h-28z" />
    <glyph glyph-name="endash" unicode="&#x2013;" horiz-adv-x="545" 
d="M64 301h459l-9 -45h-459z" />
    <glyph glyph-name="emdash" unicode="&#x2014;" horiz-adv-x="755" 
d="M64 301h669l-9 -45h-669z" />
    <glyph glyph-name="quoteleft" unicode="&#x2018;" horiz-adv-x="177" 
d="M75 515c5.33301 26 14.166 48.833 26.499 68.5s25 36.334 38 50.001s25.167 24.334 36.5 32.001s18.666 12.5 21.999 14.5l9 -15c-10.667 -8.66699 -22.667 -20.167 -36 -34.5s-23.333 -31.166 -30 -50.499c6 0 12.167 -1.83301 18.5 -5.5
s12.166 -8.33398 17.499 -14.001s9.66602 -11.834 12.999 -18.501s5 -13 5 -19c0 -6.66699 -2.66699 -13.667 -8 -21s-11.666 -14.166 -18.999 -20.499s-15.166 -11.5 -23.499 -15.5s-15.833 -6 -22.5 -6c-5.33301 0 -10.666 2 -15.999 6s-10.166 8.66699 -14.499 14
s-8 11.166 -11 17.499s-4.83301 12.166 -5.5 17.499z" />
    <glyph glyph-name="quoteright" unicode="&#x2019;" horiz-adv-x="248" 
d="M244 625c-5.33301 -26 -14.168 -48.8301 -26.501 -68.4971s-25 -36.334 -38 -50.001s-25.167 -24.334 -36.5 -32.001s-18.666 -12.5 -21.999 -14.5l-9 15c10.667 8.66699 22.667 20.167 36 34.5s23.333 31.166 30 50.499c-6 0 -12.167 1.83301 -18.5 5.5
s-12.166 8.33398 -17.499 14.001s-9.66602 11.834 -12.999 18.501s-5 13 -5 19c0 6.66699 2.5 13.667 7.5 21s11.333 14.166 19 20.499s15.667 11.5 24 15.5s15.833 6 22.5 6c5.33301 0 10.666 -2 15.999 -6s10.166 -8.66699 14.499 -14s8 -11.333 11 -18
s4.83301 -12.334 5.5 -17.001z" />
    <glyph glyph-name="quotedblleft" unicode="&#x201c;" horiz-adv-x="325" 
d="M75 515c5.33301 26 14.166 48.833 26.499 68.5s25 36.334 38 50.001s25.167 24.334 36.5 32.001s18.666 12.5 21.999 14.5l9 -15c-10.667 -8.66699 -22.667 -20.167 -36 -34.5s-23.333 -31.166 -30 -50.499c6 0 12.167 -1.83301 18.5 -5.5
s12.166 -8.33398 17.499 -14.001s9.66602 -11.834 12.999 -18.501s5 -13 5 -19c0 -6.66699 -2.66699 -13.667 -8 -21s-11.666 -14.166 -18.999 -20.499s-15.166 -11.5 -23.499 -15.5s-15.833 -6 -22.5 -6c-5.33301 0 -10.666 2 -15.999 6s-10.166 8.66699 -14.499 14
s-8 11.166 -11 17.499s-4.83301 12.166 -5.5 17.499zM223 515c5.33301 26 14.166 48.833 26.499 68.5s25 36.334 38 50.001s25.167 24.334 36.5 32.001s18.666 12.5 21.999 14.5l9 -15c-10.667 -8.66699 -22.667 -20.167 -36 -34.5s-23.333 -31.166 -30 -50.499
c6 0 12.167 -1.83301 18.5 -5.5s12.166 -8.33398 17.499 -14.001s9.66602 -11.834 12.999 -18.501s5 -13 5 -19c0 -6.66699 -2.66699 -13.667 -8 -21s-11.666 -14.166 -18.999 -20.499s-15.166 -11.5 -23.499 -15.5s-15.833 -6 -22.5 -6c-5.33301 0 -10.666 2 -15.999 6
s-10.166 8.66699 -14.499 14s-8 11.166 -11 17.499s-4.83301 12.166 -5.5 17.499z" />
    <glyph glyph-name="quotedblright" unicode="&#x201d;" horiz-adv-x="395" 
d="M380 625c-5.33301 -26 -14.168 -48.8301 -26.501 -68.4971s-25 -36.334 -38 -50.001s-25.167 -24.334 -36.5 -32.001s-18.666 -12.5 -21.999 -14.5l-9 15c10.667 8.66699 22.667 20.167 36 34.5s23.333 31.166 30 50.499c-6 0 -12.167 1.83301 -18.5 5.5
s-12.166 8.33398 -17.499 14.001s-9.66602 11.834 -12.999 18.501s-5 13 -5 19c0 6.66699 2.5 13.667 7.5 21s11.333 14.166 19 20.499s15.667 11.5 24 15.5s15.833 6 22.5 6c5.33301 0 10.666 -2 15.999 -6s10.166 -8.66699 14.499 -14s8 -11.333 11 -18
s4.83301 -12.334 5.5 -17.001zM231.998 625.003c-5.33301 -26 -14.168 -48.8301 -26.501 -68.4971s-25 -36.334 -38 -50.001s-25.167 -24.334 -36.5 -32.001s-18.666 -12.5 -21.999 -14.5l-9 15c10.667 8.66699 22.667 20.167 36 34.5s23.333 31.166 30 50.499
c-6 0 -12.167 1.83301 -18.5 5.5s-12.166 8.33398 -17.499 14.001s-9.66602 11.834 -12.999 18.501s-5 13 -5 19c0 6.66699 2.5 13.667 7.5 21s11.333 14.166 19 20.499s15.667 11.5 24 15.5s15.833 6 22.5 6c5.33301 0 10.666 -2 15.999 -6s10.166 -8.66699 14.499 -14
s8 -11.333 11 -18s4.83301 -12.334 5.5 -17.001z" />
    <glyph glyph-name="quotedblbase" unicode="&#x201e;" horiz-adv-x="356" 
d="M300 58c-5.33301 -26 -14.168 -48.8301 -26.501 -68.4971s-25 -36.334 -38 -50.001s-25.167 -24.334 -36.5 -32.001s-18.666 -12.5 -21.999 -14.5l-9 15c10.667 8.66699 22.667 20.167 36 34.5s23.333 31.166 30 50.499c-6 0 -12.167 1.83301 -18.5 5.5
s-12.166 8.33398 -17.499 14.001s-9.66602 11.834 -12.999 18.501s-5 13 -5 19c0 6.66699 2.5 13.667 7.5 21s11.333 14.166 19 20.499s15.667 11.5 24 15.5s15.833 6 22.5 6c5.33301 0 10.666 -2 15.999 -6s10.166 -8.66699 14.499 -14s8 -11.333 11 -18
s4.83301 -12.334 5.5 -17.001zM151.998 58.0029c-5.33301 -26 -14.168 -48.8301 -26.501 -68.4971s-25 -36.334 -38 -50.001s-25.167 -24.334 -36.5 -32.001s-18.666 -12.5 -21.999 -14.5l-9 15c10.667 8.66699 22.667 20.167 36 34.5s23.333 31.166 30 50.499
c-6 0 -12.167 1.83301 -18.5 5.5s-12.166 8.33398 -17.499 14.001s-9.66602 11.834 -12.999 18.501s-5 13 -5 19c0 6.66699 2.5 13.667 7.5 21s11.333 14.166 19 20.499s15.667 11.5 24 15.5s15.833 6 22.5 6c5.33301 0 10.666 -2 15.999 -6s10.166 -8.66699 14.499 -14
s8 -11.333 11 -18s4.83301 -12.334 5.5 -17.001z" />
    <glyph glyph-name="dagger" unicode="&#x2020;" horiz-adv-x="486" 
d="M169 -57l-34.001 10.001l116 444l-185 -26l-4 14c-1.33301 4.66699 -2 9.66699 -2 15c0 9.33301 2.16699 18 6.5 26s9.83301 16.333 16.5 25l173 -28l17 186c6.66699 3.33301 13.5 6.5 20.5 9.5s14.167 4.5 21.5 4.5c8 0 14.833 -1.33301 20.5 -4s11.5 -6 17.5 -10
l-65 -186l186 28c4.66699 -10.667 7 -20.667 7 -30s-2.16699 -17.833 -6.5 -25.5s-10.166 -15.834 -17.499 -24.501l-173 26l-73 -444z" />
    <glyph glyph-name="bullet" unicode="&#x2022;" horiz-adv-x="416" 
d="M75 286c0 22.667 4.83301 45 14.5 67s22.834 41.833 39.501 59.5s36 31.834 58 42.501s45.667 16 71 16c36 0 64.667 -11.333 86 -34s32 -51 32 -85c0 -22.667 -4.83301 -44.834 -14.5 -66.501s-22.834 -41.167 -39.501 -58.5s-36.167 -31.333 -58.5 -42
s-45.833 -16 -70.5 -16c-36 0 -64.667 11 -86 33s-32 50 -32 84z" />
    <glyph glyph-name="ellipsis" unicode="&#x2026;" horiz-adv-x="525" 
d="M150 56c-0.666992 -5.33301 -3.83008 -11.665 -9.49707 -18.998s-12.334 -14.333 -20.001 -21s-15.5 -12.167 -23.5 -16.5s-14.667 -6.5 -20 -6.5s-10.833 2 -16.5 6s-10.667 8.83301 -15 14.5s-8 11.667 -11 18s-4.5 12.166 -4.5 17.499c0 7.33301 2.5 14.833 7.5 22.5
s11.167 14.5 18.5 20.5s15.166 11 23.499 15s16.166 6 23.499 6c5.33301 0 10.833 -2 16.5 -6s10.667 -9 15 -15s8 -12.333 11 -19s4.5 -12.334 4.5 -17.001zM320.004 56.001c-0.666992 -5.33301 -3.83008 -11.665 -9.49707 -18.998s-12.334 -14.333 -20.001 -21
s-15.5 -12.167 -23.5 -16.5s-14.667 -6.5 -20 -6.5s-10.833 2 -16.5 6s-10.667 8.83301 -15 14.5s-8 11.667 -11 18s-4.5 12.166 -4.5 17.499c0 7.33301 2.5 14.833 7.5 22.5s11.167 14.5 18.5 20.5s15.166 11 23.499 15s16.166 6 23.499 6c5.33301 0 10.833 -2 16.5 -6
s10.667 -9 15 -15s8 -12.333 11 -19s4.5 -12.334 4.5 -17.001zM490.008 56.002c-0.666992 -5.33301 -3.83008 -11.665 -9.49707 -18.998s-12.334 -14.333 -20.001 -21s-15.5 -12.167 -23.5 -16.5s-14.667 -6.5 -20 -6.5s-10.833 2 -16.5 6s-10.667 8.83301 -15 14.5
s-8 11.667 -11 18s-4.5 12.166 -4.5 17.499c0 7.33301 2.5 14.833 7.5 22.5s11.167 14.5 18.5 20.5s15.166 11 23.499 15s16.166 6 23.499 6c5.33301 0 10.833 -2 16.5 -6s10.667 -9 15 -15s8 -12.333 11 -19s4.5 -12.334 4.5 -17.001z" />
    <glyph glyph-name="Euro" unicode="&#x20ac;" horiz-adv-x="546" 
d="M42 324l61.0039 0.00195312c12.667 25.333 28.167 49.166 46.5 71.499s39.5 41.666 63.5 57.999s50.667 29.333 80 39s61 14.5 95 14.5c20.667 0 41.167 -1.66699 61.5 -5s41.166 -8 62.499 -14l-40 -79l-34.5 20c-11.667 6.66699 -23.167 12.834 -34.5 18.501
s-22 10.334 -32 14.001s-19 5.5 -27 5.5c-17.333 0 -33.833 -4 -49.5 -12s-30.334 -18.667 -44.001 -32s-26.167 -28.5 -37.5 -45.5s-21 -34.833 -29 -53.5h251l-21 -42h-244c-5.33301 -16 -8.66602 -33.333 -9.99902 -52h228l-22 -42h-208
c2.66699 -40.667 14 -73.667 34 -99s50.667 -38 92 -38c39.333 0 86.666 13 141.999 39l6 -22c-30 -26 -60.833 -45 -92.5 -57s-62.167 -18 -91.5 -18c-32 0 -59.5 5 -82.5 15s-41.833 23.5 -56.5 40.5s-25.334 36.667 -32.001 59s-10 46.166 -10 71.499v9h-54l9 42h50
c1.33301 11.333 3.16602 21.166 5.49902 29.499s4.83301 15.833 7.5 22.5h-52z" />
    <glyph glyph-name="uni2116" unicode="&#x2116;" horiz-adv-x="756" 
d="M538 491c-18.667 -6.66699 -36.9971 -11.667 -54.9971 -15l-99 -464l-43 -19l-165 407l-3 -1l-9 -65l-66 -313c17.333 -3.33301 34 -8.33301 50 -15l-2 -8h-146l2 8c17.333 6.66699 35.666 11.667 54.999 15l97 455c-8.66699 1.33301 -17.334 3.33301 -26.001 6
s-16.667 5.66699 -24 9l2 9h115l150 -371l3 1l11 81l57 265c-18.667 3.33301 -35.334 8.33301 -50.001 15l2 9h146zM519.003 274c0 18 3.83496 35.5 11.502 52.5s18.167 32.333 31.5 46s28.666 24.5 45.999 32.5s36 12 56 12c27.333 0 49.5 -7 66.5 -21
s25.5 -33.667 25.5 -59c0 -18 -4.16699 -35.5 -12.5 -52.5s-19.333 -32 -33 -45s-29.334 -23.333 -47.001 -31s-36.167 -11.5 -55.5 -11.5c-26.667 0 -48.167 6.83301 -64.5 20.5s-24.5 32.5 -24.5 56.5zM657.005 399c-13.333 0 -25.166 -4.16699 -35.499 -12.5
s-19 -18.833 -26 -31.5s-12.167 -26.167 -15.5 -40.5s-5 -27.5 -5 -39.5c0 -17.333 3.33301 -31.666 10 -42.999s17.667 -17 33 -17c13.333 0 25.166 4 35.499 12s19 18 26 30s12.333 25.167 16 39.5s5.5 27.5 5.5 39.5c0 17.333 -3.5 32.166 -10.5 44.499
s-18.167 18.5 -33.5 18.5zM492.005 151h227l-8 -36h-227z" />
    <glyph glyph-name="trademark" unicode="&#x2122;" horiz-adv-x="698" 
d="M312 423l101 324h44l35 -236l137 236h44l-40 -324h-47l35 268l-149 -263h-17l-38 255l-77 -260h-28zM147 423l64 300h-100l5 24h246l-5 -24h-101l-64 -300h-45z" />
    <glyph glyph-name="Delta" unicode="&#x2206;" horiz-adv-x="688" 
d="M40 46l388 664l57 22l138 -686l-4 -46h-572zM423 618l-323 -569h435l-108 571z" />
    <glyph glyph-name="radical" unicode="&#x221a;" horiz-adv-x="577" 
d="M182 -105l-38 554h-48l-6 26l150 32l23 -374l-4 -81l357 685l41 -13l-430 -816z" />
    <glyph glyph-name="infinity" unicode="&#x221e;" horiz-adv-x="639" 
d="M354 349c10 12.667 21.6641 24.501 34.9971 35.501s27.166 20.5 41.499 28.5s29 14.167 44 18.5s29.167 6.5 42.5 6.5c27.333 0 50.833 -8.83301 70.5 -26.5s29.5 -41.834 29.5 -72.501c0 -22 -5 -43.333 -15 -64s-23.333 -38.667 -40 -54s-36 -27.666 -58 -36.999
s-44.667 -14 -68 -14s-45.833 6.66699 -67.5 20s-40.167 36 -55.5 68c-10 -12.667 -21.667 -24.334 -35 -35.001s-27.166 -20 -41.499 -28s-29 -14.167 -44 -18.5s-28.833 -6.5 -41.5 -6.5c-13.333 0 -26.166 2.33301 -38.499 7s-23.166 11.334 -32.499 20.001
s-16.666 19.167 -21.999 31.5s-8 26.166 -8 41.499c0 22 5.16699 43.167 15.5 63.5s24 38.333 41 54s36.333 28 58 37s44.167 13.5 67.5 13.5s45.5 -6.33301 66.5 -19s37.5 -32 49.5 -58zM499.997 400.001c-23.333 0 -46.668 -6.83203 -70.001 -20.499
s-45.333 -30.5 -66 -50.5c6 -13.333 12.333 -26.333 19 -39s14.167 -24.334 22.5 -35.001s18 -19.167 29 -25.5s23.833 -9.5 38.5 -9.5c27.333 0 51.833 9.66699 73.5 29s35.167 44.666 40.5 75.999c0 20.667 -7.16699 38.334 -21.5 53.001s-36.166 22 -65.499 22z
M167.995 208.002c23.333 0 46.334 6.83496 69.001 20.502s44.667 30.167 66 49.5c-6 13.333 -12.333 26.5 -19 39.5s-14.334 24.833 -23.001 35.5s-18.5 19.167 -29.5 25.5s-23.5 9.5 -37.5 9.5c-27.333 0 -51.5 -8.83301 -72.5 -26.5s-34.833 -43.834 -41.5 -78.501
c0 -20.667 7.33301 -38.334 22 -53.001s36.667 -22 66 -22z" />
    <glyph glyph-name="approxequal" unicode="&#x2248;" horiz-adv-x="593" 
d="M79 381c23.333 9.33301 47.335 16.666 72.002 21.999s47.667 8 69 8c22 0 42.833 -2.83301 62.5 -8.5s38.5 -11.667 56.5 -18s35.5 -12.166 52.5 -17.499s34.167 -8 51.5 -8c21.333 0 40.833 1.66699 58.5 5s37.167 8.66602 58.5 15.999l11 -54
c-24.667 -9.33301 -47.334 -16.166 -68.001 -20.499s-46.334 -6.5 -77.001 -6.5c-18 0 -35.667 2.66699 -53 8s-35 11.333 -53 18s-36.167 12.667 -54.5 18s-37.5 8 -57.5 8c-19.333 0 -39.333 -2.16699 -60 -6.5s-40.667 -9.83301 -60 -16.5zM55.002 264
c22.667 9.33301 46.335 16.666 71.002 21.999s47.667 8 69 8c22 0 42.833 -2.83301 62.5 -8.5s38.5 -11.667 56.5 -18s35.5 -12.166 52.5 -17.499s34.167 -8 51.5 -8c21.333 0 40.833 1.66699 58.5 5s37.167 8.66602 58.5 15.999l11 -54
c-24.667 -9.33301 -47.334 -16.166 -68.001 -20.499s-46.334 -6.5 -77.001 -6.5c-18 0 -35.667 2.66699 -53 8s-35 11.333 -53 18s-36.167 12.667 -54.5 18s-37.5 8 -57.5 8c-19.333 0 -39.333 -2.16699 -60 -6.5s-40.667 -9.83301 -60 -16.5z" />
    <glyph glyph-name="notequal" unicode="&#x2260;" horiz-adv-x="596" 
d="M476 517l32 -29l-361 -378l-33 29zM553 397l-13 -60h-460l13 60h460zM528 280l-13 -60h-460l13 60h460z" />
    <glyph glyph-name="lessequal" unicode="&#x2264;" horiz-adv-x="646" 
d="M121 318l501 189l14 -55l-427 -157l360 -157l-37 -54l-421 188zM554 60l-12 -60h-487l12 60h487z" />
    <glyph glyph-name="greaterequal" unicode="&#x2265;" horiz-adv-x="622" 
d="M585 272l-501 -188l-13 54l426 157l-359 157l36 55l421 -189zM539 60l-12 -60h-487l12 60h487z" />
    <glyph glyph-name="G.001" horiz-adv-x="590" 
 />
    <glyph glyph-name="C.001" horiz-adv-x="558" 
 />
    <glyph glyph-name="S.001" horiz-adv-x="470" 
 />
    <glyph glyph-name="_0127" horiz-adv-x="0" 
 />
    </font>
</defs>
</svg>
